<svg xmlns="http://www.w3.org/2000/svg" viewBox="0 0 1200 300" width="1200" height="300" role="img" aria-label="John Paul Bayoneto — FinTech Engineer">
<defs>
  <linearGradient id="bg" x1="0" y1="0" x2="1" y2="1">
    <stop offset="0"   stop-color="#0A0E1A"/>
    <stop offset="0.55" stop-color="#0B1120"/>
    <stop offset="1"   stop-color="#0E1730"/>
  </linearGradient>
  <radialGradient id="glowName" cx="0.28" cy="0.42" r="0.6">
    <stop offset="0" stop-color="#2A5CB8" stop-opacity="0.28"/>
    <stop offset="1" stop-color="#2A5CB8" stop-opacity="0"/>
  </radialGradient>
  <radialGradient id="glowNode" cx="0.5" cy="0.5" r="0.5">
    <stop offset="0" stop-color="#34D399" stop-opacity="0.55"/>
    <stop offset="1" stop-color="#34D399" stop-opacity="0"/>
  </radialGradient>
  <linearGradient id="rail" x1="0" y1="0" x2="1" y2="0">
    <stop offset="0"   stop-color="#38BDF8" stop-opacity="0"/>
    <stop offset="0.5" stop-color="#38BDF8" stop-opacity="0.9"/>
    <stop offset="1"   stop-color="#34D399" stop-opacity="0.9"/>
  </linearGradient>
  <filter id="soft" x="-60%" y="-60%" width="220%" height="220%">
    <feGaussianBlur stdDeviation="6"/>
  </filter>
  <pattern id="dots" width="22" height="22" patternUnits="userSpaceOnUse">
    <circle cx="1" cy="1" r="1" fill="#5B7BB0" opacity="0.10"/>
  </pattern>
</defs>
<style>
@keyframes fxFade { from {opacity:0} to {opacity:1} }
@keyframes fxMove { 0%{offset-distance:0%;opacity:0} 12%{opacity:1} 66%{offset-distance:100%;opacity:1} 70%{opacity:0} 100%{offset-distance:100%;opacity:0} }
@keyframes fxPulse { 0%{transform:scale(.6);opacity:.7} 100%{transform:scale(2.6);opacity:0} }
@keyframes fxDash { to {stroke-dashoffset:-36} }
.fx-panel { animation: fxFade .9s ease both; }
.fx-flow { display:none; }
@supports (offset-path: path('M0 0')) { .fx-flow { display:block; offset-path: path('M 876 168 L 992 116 L 1104 150'); offset-rotate:0deg; animation: fxMove 3s ease-in-out infinite; } }
.fx-ring { transform-box: fill-box; transform-origin: center; animation: fxPulse 2.4s ease-out infinite; }
.fx-dash { animation: fxDash 1.6s linear infinite; }
@media (prefers-reduced-motion: reduce) {
  .fx-panel,.fx-ring,.fx-dash { animation: none; }
  .fx-flow { display: none; } .fx-ring { opacity: 0; }
}
</style><g class="fx-panel"><rect width="1200" height="300" rx="16" fill="url(#bg)"/><rect width="1200" height="300" rx="16" fill="url(#dots)"/><rect x="640" y="0" width="560" height="300" fill="url(#glowName)" opacity="0.0"/><ellipse cx="330" cy="150" rx="420" ry="220" fill="url(#glowName)"/><rect x="16" y="0" width="1168" height="1.4" fill="#38BDF8" opacity="0.35" rx="1"/><rect x="0.75" y="0.75" width="1198.5" height="298.5" rx="16" fill="none" stroke="#24314F" stroke-width="1.5"/><g transform="translate(70.00,74.00) scale(0.01350,-0.01350)" fill="#5E82C4"><path transform="translate(0.0,0)" d="M294 -12Q203 -12 141.0 20.0Q79 52 39 105L111 174Q151 126 196.0 103.5Q241 81 298 81Q364 81 399.5 111.0Q435 141 435 197Q435 242 409.0 266.5Q383 291 320 302L244 314Q194 322 160.0 340.5Q126 359 105.0 384.5Q84 410 74.5 441.5Q65 473 65 508Q65 607 129.0 658.5Q193 710 305 710Q388 710 446.5 683.5Q505 657 541 609L471 539Q442 574 402.5 595.5Q363 617 305 617Q243 617 210.5 590.5Q178 564 178 513Q178 470 203.5 445.5Q229 421 294 410L368 397Q462 380 505.0 328.5Q548 277 548 203Q548 155 531.5 115.0Q515 75 482.5 47.0Q450 19 402.5 3.5Q355 -12 294 -12Z"/><path transform="translate(837.0,0)" d="M274 321 190 216V0H78V698H190V364H195L280 480L451 698H580L350 404L589 0H461Z"/><path transform="translate(1674.1,0)" d="M244 0V263L12 698H137L226 524L298 375H304L377 524L466 698H588L356 263V0Z"/><path transform="translate(2511.1,0)" d="M83 698H324Q419 698 471.5 649.0Q524 600 524 515Q524 454 494.0 418.0Q464 382 413 367V362Q474 348 511.0 308.5Q548 269 548 197Q548 154 534.0 118.0Q520 82 494.0 55.5Q468 29 431.5 14.5Q395 0 351 0H83ZM317 86Q373 86 403.0 109.0Q433 132 433 183V219Q433 270 403.0 293.0Q373 316 317 316H193V86ZM301 398Q354 398 381.5 418.5Q409 439 409 487V523Q409 571 381.5 591.5Q354 612 301 612H193V398Z"/><path transform="translate(3348.1,0)" d="M195 0H84V698H345Q445 698 497.5 642.0Q550 586 550 488Q550 408 511.0 356.0Q472 304 399 292L560 0H436L288 282H195ZM329 372Q433 372 433 467V510Q433 605 329 605H195V372Z"/><path transform="translate(4185.2,0)" d="M80 0V85H244V613H80V698H520V613H356V85H520V0Z"/><path transform="translate(5022.2,0)" d="M82 698H290Q424 698 488.5 609.0Q553 520 553 349Q553 178 488.5 89.0Q424 0 290 0H82ZM283 92Q360 92 397.5 143.5Q435 195 435 291V407Q435 503 397.5 554.5Q360 606 283 606H193V92Z"/><path transform="translate(5859.3,0)" d="M430 96H423Q414 75 401.5 55.5Q389 36 370.5 21.0Q352 6 326.0 -3.0Q300 -12 266 -12Q157 -12 102.0 81.0Q47 174 47 344Q47 522 110.0 616.0Q173 710 303 710Q354 710 392.5 696.0Q431 682 458.0 658.5Q485 635 503.0 603.5Q521 572 532 537L431 503Q423 526 413.0 546.5Q403 567 388.5 583.0Q374 599 353.5 608.0Q333 617 304 617Q231 617 198.5 560.5Q166 504 166 408V297Q166 249 173.0 209.0Q180 169 196.5 140.5Q213 112 239.5 96.0Q266 80 304 80Q365 80 397.5 116.5Q430 153 430 210V273H295V357H532V0H430Z"/><path transform="translate(6696.3,0)" d="M86 0V698H523V604H198V401H511V307H198V94H523V0Z"/><path transform="translate(8370.4,0)" d="M84 0V698H345Q445 698 497.5 642.0Q550 586 550 488Q550 390 497.5 334.0Q445 278 345 278H196V0ZM196 371H328Q432 371 432 467V510Q432 605 328 605H196Z"/><path transform="translate(9207.4,0)" d="M462 0 409 186H187L134 0H20L224 698H377L581 0ZM302 585H294L208 279H388Z"/><path transform="translate(10044.4,0)" d="M244 0V263L12 698H137L226 524L298 375H304L377 524L466 698H588L356 263V0Z"/><path transform="translate(10881.5,0)" d="M445 334 448 544H440L300 185L160 544H152L155 334V0H56V698H193L300 421H307L415 698H544V0H445Z"/><path transform="translate(11718.5,0)" d="M86 0V698H523V604H198V401H511V307H198V94H523V0Z"/><path transform="translate(12555.6,0)" d="M179 537H170V0H72V698H216L421 161H430V698H528V0H384Z"/><path transform="translate(13392.6,0)" d="M356 604V0H244V604H25V698H575V604Z"/><path transform="translate(15066.7,0)" d="M80 0V85H244V613H80V698H520V613H356V85H520V0Z"/><path transform="translate(15903.7,0)" d="M179 537H170V0H72V698H216L421 161H430V698H528V0H384Z"/><path transform="translate(16740.7,0)" d="M320 -12Q187 -12 122.5 82.0Q58 176 58 349Q58 522 122.5 616.0Q187 710 320 710Q371 710 408.5 696.5Q446 683 473.0 659.5Q500 636 518.5 604.5Q537 573 549 537L448 503Q440 527 430.0 548.0Q420 569 405.0 584.0Q390 599 369.5 608.0Q349 617 319 617Q245 617 211.0 560.5Q177 504 177 408V290Q177 194 211.0 137.5Q245 81 319 81Q349 81 369.5 90.0Q390 99 405.0 114.0Q420 129 430.0 150.0Q440 171 448 195L549 161Q537 125 518.5 93.5Q500 62 473.0 38.5Q446 15 408.5 1.5Q371 -12 320 -12Z"/><path transform="translate(17577.8,0)" d="M300 -10Q252 -10 232.5 10.0Q213 30 213 59V85Q213 114 232.5 134.0Q252 154 300 154Q348 154 367.5 134.0Q387 114 387 85V59Q387 30 367.5 10.0Q348 -10 300 -10Z"/></g><circle cx="334.6" cy="69" r="2.2" fill="#34D399"/><g transform="translate(348.60,74.00) scale(0.01350,-0.01350)" fill="#5E82C4"><path transform="translate(0.0,0)" d="M294 -12Q203 -12 141.0 20.0Q79 52 39 105L111 174Q151 126 196.0 103.5Q241 81 298 81Q364 81 399.5 111.0Q435 141 435 197Q435 242 409.0 266.5Q383 291 320 302L244 314Q194 322 160.0 340.5Q126 359 105.0 384.5Q84 410 74.5 441.5Q65 473 65 508Q65 607 129.0 658.5Q193 710 305 710Q388 710 446.5 683.5Q505 657 541 609L471 539Q442 574 402.5 595.5Q363 617 305 617Q243 617 210.5 590.5Q178 564 178 513Q178 470 203.5 445.5Q229 421 294 410L368 397Q462 380 505.0 328.5Q548 277 548 203Q548 155 531.5 115.0Q515 75 482.5 47.0Q450 19 402.5 3.5Q355 -12 294 -12Z"/><path transform="translate(837.0,0)" d="M300 -12Q234 -12 185.5 12.5Q137 37 105.5 83.0Q74 129 59.0 196.0Q44 263 44 349Q44 434 59.0 501.5Q74 569 105.5 615.0Q137 661 185.5 685.5Q234 710 300 710Q366 710 414.5 685.5Q463 661 494.5 615.0Q526 569 541.0 501.5Q556 434 556 349Q556 263 541.0 196.0Q526 129 494.5 83.0Q463 37 414.5 12.5Q366 -12 300 -12ZM300 81Q375 81 406.0 137.5Q437 194 437 291V408Q437 504 406.0 560.5Q375 617 300 617Q225 617 194.0 560.5Q163 504 163 408V290Q163 194 194.0 137.5Q225 81 300 81Z"/><path transform="translate(1674.1,0)" d="M86 0V698H535V604H198V401H504V307H198V0Z"/><path transform="translate(2511.1,0)" d="M356 604V0H244V604H25V698H575V604Z"/><path transform="translate(3348.1,0)" d="M75 0 25 698H123L148 292L159 113H167L246 529H357L436 113H444L455 292L481 698H575L525 0H375L304 404H296L225 0Z"/><path transform="translate(4185.2,0)" d="M462 0 409 186H187L134 0H20L224 698H377L581 0ZM302 585H294L208 279H388Z"/><path transform="translate(5022.2,0)" d="M195 0H84V698H345Q445 698 497.5 642.0Q550 586 550 488Q550 408 511.0 356.0Q472 304 399 292L560 0H436L288 282H195ZM329 372Q433 372 433 467V510Q433 605 329 605H195V372Z"/><path transform="translate(5859.3,0)" d="M86 0V698H523V604H198V401H511V307H198V94H523V0Z"/><path transform="translate(7533.3,0)" d="M86 0V698H523V604H198V401H511V307H198V94H523V0Z"/><path transform="translate(8370.4,0)" d="M179 537H170V0H72V698H216L421 161H430V698H528V0H384Z"/><path transform="translate(9207.4,0)" d="M430 96H423Q414 75 401.5 55.5Q389 36 370.5 21.0Q352 6 326.0 -3.0Q300 -12 266 -12Q157 -12 102.0 81.0Q47 174 47 344Q47 522 110.0 616.0Q173 710 303 710Q354 710 392.5 696.0Q431 682 458.0 658.5Q485 635 503.0 603.5Q521 572 532 537L431 503Q423 526 413.0 546.5Q403 567 388.5 583.0Q374 599 353.5 608.0Q333 617 304 617Q231 617 198.5 560.5Q166 504 166 408V297Q166 249 173.0 209.0Q180 169 196.5 140.5Q213 112 239.5 96.0Q266 80 304 80Q365 80 397.5 116.5Q430 153 430 210V273H295V357H532V0H430Z"/><path transform="translate(10044.4,0)" d="M80 0V85H244V613H80V698H520V613H356V85H520V0Z"/><path transform="translate(10881.5,0)" d="M179 537H170V0H72V698H216L421 161H430V698H528V0H384Z"/><path transform="translate(11718.5,0)" d="M86 0V698H523V604H198V401H511V307H198V94H523V0Z"/><path transform="translate(12555.6,0)" d="M86 0V698H523V604H198V401H511V307H198V94H523V0Z"/><path transform="translate(13392.6,0)" d="M195 0H84V698H345Q445 698 497.5 642.0Q550 586 550 488Q550 408 511.0 356.0Q472 304 399 292L560 0H436L288 282H195ZM329 372Q433 372 433 467V510Q433 605 329 605H195V372Z"/></g><g transform="translate(68.00,150.00) scale(0.06200,-0.06200)" fill="#F4F8FF"><path transform="translate(0.0,0)" d="M267 -14Q159 -14 95.5 45.0Q32 104 32 210V276H164V210Q164 163 190.0 136.5Q216 110 263 110Q307 110 331.5 136.0Q356 162 356 210V580H236V700H568V580H488V210Q488 101 429.0 43.5Q370 -14 267 -14Z"/><path transform="translate(601.9,0)" d="M306 -14Q232 -14 173.0 16.0Q114 46 80.0 103.0Q46 160 46 240V256Q46 336 80.0 393.0Q114 450 173.0 480.0Q232 510 306 510Q380 510 439.0 480.0Q498 450 532.0 393.0Q566 336 566 256V240Q566 160 532.0 103.0Q498 46 439.0 16.0Q380 -14 306 -14ZM306 98Q364 98 402.0 135.5Q440 173 440 243V253Q440 323 402.5 360.5Q365 398 306 398Q248 398 210.0 360.5Q172 323 172 253V243Q172 173 210.0 135.5Q248 98 306 98Z"/><path transform="translate(1205.9,0)" d="M70 0V700H196V435H214Q222 451 239.0 467.0Q256 483 284.5 493.5Q313 504 357 504Q415 504 458.5 477.5Q502 451 526.0 404.5Q550 358 550 296V0H424V286Q424 342 396.5 370.0Q369 398 318 398Q260 398 228.0 359.5Q196 321 196 252V0Z"/><path transform="translate(1813.8,0)" d="M70 0V496H194V431H212Q224 457 257.0 480.5Q290 504 357 504Q415 504 458.5 477.5Q502 451 526.0 404.5Q550 358 550 296V0H424V286Q424 342 396.5 370.0Q369 398 318 398Q260 398 228.0 359.5Q196 321 196 252V0Z"/><path transform="translate(2667.7,0)" d="M66 0V700H354Q420 700 470.5 673.5Q521 647 549.5 599.0Q578 551 578 485V471Q578 406 548.5 357.5Q519 309 468.5 282.5Q418 256 354 256H198V0ZM198 376H341Q388 376 417.0 402.0Q446 428 446 473V483Q446 528 417.0 554.0Q388 580 341 580H198Z"/><path transform="translate(3263.6,0)" d="M224 -14Q171 -14 129.0 4.5Q87 23 62.5 58.5Q38 94 38 145Q38 196 62.5 230.5Q87 265 130.5 282.5Q174 300 230 300H366V328Q366 363 344.0 385.5Q322 408 274 408Q227 408 204.0 386.5Q181 365 174 331L58 370Q70 408 96.5 439.5Q123 471 167.5 490.5Q212 510 276 510Q374 510 431.0 461.0Q488 412 488 319V134Q488 104 516 104H556V0H472Q435 0 411.0 18.0Q387 36 387 66V67H368Q364 55 350.0 35.5Q336 16 306.0 1.0Q276 -14 224 -14ZM246 88Q299 88 332.5 117.5Q366 147 366 196V206H239Q204 206 184.0 191.0Q164 176 164 149Q164 122 185.0 105.0Q206 88 246 88Z"/><path transform="translate(3833.5,0)" d="M259 -8Q201 -8 157.5 18.5Q114 45 90.0 92.0Q66 139 66 200V496H192V210Q192 154 219.5 126.0Q247 98 298 98Q356 98 388.0 136.5Q420 175 420 244V496H546V0H422V65H404Q392 40 359.0 16.0Q326 -8 259 -8Z"/><path transform="translate(4441.5,0)" d="M70 0V700H196V0Z"/></g><linearGradient id="surname" gradientUnits="userSpaceOnUse"
   x1="68" y1="0" x2="357.3" y2="0">
   <stop offset="0" stop-color="#7FB4FF"/>
   <stop offset="0.55" stop-color="#4C93F5"/>
   <stop offset="1" stop-color="#34D399"/>
 </linearGradient><g transform="translate(68.00,212.00) scale(0.06200,-0.06200)" fill="url(#surname)"><path transform="translate(0.0,0)" d="M46 0V116H138V584H46V700H406Q470 700 517.5 678.5Q565 657 591.5 617.5Q618 578 618 523V513Q618 465 600.0 434.5Q582 404 557.5 387.5Q533 371 511 364V346Q533 340 559.0 323.5Q585 307 603.5 276.0Q622 245 622 195V185Q622 127 595.0 85.5Q568 44 520.5 22.0Q473 0 410 0ZM270 120H394Q437 120 463.5 141.0Q490 162 490 201V211Q490 250 464.0 271.0Q438 292 394 292H270ZM270 412H392Q433 412 459.5 433.0Q486 454 486 491V501Q486 539 460.0 559.5Q434 580 392 580H270Z"/><path transform="translate(655.9,0)" d="M224 -14Q171 -14 129.0 4.5Q87 23 62.5 58.5Q38 94 38 145Q38 196 62.5 230.5Q87 265 130.5 282.5Q174 300 230 300H366V328Q366 363 344.0 385.5Q322 408 274 408Q227 408 204.0 386.5Q181 365 174 331L58 370Q70 408 96.5 439.5Q123 471 167.5 490.5Q212 510 276 510Q374 510 431.0 461.0Q488 412 488 319V134Q488 104 516 104H556V0H472Q435 0 411.0 18.0Q387 36 387 66V67H368Q364 55 350.0 35.5Q336 16 306.0 1.0Q276 -14 224 -14ZM246 88Q299 88 332.5 117.5Q366 147 366 196V206H239Q204 206 184.0 191.0Q164 176 164 149Q164 122 185.0 105.0Q206 88 246 88Z"/><path transform="translate(1225.9,0)" d="M124 -200V-90H394Q422 -90 422 -60V65H404Q396 48 379.0 31.0Q362 14 333.0 3.0Q304 -8 259 -8Q201 -8 157.5 18.5Q114 45 90.0 92.0Q66 139 66 200V496H192V210Q192 154 219.5 126.0Q247 98 298 98Q356 98 388.0 136.5Q420 175 420 244V496H546V-88Q546 -139 516.0 -169.5Q486 -200 436 -200Z"/><path transform="translate(1833.8,0)" d="M306 -14Q232 -14 173.0 16.0Q114 46 80.0 103.0Q46 160 46 240V256Q46 336 80.0 393.0Q114 450 173.0 480.0Q232 510 306 510Q380 510 439.0 480.0Q498 450 532.0 393.0Q566 336 566 256V240Q566 160 532.0 103.0Q498 46 439.0 16.0Q380 -14 306 -14ZM306 98Q364 98 402.0 135.5Q440 173 440 243V253Q440 323 402.5 360.5Q365 398 306 398Q248 398 210.0 360.5Q172 323 172 253V243Q172 173 210.0 135.5Q248 98 306 98Z"/><path transform="translate(2437.7,0)" d="M70 0V496H194V431H212Q224 457 257.0 480.5Q290 504 357 504Q415 504 458.5 477.5Q502 451 526.0 404.5Q550 358 550 296V0H424V286Q424 342 396.5 370.0Q369 398 318 398Q260 398 228.0 359.5Q196 321 196 252V0Z"/><path transform="translate(3045.7,0)" d="M296 -14Q222 -14 165.5 17.5Q109 49 77.5 106.5Q46 164 46 242V254Q46 332 77.0 389.5Q108 447 164.0 478.5Q220 510 294 510Q367 510 421.0 477.5Q475 445 505.0 387.5Q535 330 535 254V211H174Q176 160 212.0 128.0Q248 96 300 96Q353 96 378.0 119.0Q403 142 416 170L519 116Q505 90 478.5 59.5Q452 29 408.0 7.5Q364 -14 296 -14ZM175 305H407Q403 348 372.5 374.0Q342 400 293 400Q242 400 212.0 374.0Q182 348 175 305Z"/><path transform="translate(3614.6,0)" d="M260 0Q211 0 180.5 30.5Q150 61 150 112V392H26V496H150V650H276V496H412V392H276V134Q276 104 304 104H400V0Z"/><path transform="translate(4062.5,0)" d="M306 -14Q232 -14 173.0 16.0Q114 46 80.0 103.0Q46 160 46 240V256Q46 336 80.0 393.0Q114 450 173.0 480.0Q232 510 306 510Q380 510 439.0 480.0Q498 450 532.0 393.0Q566 336 566 256V240Q566 160 532.0 103.0Q498 46 439.0 16.0Q380 -14 306 -14ZM306 98Q364 98 402.0 135.5Q440 173 440 243V253Q440 323 402.5 360.5Q365 398 306 398Q248 398 210.0 360.5Q172 323 172 253V243Q172 173 210.0 135.5Q248 98 306 98Z"/></g><g transform="translate(70.00,248.00) scale(0.01700,-0.01700)" fill="#9FB6DE"><path transform="translate(0.0,0)" d="M73 0V700H505V602H181V400H479V302H181V0Z"/><path transform="translate(548.8,0)" d="M76 0V493H179V0ZM128 560Q98 560 77.5 579.5Q57 599 57 630Q57 661 77.5 680.5Q98 700 128 700Q159 700 179.0 680.5Q199 661 199 630Q199 599 179.0 579.5Q159 560 128 560Z"/><path transform="translate(816.5,0)" d="M76 0V493H177V419H193Q207 449 243.0 475.0Q279 501 350 501Q406 501 449.5 476.0Q493 451 518.0 405.5Q543 360 543 296V0H440V288Q440 352 408.0 382.5Q376 413 320 413Q256 413 217.5 371.0Q179 329 179 249V0Z"/><path transform="translate(1443.3,0)" d="M240 0V602H25V700H563V602H348V0Z"/><path transform="translate(2043.1,0)" d="M302 -14Q227 -14 171.0 17.5Q115 49 83.5 106.5Q52 164 52 240V252Q52 329 83.0 386.5Q114 444 169.5 475.5Q225 507 298 507Q369 507 422.5 475.5Q476 444 506.0 388.0Q536 332 536 257V218H157Q159 153 200.5 114.5Q242 76 304 76Q362 76 391.5 102.0Q421 128 437 162L522 118Q508 90 481.5 59.0Q455 28 412.0 7.0Q369 -14 302 -14ZM158 297H431Q427 353 391.0 384.5Q355 416 297 416Q239 416 202.5 384.5Q166 353 158 297Z"/><path transform="translate(2638.8,0)" d="M305 -14Q234 -14 176.5 16.0Q119 46 85.5 103.0Q52 160 52 240V253Q52 333 85.5 389.5Q119 446 176.5 476.5Q234 507 305 507Q376 507 426.0 481.0Q476 455 506.5 412.0Q537 369 546 317L446 296Q441 329 425.0 356.0Q409 383 380.0 399.0Q351 415 307 415Q264 415 229.5 395.5Q195 376 175.0 339.5Q155 303 155 251V242Q155 190 175.0 153.0Q195 116 229.5 97.0Q264 78 307 78Q372 78 406.0 111.5Q440 145 449 197L549 174Q537 123 506.5 80.0Q476 37 426.0 11.5Q376 -14 305 -14Z"/><path transform="translate(3242.6,0)" d="M76 0V700H179V423H195Q205 442 223.5 460.0Q242 478 272.5 489.5Q303 501 350 501Q406 501 449.5 476.0Q493 451 518.0 405.5Q543 360 543 296V0H440V288Q440 352 408.0 382.5Q376 413 320 413Q256 413 217.5 371.0Q179 329 179 249V0Z"/><path transform="translate(4136.1,0)" d="M73 0V700H514V602H181V401H486V303H181V98H519V0Z"/><path transform="translate(4706.9,0)" d="M76 0V493H177V419H193Q207 449 243.0 475.0Q279 501 350 501Q406 501 449.5 476.0Q493 451 518.0 405.5Q543 360 543 296V0H440V288Q440 352 408.0 382.5Q376 413 320 413Q256 413 217.5 371.0Q179 329 179 249V0Z"/><path transform="translate(5333.6,0)" d="M52 244V259Q52 337 83.5 392.0Q115 447 167.0 477.0Q219 507 281 507Q353 507 391.5 480.0Q430 453 448 422H464V493H564V-101Q564 -146 537.5 -173.0Q511 -200 465 -200H133V-110H433Q462 -110 462 -80V77H446Q435 59 415.0 40.0Q395 21 362.5 9.0Q330 -3 281 -3Q219 -3 166.5 26.5Q114 56 83.0 111.5Q52 167 52 244ZM309 87Q376 87 419.5 129.5Q463 172 463 247V256Q463 333 420.0 374.5Q377 416 309 416Q243 416 199.5 374.5Q156 333 156 256V247Q156 172 199.5 129.5Q243 87 309 87Z"/><path transform="translate(5985.4,0)" d="M76 0V493H179V0ZM128 560Q98 560 77.5 579.5Q57 599 57 630Q57 661 77.5 680.5Q98 700 128 700Q159 700 179.0 680.5Q199 661 199 630Q199 599 179.0 579.5Q159 560 128 560Z"/><path transform="translate(6253.2,0)" d="M76 0V493H177V419H193Q207 449 243.0 475.0Q279 501 350 501Q406 501 449.5 476.0Q493 451 518.0 405.5Q543 360 543 296V0H440V288Q440 352 408.0 382.5Q376 413 320 413Q256 413 217.5 371.0Q179 329 179 249V0Z"/><path transform="translate(6879.9,0)" d="M302 -14Q227 -14 171.0 17.5Q115 49 83.5 106.5Q52 164 52 240V252Q52 329 83.0 386.5Q114 444 169.5 475.5Q225 507 298 507Q369 507 422.5 475.5Q476 444 506.0 388.0Q536 332 536 257V218H157Q159 153 200.5 114.5Q242 76 304 76Q362 76 391.5 102.0Q421 128 437 162L522 118Q508 90 481.5 59.0Q455 28 412.0 7.0Q369 -14 302 -14ZM158 297H431Q427 353 391.0 384.5Q355 416 297 416Q239 416 202.5 384.5Q166 353 158 297Z"/><path transform="translate(7475.7,0)" d="M302 -14Q227 -14 171.0 17.5Q115 49 83.5 106.5Q52 164 52 240V252Q52 329 83.0 386.5Q114 444 169.5 475.5Q225 507 298 507Q369 507 422.5 475.5Q476 444 506.0 388.0Q536 332 536 257V218H157Q159 153 200.5 114.5Q242 76 304 76Q362 76 391.5 102.0Q421 128 437 162L522 118Q508 90 481.5 59.0Q455 28 412.0 7.0Q369 -14 302 -14ZM158 297H431Q427 353 391.0 384.5Q355 416 297 416Q239 416 202.5 384.5Q166 353 158 297Z"/><path transform="translate(8071.5,0)" d="M76 0V493H177V435H193Q205 466 231.5 480.5Q258 495 297 495H356V402H293Q243 402 211.0 374.5Q179 347 179 290V0Z"/><path transform="translate(9003.8,0)" d="M101 205Q66 205 42.5 228.0Q19 251 19 287Q19 323 42.5 345.5Q66 368 101 368Q136 368 159.5 345.0Q183 322 183 287Q183 251 159.5 228.0Q136 205 101 205Z"/><path transform="translate(9752.1,0)" d="M73 0V700H351Q415 700 465.5 674.5Q516 649 544.5 602.5Q573 556 573 491V478Q573 413 543.5 366.0Q514 319 464.0 294.0Q414 269 351 269H181V0ZM181 367H340Q397 367 431.0 397.0Q465 427 465 479V489Q465 542 431.0 572.0Q397 602 340 602H181Z"/><path transform="translate(10366.8,0)" d="M229 -14Q176 -14 134.5 4.0Q93 22 68.5 57.0Q44 92 44 142Q44 193 68.5 226.5Q93 260 135.5 277.0Q178 294 232 294H382V326Q382 369 356.0 395.0Q330 421 276 421Q223 421 195.0 396.0Q167 371 158 331L62 362Q74 402 100.5 434.5Q127 467 171.0 487.0Q215 507 277 507Q373 507 428.0 458.0Q483 409 483 319V116Q483 86 511 86H553V0H476Q441 0 419.0 18.0Q397 36 397 67V70H382Q374 55 358.0 35.0Q342 15 311.0 0.5Q280 -14 229 -14ZM244 71Q306 71 344.0 106.5Q382 142 382 204V214H238Q197 214 172.0 196.5Q147 179 147 145Q147 111 173.0 91.0Q199 71 244 71Z"/><path transform="translate(10955.6,0)" d="M133 -200V-110H408Q436 -110 436 -80V72H420Q411 52 392.5 33.5Q374 15 343.0 3.0Q312 -9 265 -9Q209 -9 165.0 16.0Q121 41 96.0 87.0Q71 133 71 196V493H174V204Q174 140 206.0 109.5Q238 79 295 79Q358 79 396.5 121.0Q435 163 435 243V493H538V-101Q538 -146 511.5 -173.0Q485 -200 439 -200Z"/><path transform="translate(11581.4,0)" d="M76 0V493H177V435H193Q207 461 238.0 481.0Q269 501 322 501Q377 501 410.5 478.5Q444 456 461 421H477Q494 455 526.5 478.0Q559 501 619 501Q667 501 704.0 481.5Q741 462 763.0 423.5Q785 385 785 328V0H682V320Q682 365 657.5 389.5Q633 414 588 414Q540 414 511.0 383.0Q482 352 482 294V0H379V320Q379 365 354.5 389.5Q330 414 285 414Q237 414 208.0 383.0Q179 352 179 294V0Z"/><path transform="translate(12450.1,0)" d="M302 -14Q227 -14 171.0 17.5Q115 49 83.5 106.5Q52 164 52 240V252Q52 329 83.0 386.5Q114 444 169.5 475.5Q225 507 298 507Q369 507 422.5 475.5Q476 444 506.0 388.0Q536 332 536 257V218H157Q159 153 200.5 114.5Q242 76 304 76Q362 76 391.5 102.0Q421 128 437 162L522 118Q508 90 481.5 59.0Q455 28 412.0 7.0Q369 -14 302 -14ZM158 297H431Q427 353 391.0 384.5Q355 416 297 416Q239 416 202.5 384.5Q166 353 158 297Z"/><path transform="translate(13045.9,0)" d="M76 0V493H177V419H193Q207 449 243.0 475.0Q279 501 350 501Q406 501 449.5 476.0Q493 451 518.0 405.5Q543 360 543 296V0H440V288Q440 352 408.0 382.5Q376 413 320 413Q256 413 217.5 371.0Q179 329 179 249V0Z"/><path transform="translate(13672.6,0)" d="M261 0Q216 0 189.5 27.0Q163 54 163 99V406H27V493H163V656H266V493H413V406H266V117Q266 87 294 87H397V0Z"/><path transform="translate(14142.4,0)" d="M278 -14Q184 -14 122.0 28.0Q60 70 46 155L142 178Q150 137 169.0 113.0Q188 89 216.5 79.0Q245 69 278 69Q327 69 353.5 88.0Q380 107 380 137Q380 167 355.0 181.0Q330 195 281 204L247 210Q197 219 156.0 236.0Q115 253 91.0 283.0Q67 313 67 360Q67 430 119.0 468.5Q171 507 257 507Q340 507 393.5 469.5Q447 432 463 368L367 341Q358 386 329.0 404.5Q300 423 257 423Q215 423 191.0 407.5Q167 392 167 364Q167 334 190.5 320.0Q214 306 254 299L289 293Q342 284 386.0 268.0Q430 252 455.5 222.0Q481 192 481 142Q481 68 426.0 27.0Q371 -14 278 -14Z"/><path transform="translate(14679.2,0)" d="M77 -136V-77H111Q152 -77 152 -36V-4H137Q102 -4 79.0 17.0Q56 38 56 70Q56 105 79.0 126.5Q102 148 137 148Q172 148 194.5 125.5Q217 103 217 67V-37Q217 -136 118 -136Z"/><path transform="translate(15230.7,0)" d="M47 0V96H141V604H47V700H327Q467 700 541.5 629.0Q616 558 616 415V284Q616 141 541.5 70.5Q467 0 327 0ZM250 98H328Q419 98 463.0 144.0Q507 190 507 281V419Q507 511 463.0 556.0Q419 601 328 601H250Z"/><path transform="translate(15907.5,0)" d="M76 0V493H179V0ZM128 560Q98 560 77.5 579.5Q57 599 57 630Q57 661 77.5 680.5Q98 700 128 700Q159 700 179.0 680.5Q199 661 199 630Q199 599 179.0 579.5Q159 560 128 560Z"/><path transform="translate(16175.2,0)" d="M278 -14Q184 -14 122.0 28.0Q60 70 46 155L142 178Q150 137 169.0 113.0Q188 89 216.5 79.0Q245 69 278 69Q327 69 353.5 88.0Q380 107 380 137Q380 167 355.0 181.0Q330 195 281 204L247 210Q197 219 156.0 236.0Q115 253 91.0 283.0Q67 313 67 360Q67 430 119.0 468.5Q171 507 257 507Q340 507 393.5 469.5Q447 432 463 368L367 341Q358 386 329.0 404.5Q300 423 257 423Q215 423 191.0 407.5Q167 392 167 364Q167 334 190.5 320.0Q214 306 254 299L289 293Q342 284 386.0 268.0Q430 252 455.5 222.0Q481 192 481 142Q481 68 426.0 27.0Q371 -14 278 -14Z"/><path transform="translate(16712.0,0)" d="M361 -14Q289 -14 250.5 12.0Q212 38 193 70H177V0H76V700H179V426H195Q207 446 227.0 464.5Q247 483 280.0 495.0Q313 507 361 507Q423 507 475.0 477.0Q527 447 558.0 390.0Q589 333 589 254V239Q589 159 557.5 102.5Q526 46 474.5 16.0Q423 -14 361 -14ZM331 76Q398 76 441.5 119.0Q485 162 485 242V251Q485 330 442.0 373.0Q399 416 331 416Q265 416 221.5 373.0Q178 330 178 251V242Q178 162 221.5 119.0Q265 76 331 76Z"/><path transform="translate(17364.8,0)" d="M265 -9Q209 -9 165.0 16.0Q121 41 96.0 87.0Q71 133 71 197V493H174V204Q174 140 206.0 109.5Q238 79 295 79Q358 79 396.5 121.5Q435 164 435 244V493H538V0H437V74H421Q407 44 371.0 17.5Q335 -9 265 -9Z"/><path transform="translate(17990.5,0)" d="M76 0V493H177V435H193Q205 466 231.5 480.5Q258 495 297 495H356V402H293Q243 402 211.0 374.5Q179 347 179 290V0Z"/><path transform="translate(18389.3,0)" d="M278 -14Q184 -14 122.0 28.0Q60 70 46 155L142 178Q150 137 169.0 113.0Q188 89 216.5 79.0Q245 69 278 69Q327 69 353.5 88.0Q380 107 380 137Q380 167 355.0 181.0Q330 195 281 204L247 210Q197 219 156.0 236.0Q115 253 91.0 283.0Q67 313 67 360Q67 430 119.0 468.5Q171 507 257 507Q340 507 393.5 469.5Q447 432 463 368L367 341Q358 386 329.0 404.5Q300 423 257 423Q215 423 191.0 407.5Q167 392 167 364Q167 334 190.5 320.0Q214 306 254 299L289 293Q342 284 386.0 268.0Q430 252 455.5 222.0Q481 192 481 142Q481 68 426.0 27.0Q371 -14 278 -14Z"/><path transform="translate(18926.1,0)" d="M302 -14Q227 -14 171.0 17.5Q115 49 83.5 106.5Q52 164 52 240V252Q52 329 83.0 386.5Q114 444 169.5 475.5Q225 507 298 507Q369 507 422.5 475.5Q476 444 506.0 388.0Q536 332 536 257V218H157Q159 153 200.5 114.5Q242 76 304 76Q362 76 391.5 102.0Q421 128 437 162L522 118Q508 90 481.5 59.0Q455 28 412.0 7.0Q369 -14 302 -14ZM158 297H431Q427 353 391.0 384.5Q355 416 297 416Q239 416 202.5 384.5Q166 353 158 297Z"/><path transform="translate(19521.8,0)" d="M76 0V493H177V435H193Q207 461 238.0 481.0Q269 501 322 501Q377 501 410.5 478.5Q444 456 461 421H477Q494 455 526.5 478.0Q559 501 619 501Q667 501 704.0 481.5Q741 462 763.0 423.5Q785 385 785 328V0H682V320Q682 365 657.5 389.5Q633 414 588 414Q540 414 511.0 383.0Q482 352 482 294V0H379V320Q379 365 354.5 389.5Q330 414 285 414Q237 414 208.0 383.0Q179 352 179 294V0Z"/><path transform="translate(20390.6,0)" d="M302 -14Q227 -14 171.0 17.5Q115 49 83.5 106.5Q52 164 52 240V252Q52 329 83.0 386.5Q114 444 169.5 475.5Q225 507 298 507Q369 507 422.5 475.5Q476 444 506.0 388.0Q536 332 536 257V218H157Q159 153 200.5 114.5Q242 76 304 76Q362 76 391.5 102.0Q421 128 437 162L522 118Q508 90 481.5 59.0Q455 28 412.0 7.0Q369 -14 302 -14ZM158 297H431Q427 353 391.0 384.5Q355 416 297 416Q239 416 202.5 384.5Q166 353 158 297Z"/><path transform="translate(20986.4,0)" d="M76 0V493H177V419H193Q207 449 243.0 475.0Q279 501 350 501Q406 501 449.5 476.0Q493 451 518.0 405.5Q543 360 543 296V0H440V288Q440 352 408.0 382.5Q376 413 320 413Q256 413 217.5 371.0Q179 329 179 249V0Z"/><path transform="translate(21613.1,0)" d="M261 0Q216 0 189.5 27.0Q163 54 163 99V406H27V493H163V656H266V493H413V406H266V117Q266 87 294 87H397V0Z"/><path transform="translate(22349.6,0)" d="M242 0Q182 0 135.5 22.0Q89 44 62.5 86.0Q36 128 36 187Q36 231 52.0 263.0Q68 295 95.5 316.5Q123 338 155 348V361Q107 376 74.0 413.0Q41 450 41 513Q41 574 68.5 615.5Q96 657 142.0 678.5Q188 700 246 700H364V613H263Q213 613 179.0 586.5Q145 560 145 505Q145 467 161.5 443.5Q178 420 204.5 408.5Q231 397 263 397H380V496H483V397H578V310H483V0ZM259 87H380V310H259Q209 310 174.0 282.5Q139 255 139 198Q139 141 175.0 114.0Q211 87 259 87Z"/><path transform="translate(23226.2,0)" d="M333 -14Q205 -14 130.0 58.5Q55 131 55 268V432Q55 569 130.0 641.5Q205 714 333 714Q459 714 527.5 644.0Q596 574 596 453V447H489V456Q489 527 450.5 572.0Q412 617 333 617Q253 617 208.0 568.5Q163 520 163 434V266Q163 181 208.0 132.0Q253 83 333 83Q412 83 450.5 128.5Q489 174 489 244V261H596V247Q596 126 527.5 56.0Q459 -14 333 -14Z"/><path transform="translate(23880.9,0)" d="M76 0V700H179V0Z"/><path transform="translate(24148.7,0)" d="M307 -14Q233 -14 175.5 16.5Q118 47 85.0 104.0Q52 161 52 239V254Q52 332 85.0 388.5Q118 445 175.5 476.0Q233 507 307 507Q381 507 439.0 476.0Q497 445 530.0 388.5Q563 332 563 254V239Q563 161 530.0 104.0Q497 47 439.0 16.5Q381 -14 307 -14ZM307 78Q375 78 417.5 121.5Q460 165 460 242V251Q460 328 418.0 371.5Q376 415 307 415Q240 415 197.5 371.5Q155 328 155 251V242Q155 165 197.5 121.5Q240 78 307 78Z"/><path transform="translate(24775.5,0)" d="M265 -9Q209 -9 165.0 16.0Q121 41 96.0 87.0Q71 133 71 197V493H174V204Q174 140 206.0 109.5Q238 79 295 79Q358 79 396.5 121.5Q435 164 435 244V493H538V0H437V74H421Q407 44 371.0 17.5Q335 -9 265 -9Z"/><path transform="translate(25401.2,0)" d="M280 -14Q219 -14 167.0 16.0Q115 46 83.5 102.5Q52 159 52 239V254Q52 333 83.0 390.0Q114 447 166.0 477.0Q218 507 280 507Q328 507 360.5 495.0Q393 483 414.0 464.5Q435 446 446 426H462V700H565V0H464V70H448Q429 38 390.5 12.0Q352 -14 280 -14ZM309 76Q376 76 419.5 119.0Q463 162 463 242V251Q463 330 420.0 373.0Q377 416 309 416Q243 416 199.5 373.0Q156 330 156 251V242Q156 162 199.5 119.0Q243 76 309 76Z"/><path transform="translate(26054.0,0)" d="M74 209V303H370V209Z"/><path transform="translate(26508.8,0)" d="M73 0V700H281L471 72H487V700H594V0H386L196 629H180V0Z"/><path transform="translate(27187.5,0)" d="M229 -14Q176 -14 134.5 4.0Q93 22 68.5 57.0Q44 92 44 142Q44 193 68.5 226.5Q93 260 135.5 277.0Q178 294 232 294H382V326Q382 369 356.0 395.0Q330 421 276 421Q223 421 195.0 396.0Q167 371 158 331L62 362Q74 402 100.5 434.5Q127 467 171.0 487.0Q215 507 277 507Q373 507 428.0 458.0Q483 409 483 319V116Q483 86 511 86H553V0H476Q441 0 419.0 18.0Q397 36 397 67V70H382Q374 55 358.0 35.0Q342 15 311.0 0.5Q280 -14 229 -14ZM244 71Q306 71 344.0 106.5Q382 142 382 204V214H238Q197 214 172.0 196.5Q147 179 147 145Q147 111 173.0 91.0Q199 71 244 71Z"/><path transform="translate(27776.3,0)" d="M261 0Q216 0 189.5 27.0Q163 54 163 99V406H27V493H163V656H266V493H413V406H266V117Q266 87 294 87H397V0Z"/><path transform="translate(28246.1,0)" d="M76 0V493H179V0ZM128 560Q98 560 77.5 579.5Q57 599 57 630Q57 661 77.5 680.5Q98 700 128 700Q159 700 179.0 680.5Q199 661 199 630Q199 599 179.0 579.5Q159 560 128 560Z"/><path transform="translate(28513.8,0)" d="M190 0 24 493H133L264 76H280L411 493H520L354 0Z"/><path transform="translate(29069.6,0)" d="M302 -14Q227 -14 171.0 17.5Q115 49 83.5 106.5Q52 164 52 240V252Q52 329 83.0 386.5Q114 444 169.5 475.5Q225 507 298 507Q369 507 422.5 475.5Q476 444 506.0 388.0Q536 332 536 257V218H157Q159 153 200.5 114.5Q242 76 304 76Q362 76 391.5 102.0Q421 128 437 162L522 118Q508 90 481.5 59.0Q455 28 412.0 7.0Q369 -14 302 -14ZM158 297H431Q427 353 391.0 384.5Q355 416 297 416Q239 416 202.5 384.5Q166 353 158 297Z"/><path transform="translate(29932.1,0)" d="M47 0V96H141V604H47V700H402Q465 700 512.0 678.5Q559 657 585.5 617.5Q612 578 612 524V514Q612 466 594.0 435.0Q576 404 550.5 387.0Q525 370 502 363V347Q525 341 551.5 323.5Q578 306 596.5 275.0Q615 244 615 194V184Q615 126 588.0 85.0Q561 44 513.5 22.0Q466 0 404 0ZM250 98H391Q445 98 476.0 124.0Q507 150 507 196V205Q507 251 476.5 277.0Q446 303 391 303H250ZM250 402H391Q442 402 473.0 427.5Q504 453 504 497V507Q504 551 473.5 576.5Q443 602 391 602H250Z"/><path transform="translate(30606.9,0)" d="M229 -14Q176 -14 134.5 4.0Q93 22 68.5 57.0Q44 92 44 142Q44 193 68.5 226.5Q93 260 135.5 277.0Q178 294 232 294H382V326Q382 369 356.0 395.0Q330 421 276 421Q223 421 195.0 396.0Q167 371 158 331L62 362Q74 402 100.5 434.5Q127 467 171.0 487.0Q215 507 277 507Q373 507 428.0 458.0Q483 409 483 319V116Q483 86 511 86H553V0H476Q441 0 419.0 18.0Q397 36 397 67V70H382Q374 55 358.0 35.0Q342 15 311.0 0.5Q280 -14 229 -14ZM244 71Q306 71 344.0 106.5Q382 142 382 204V214H238Q197 214 172.0 196.5Q147 179 147 145Q147 111 173.0 91.0Q199 71 244 71Z"/><path transform="translate(31195.6,0)" d="M305 -14Q234 -14 176.5 16.0Q119 46 85.5 103.0Q52 160 52 240V253Q52 333 85.5 389.5Q119 446 176.5 476.5Q234 507 305 507Q376 507 426.0 481.0Q476 455 506.5 412.0Q537 369 546 317L446 296Q441 329 425.0 356.0Q409 383 380.0 399.0Q351 415 307 415Q264 415 229.5 395.5Q195 376 175.0 339.5Q155 303 155 251V242Q155 190 175.0 153.0Q195 116 229.5 97.0Q264 78 307 78Q372 78 406.0 111.5Q440 145 449 197L549 174Q537 123 506.5 80.0Q476 37 426.0 11.5Q376 -14 305 -14Z"/><path transform="translate(31799.4,0)" d="M76 0V700H179V301H195L389 493H526L277 254L534 0H398L195 205H179V0Z"/><path transform="translate(32362.2,0)" d="M302 -14Q227 -14 171.0 17.5Q115 49 83.5 106.5Q52 164 52 240V252Q52 329 83.0 386.5Q114 444 169.5 475.5Q225 507 298 507Q369 507 422.5 475.5Q476 444 506.0 388.0Q536 332 536 257V218H157Q159 153 200.5 114.5Q242 76 304 76Q362 76 391.5 102.0Q421 128 437 162L522 118Q508 90 481.5 59.0Q455 28 412.0 7.0Q369 -14 302 -14ZM158 297H431Q427 353 391.0 384.5Q355 416 297 416Q239 416 202.5 384.5Q166 353 158 297Z"/><path transform="translate(32957.9,0)" d="M76 0V493H177V419H193Q207 449 243.0 475.0Q279 501 350 501Q406 501 449.5 476.0Q493 451 518.0 405.5Q543 360 543 296V0H440V288Q440 352 408.0 382.5Q376 413 320 413Q256 413 217.5 371.0Q179 329 179 249V0Z"/><path transform="translate(33584.7,0)" d="M280 -14Q219 -14 167.0 16.0Q115 46 83.5 102.5Q52 159 52 239V254Q52 333 83.0 390.0Q114 447 166.0 477.0Q218 507 280 507Q328 507 360.5 495.0Q393 483 414.0 464.5Q435 446 446 426H462V700H565V0H464V70H448Q429 38 390.5 12.0Q352 -14 280 -14ZM309 76Q376 76 419.5 119.0Q463 162 463 242V251Q463 330 420.0 373.0Q377 416 309 416Q243 416 199.5 373.0Q156 330 156 251V242Q156 162 199.5 119.0Q243 76 309 76Z"/></g><g transform="translate(70.00,276.00) scale(0.01250,-0.01250)" fill="#6E86B8"><path transform="translate(0.0,0)" d="M493 698V187Q493 142 477.5 105.0Q462 68 433.5 42.0Q405 16 365.0 2.0Q325 -12 276 -12Q184 -12 129.5 34.0Q75 80 59 161L165 183Q174 140 199.0 111.0Q224 82 277 82Q326 82 353.5 111.5Q381 141 381 202V604H138V698Z"/><path transform="translate(728.0,0)" d="M462 0 409 186H187L134 0H20L224 698H377L581 0ZM302 585H294L208 279H388Z"/><path transform="translate(1456.0,0)" d="M222 0 25 698H146L238 346L299 109H305L366 346L459 698H575L378 0Z"/><path transform="translate(2184.0,0)" d="M462 0 409 186H187L134 0H20L224 698H377L581 0ZM302 585H294L208 279H388Z"/><path transform="translate(3640.0,0)" d="M88 0V93H284V616H276L114 443L45 505L223 698H396V93H565V0Z"/><path transform="translate(4368.0,0)" d="M169 0 428 605H156V476H59V698H540V600L288 0Z"/></g><circle cx="139.7" cy="272" r="1.7" fill="#34D399" opacity="0.85"/><g transform="translate(157.70,276.00) scale(0.01250,-0.01250)" fill="#6E86B8"><path transform="translate(0.0,0)" d="M274 321 190 216V0H78V698H190V364H195L280 480L451 698H580L350 404L589 0H461Z"/><path transform="translate(728.0,0)" d="M300 -12Q234 -12 185.5 12.5Q137 37 105.5 83.0Q74 129 59.0 196.0Q44 263 44 349Q44 434 59.0 501.5Q74 569 105.5 615.0Q137 661 185.5 685.5Q234 710 300 710Q366 710 414.5 685.5Q463 661 494.5 615.0Q526 569 541.0 501.5Q556 434 556 349Q556 263 541.0 196.0Q526 129 494.5 83.0Q463 37 414.5 12.5Q366 -12 300 -12ZM300 81Q375 81 406.0 137.5Q437 194 437 291V408Q437 504 406.0 560.5Q375 617 300 617Q225 617 194.0 560.5Q163 504 163 408V290Q163 194 194.0 137.5Q225 81 300 81Z"/><path transform="translate(1456.0,0)" d="M356 604V0H244V604H25V698H575V604Z"/><path transform="translate(2184.0,0)" d="M108 0V698H220V94H538V0Z"/><path transform="translate(2912.0,0)" d="M80 0V85H244V613H80V698H520V613H356V85H520V0Z"/><path transform="translate(3640.0,0)" d="M179 537H170V0H72V698H216L421 161H430V698H528V0H384Z"/></g><circle cx="218.3" cy="272" r="1.7" fill="#34D399" opacity="0.85"/><g transform="translate(236.30,276.00) scale(0.01250,-0.01250)" fill="#6E86B8"><path transform="translate(0.0,0)" d="M506 -175H378Q310 -175 280.0 -139.5Q250 -104 250 -46V-8Q197 1 158.0 29.0Q119 57 93.5 102.5Q68 148 56.0 210.0Q44 272 44 349Q44 434 59.0 501.5Q74 569 105.5 615.0Q137 661 185.5 685.5Q234 710 300 710Q366 710 414.5 685.5Q463 661 494.5 615.0Q526 569 541.0 501.5Q556 434 556 349Q556 195 506.0 102.0Q456 9 350 -8V-91H506ZM300 81Q375 81 406.0 137.5Q437 194 437 291V408Q437 504 406.0 560.5Q375 617 300 617Q225 617 194.0 560.5Q163 504 163 408V290Q163 194 194.0 137.5Q225 81 300 81Z"/><path transform="translate(728.0,0)" d="M181 698V269Q181 226 183.5 191.0Q186 156 198.0 131.5Q210 107 234.0 94.0Q258 81 300 81Q342 81 366.0 94.0Q390 107 402.0 131.5Q414 156 416.5 191.0Q419 226 419 269V698H531V289Q531 214 522.5 157.5Q514 101 489.0 63.5Q464 26 418.5 7.0Q373 -12 300 -12Q227 -12 181.5 7.0Q136 26 111.0 63.5Q86 101 77.5 157.5Q69 214 69 289V698Z"/><path transform="translate(1456.0,0)" d="M462 0 409 186H187L134 0H20L224 698H377L581 0ZM302 585H294L208 279H388Z"/><path transform="translate(2184.0,0)" d="M195 0H84V698H345Q445 698 497.5 642.0Q550 586 550 488Q550 408 511.0 356.0Q472 304 399 292L560 0H436L288 282H195ZM329 372Q433 372 433 467V510Q433 605 329 605H195V372Z"/><path transform="translate(2912.0,0)" d="M274 321 190 216V0H78V698H190V364H195L280 480L451 698H580L350 404L589 0H461Z"/><path transform="translate(3640.0,0)" d="M181 698V269Q181 226 183.5 191.0Q186 156 198.0 131.5Q210 107 234.0 94.0Q258 81 300 81Q342 81 366.0 94.0Q390 107 402.0 131.5Q414 156 416.5 191.0Q419 226 419 269V698H531V289Q531 214 522.5 157.5Q514 101 489.0 63.5Q464 26 418.5 7.0Q373 -12 300 -12Q227 -12 181.5 7.0Q136 26 111.0 63.5Q86 101 77.5 157.5Q69 214 69 289V698Z"/><path transform="translate(4368.0,0)" d="M294 -12Q203 -12 141.0 20.0Q79 52 39 105L111 174Q151 126 196.0 103.5Q241 81 298 81Q364 81 399.5 111.0Q435 141 435 197Q435 242 409.0 266.5Q383 291 320 302L244 314Q194 322 160.0 340.5Q126 359 105.0 384.5Q84 410 74.5 441.5Q65 473 65 508Q65 607 129.0 658.5Q193 710 305 710Q388 710 446.5 683.5Q505 657 541 609L471 539Q442 574 402.5 595.5Q363 617 305 617Q243 617 210.5 590.5Q178 564 178 513Q178 470 203.5 445.5Q229 421 294 410L368 397Q462 380 505.0 328.5Q548 277 548 203Q548 155 531.5 115.0Q515 75 482.5 47.0Q450 19 402.5 3.5Q355 -12 294 -12Z"/></g><circle cx="306.0" cy="272" r="1.7" fill="#34D399" opacity="0.85"/><g transform="translate(324.00,276.00) scale(0.01250,-0.01250)" fill="#6E86B8"><path transform="translate(0.0,0)" d="M430 96H423Q414 75 401.5 55.5Q389 36 370.5 21.0Q352 6 326.0 -3.0Q300 -12 266 -12Q157 -12 102.0 81.0Q47 174 47 344Q47 522 110.0 616.0Q173 710 303 710Q354 710 392.5 696.0Q431 682 458.0 658.5Q485 635 503.0 603.5Q521 572 532 537L431 503Q423 526 413.0 546.5Q403 567 388.5 583.0Q374 599 353.5 608.0Q333 617 304 617Q231 617 198.5 560.5Q166 504 166 408V297Q166 249 173.0 209.0Q180 169 196.5 140.5Q213 112 239.5 96.0Q266 80 304 80Q365 80 397.5 116.5Q430 153 430 210V273H295V357H532V0H430Z"/><path transform="translate(728.0,0)" d="M320 -12Q187 -12 122.5 82.0Q58 176 58 349Q58 522 122.5 616.0Q187 710 320 710Q371 710 408.5 696.5Q446 683 473.0 659.5Q500 636 518.5 604.5Q537 573 549 537L448 503Q440 527 430.0 548.0Q420 569 405.0 584.0Q390 599 369.5 608.0Q349 617 319 617Q245 617 211.0 560.5Q177 504 177 408V290Q177 194 211.0 137.5Q245 81 319 81Q349 81 369.5 90.0Q390 99 405.0 114.0Q420 129 430.0 150.0Q440 171 448 195L549 161Q537 125 518.5 93.5Q500 62 473.0 38.5Q446 15 408.5 1.5Q371 -12 320 -12Z"/><path transform="translate(1456.0,0)" d="M84 0V698H345Q445 698 497.5 642.0Q550 586 550 488Q550 390 497.5 334.0Q445 278 345 278H196V0ZM196 371H328Q432 371 432 467V510Q432 605 328 605H196Z"/></g><circle cx="357.3" cy="272" r="1.7" fill="#34D399" opacity="0.85"/><g transform="translate(375.30,276.00) scale(0.01250,-0.01250)" fill="#6E86B8"><path transform="translate(0.0,0)" d="M274 321 190 216V0H78V698H190V364H195L280 480L451 698H580L350 404L589 0H461Z"/><path transform="translate(728.0,0)" d="M181 698V269Q181 226 183.5 191.0Q186 156 198.0 131.5Q210 107 234.0 94.0Q258 81 300 81Q342 81 366.0 94.0Q390 107 402.0 131.5Q414 156 416.5 191.0Q419 226 419 269V698H531V289Q531 214 522.5 157.5Q514 101 489.0 63.5Q464 26 418.5 7.0Q373 -12 300 -12Q227 -12 181.5 7.0Q136 26 111.0 63.5Q86 101 77.5 157.5Q69 214 69 289V698Z"/><path transform="translate(1456.0,0)" d="M83 698H324Q419 698 471.5 649.0Q524 600 524 515Q524 454 494.0 418.0Q464 382 413 367V362Q474 348 511.0 308.5Q548 269 548 197Q548 154 534.0 118.0Q520 82 494.0 55.5Q468 29 431.5 14.5Q395 0 351 0H83ZM317 86Q373 86 403.0 109.0Q433 132 433 183V219Q433 270 403.0 293.0Q373 316 317 316H193V86ZM301 398Q354 398 381.5 418.5Q409 439 409 487V523Q409 571 381.5 591.5Q354 612 301 612H193V398Z"/><path transform="translate(2184.0,0)" d="M86 0V698H523V604H198V401H511V307H198V94H523V0Z"/><path transform="translate(2912.0,0)" d="M195 0H84V698H345Q445 698 497.5 642.0Q550 586 550 488Q550 408 511.0 356.0Q472 304 399 292L560 0H436L288 282H195ZM329 372Q433 372 433 467V510Q433 605 329 605H195V372Z"/><path transform="translate(3640.0,0)" d="M179 537H170V0H72V698H216L421 161H430V698H528V0H384Z"/><path transform="translate(4368.0,0)" d="M86 0V698H523V604H198V401H511V307H198V94H523V0Z"/><path transform="translate(5096.0,0)" d="M356 604V0H244V604H25V698H575V604Z"/><path transform="translate(5824.0,0)" d="M86 0V698H523V604H198V401H511V307H198V94H523V0Z"/><path transform="translate(6552.0,0)" d="M294 -12Q203 -12 141.0 20.0Q79 52 39 105L111 174Q151 126 196.0 103.5Q241 81 298 81Q364 81 399.5 111.0Q435 141 435 197Q435 242 409.0 266.5Q383 291 320 302L244 314Q194 322 160.0 340.5Q126 359 105.0 384.5Q84 410 74.5 441.5Q65 473 65 508Q65 607 129.0 658.5Q193 710 305 710Q388 710 446.5 683.5Q505 657 541 609L471 539Q442 574 402.5 595.5Q363 617 305 617Q243 617 210.5 590.5Q178 564 178 513Q178 470 203.5 445.5Q229 421 294 410L368 397Q462 380 505.0 328.5Q548 277 548 203Q548 155 531.5 115.0Q515 75 482.5 47.0Q450 19 402.5 3.5Q355 -12 294 -12Z"/></g><line x1="852" y1="92" x2="992" y2="116" stroke="#2C3E63" stroke-width="1.4"/><line x1="876" y1="168" x2="992" y2="116" stroke="#2C3E63" stroke-width="1.4"/><line x1="876" y1="168" x2="1008" y2="206" stroke="#2C3E63" stroke-width="1.4"/><line x1="906" y1="240" x2="1008" y2="206" stroke="#2C3E63" stroke-width="1.4"/><line x1="992" y1="116" x2="1104" y2="150" stroke="#2C3E63" stroke-width="1.4"/><line x1="1008" y1="206" x2="1104" y2="150" stroke="#2C3E63" stroke-width="1.4"/><polyline class="fx-dash" points="876,168 992,116 1104,150" fill="none" stroke="url(#rail)" stroke-width="2.4" stroke-linecap="round" stroke-linejoin="round" stroke-dasharray="10 8"/><circle cx="852" cy="92" r="4.6" fill="#0E1730" stroke="#3C5488" stroke-width="1.8"/><circle cx="876" cy="168" r="4.6" fill="#0E1730" stroke="#38BDF8" stroke-width="1.8"/><circle cx="906" cy="240" r="4.6" fill="#0E1730" stroke="#3C5488" stroke-width="1.8"/><circle cx="992" cy="116" r="4.6" fill="#0E1730" stroke="#38BDF8" stroke-width="1.8"/><circle cx="1008" cy="206" r="4.6" fill="#0E1730" stroke="#3C5488" stroke-width="1.8"/><circle cx="1104" cy="150" r="26" fill="url(#glowNode)" filter="url(#soft)"/><circle class="fx-ring" cx="1104" cy="150" r="10" fill="none" stroke="#34D399" stroke-width="1.4" opacity="0.6"/><circle cx="1104" cy="150" r="7.5" fill="#34D399"/><circle cx="1104" cy="150" r="3.2" fill="#04120C"/><g transform="translate(1079.00,184.00) scale(0.00950,-0.00950)" fill="#3FBE8C"><path transform="translate(0.0,0)" d="M294 -12Q203 -12 141.0 20.0Q79 52 39 105L111 174Q151 126 196.0 103.5Q241 81 298 81Q364 81 399.5 111.0Q435 141 435 197Q435 242 409.0 266.5Q383 291 320 302L244 314Q194 322 160.0 340.5Q126 359 105.0 384.5Q84 410 74.5 441.5Q65 473 65 508Q65 607 129.0 658.5Q193 710 305 710Q388 710 446.5 683.5Q505 657 541 609L471 539Q442 574 402.5 595.5Q363 617 305 617Q243 617 210.5 590.5Q178 564 178 513Q178 470 203.5 445.5Q229 421 294 410L368 397Q462 380 505.0 328.5Q548 277 548 203Q548 155 531.5 115.0Q515 75 482.5 47.0Q450 19 402.5 3.5Q355 -12 294 -12Z"/><path transform="translate(852.6,0)" d="M86 0V698H523V604H198V401H511V307H198V94H523V0Z"/><path transform="translate(1705.3,0)" d="M356 604V0H244V604H25V698H575V604Z"/><path transform="translate(2557.9,0)" d="M356 604V0H244V604H25V698H575V604Z"/><path transform="translate(3410.5,0)" d="M108 0V698H220V94H538V0Z"/><path transform="translate(4263.2,0)" d="M86 0V698H523V604H198V401H511V307H198V94H523V0Z"/><path transform="translate(5115.8,0)" d="M82 698H290Q424 698 488.5 609.0Q553 520 553 349Q553 178 488.5 89.0Q424 0 290 0H82ZM283 92Q360 92 397.5 143.5Q435 195 435 291V407Q435 503 397.5 554.5Q360 606 283 606H193V92Z"/></g><g class="fx-flow"><circle r="7" fill="#34D399" opacity="0.5"/><circle r="3.2" fill="#EAFBF3"/></g></g></svg>
