<svg xmlns="http://www.w3.org/2000/svg" viewBox="0 0 560 353" width="560" height="353" role="img" aria-label="John Paul Bayoneto engineer card"><defs>
  <linearGradient id="card" x1="0" y1="0" x2="1" y2="1">
    <stop offset="0" stop-color="#0E1A33"/>
    <stop offset="0.5" stop-color="#0B1120"/>
    <stop offset="1" stop-color="#0A0E1A"/>
  </linearGradient>
  <linearGradient id="sheen" x1="0" y1="0" x2="1" y2="1">
    <stop offset="0" stop-color="#ffffff" stop-opacity="0.10"/>
    <stop offset="0.45" stop-color="#ffffff" stop-opacity="0"/>
  </linearGradient>
  <linearGradient id="chip" x1="0" y1="0" x2="1" y2="1">
    <stop offset="0" stop-color="#F5D98B"/><stop offset="0.5" stop-color="#D9B24B"/>
    <stop offset="1" stop-color="#B8912F"/>
  </linearGradient>
  <linearGradient id="emboss" x1="0" y1="0" x2="1" y2="0">
    <stop offset="0" stop-color="#EAF1FF"/><stop offset="1" stop-color="#AFC6F2"/>
  </linearGradient>
  <linearGradient id="cnum" x1="0" y1="0" x2="1" y2="0">
    <stop offset="0" stop-color="#7FB4FF"/><stop offset="0.6" stop-color="#5B93F0"/>
    <stop offset="1" stop-color="#34D399"/>
  </linearGradient>
  <radialGradient id="mark" cx="0.5" cy="0.5" r="0.5">
    <stop offset="0" stop-color="#34D399" stop-opacity="0.55"/><stop offset="1" stop-color="#34D399" stop-opacity="0"/>
  </radialGradient>
  <filter id="soft" x="-60%" y="-60%" width="220%" height="220%"><feGaussianBlur stdDeviation="4"/></filter>
  <pattern id="dot" width="20" height="20" patternUnits="userSpaceOnUse">
    <circle cx="1" cy="1" r="1" fill="#5B7BB0" opacity="0.08"/>
  </pattern>
</defs><rect width="560" height="353" rx="24" fill="url(#card)"/><rect width="560" height="353" rx="24" fill="url(#dot)"/><rect width="560" height="353" rx="24" fill="url(#sheen)"/><rect x="1" y="1" width="558" height="351" rx="23" fill="none" stroke="#2A3B60" stroke-width="1.5"/><rect x="0" y="0" width="560" height="3" rx="1.5" fill="url(#cnum)" opacity="0.55"/><g transform="translate(40.00,52.00) scale(0.01250,-0.01250)" fill="#6E88BE"><path transform="translate(0.0,0)" d="M294 -12Q203 -12 141.0 20.0Q79 52 39 105L111 174Q151 126 196.0 103.5Q241 81 298 81Q364 81 399.5 111.0Q435 141 435 197Q435 242 409.0 266.5Q383 291 320 302L244 314Q194 322 160.0 340.5Q126 359 105.0 384.5Q84 410 74.5 441.5Q65 473 65 508Q65 607 129.0 658.5Q193 710 305 710Q388 710 446.5 683.5Q505 657 541 609L471 539Q442 574 402.5 595.5Q363 617 305 617Q243 617 210.5 590.5Q178 564 178 513Q178 470 203.5 445.5Q229 421 294 410L368 397Q462 380 505.0 328.5Q548 277 548 203Q548 155 531.5 115.0Q515 75 482.5 47.0Q450 19 402.5 3.5Q355 -12 294 -12Z"/><path transform="translate(792.0,0)" d="M274 321 190 216V0H78V698H190V364H195L280 480L451 698H580L350 404L589 0H461Z"/><path transform="translate(1584.0,0)" d="M244 0V263L12 698H137L226 524L298 375H304L377 524L466 698H588L356 263V0Z"/><path transform="translate(2376.0,0)" d="M83 698H324Q419 698 471.5 649.0Q524 600 524 515Q524 454 494.0 418.0Q464 382 413 367V362Q474 348 511.0 308.5Q548 269 548 197Q548 154 534.0 118.0Q520 82 494.0 55.5Q468 29 431.5 14.5Q395 0 351 0H83ZM317 86Q373 86 403.0 109.0Q433 132 433 183V219Q433 270 403.0 293.0Q373 316 317 316H193V86ZM301 398Q354 398 381.5 418.5Q409 439 409 487V523Q409 571 381.5 591.5Q354 612 301 612H193V398Z"/><path transform="translate(3168.0,0)" d="M195 0H84V698H345Q445 698 497.5 642.0Q550 586 550 488Q550 408 511.0 356.0Q472 304 399 292L560 0H436L288 282H195ZM329 372Q433 372 433 467V510Q433 605 329 605H195V372Z"/><path transform="translate(3960.0,0)" d="M80 0V85H244V613H80V698H520V613H356V85H520V0Z"/><path transform="translate(4752.0,0)" d="M82 698H290Q424 698 488.5 609.0Q553 520 553 349Q553 178 488.5 89.0Q424 0 290 0H82ZM283 92Q360 92 397.5 143.5Q435 195 435 291V407Q435 503 397.5 554.5Q360 606 283 606H193V92Z"/><path transform="translate(5544.0,0)" d="M430 96H423Q414 75 401.5 55.5Q389 36 370.5 21.0Q352 6 326.0 -3.0Q300 -12 266 -12Q157 -12 102.0 81.0Q47 174 47 344Q47 522 110.0 616.0Q173 710 303 710Q354 710 392.5 696.0Q431 682 458.0 658.5Q485 635 503.0 603.5Q521 572 532 537L431 503Q423 526 413.0 546.5Q403 567 388.5 583.0Q374 599 353.5 608.0Q333 617 304 617Q231 617 198.5 560.5Q166 504 166 408V297Q166 249 173.0 209.0Q180 169 196.5 140.5Q213 112 239.5 96.0Q266 80 304 80Q365 80 397.5 116.5Q430 153 430 210V273H295V357H532V0H430Z"/><path transform="translate(6336.0,0)" d="M86 0V698H523V604H198V401H511V307H198V94H523V0Z"/><path transform="translate(7920.0,0)" d="M84 0V698H345Q445 698 497.5 642.0Q550 586 550 488Q550 390 497.5 334.0Q445 278 345 278H196V0ZM196 371H328Q432 371 432 467V510Q432 605 328 605H196Z"/><path transform="translate(8712.0,0)" d="M462 0 409 186H187L134 0H20L224 698H377L581 0ZM302 585H294L208 279H388Z"/><path transform="translate(9504.0,0)" d="M244 0V263L12 698H137L226 524L298 375H304L377 524L466 698H588L356 263V0Z"/><path transform="translate(10296.0,0)" d="M445 334 448 544H440L300 185L160 544H152L155 334V0H56V698H193L300 421H307L415 698H544V0H445Z"/><path transform="translate(11088.0,0)" d="M86 0V698H523V604H198V401H511V307H198V94H523V0Z"/><path transform="translate(11880.0,0)" d="M179 537H170V0H72V698H216L421 161H430V698H528V0H384Z"/><path transform="translate(12672.0,0)" d="M356 604V0H244V604H25V698H575V604Z"/><path transform="translate(14256.0,0)" d="M80 0V85H244V613H80V698H520V613H356V85H520V0Z"/><path transform="translate(15048.0,0)" d="M179 537H170V0H72V698H216L421 161H430V698H528V0H384Z"/><path transform="translate(15840.0,0)" d="M320 -12Q187 -12 122.5 82.0Q58 176 58 349Q58 522 122.5 616.0Q187 710 320 710Q371 710 408.5 696.5Q446 683 473.0 659.5Q500 636 518.5 604.5Q537 573 549 537L448 503Q440 527 430.0 548.0Q420 569 405.0 584.0Q390 599 369.5 608.0Q349 617 319 617Q245 617 211.0 560.5Q177 504 177 408V290Q177 194 211.0 137.5Q245 81 319 81Q349 81 369.5 90.0Q390 99 405.0 114.0Q420 129 430.0 150.0Q440 171 448 195L549 161Q537 125 518.5 93.5Q500 62 473.0 38.5Q446 15 408.5 1.5Q371 -12 320 -12Z"/><path transform="translate(16632.0,0)" d="M300 -10Q252 -10 232.5 10.0Q213 30 213 59V85Q213 114 232.5 134.0Q252 154 300 154Q348 154 367.5 134.0Q387 114 387 85V59Q387 30 367.5 10.0Q348 -10 300 -10Z"/></g><path d="M 500 39 A 7 7 0 0 1 500 53" fill="none" stroke="#7FB4FF" stroke-width="2" stroke-linecap="round" opacity="0.85"/><path d="M 500 34 A 12 12 0 0 1 500 58" fill="none" stroke="#7FB4FF" stroke-width="2" stroke-linecap="round" opacity="0.63"/><path d="M 500 29 A 17 17 0 0 1 500 63" fill="none" stroke="#7FB4FF" stroke-width="2" stroke-linecap="round" opacity="0.41"/><rect x="44" y="92" width="58" height="44" rx="8" fill="url(#chip)"/><rect x="44" y="92" width="58" height="44" rx="8" fill="none" stroke="#8f6d1f" stroke-width="0.8"/><line x1="44" y1="114" x2="102" y2="114" stroke="#8f6d1f" stroke-width="1"/><line x1="64" y1="92" x2="64" y2="136" stroke="#8f6d1f" stroke-width="1"/><line x1="82" y1="92" x2="82" y2="136" stroke="#8f6d1f" stroke-width="1"/><g transform="translate(44.00,198.00) scale(0.01900,-0.01900)" fill="url(#cnum)"><path transform="translate(0.0,0)" d="M267 -14Q159 -14 95.5 45.0Q32 104 32 210V276H164V210Q164 163 190.0 136.5Q216 110 263 110Q307 110 331.5 136.0Q356 162 356 210V580H236V700H568V580H488V210Q488 101 429.0 43.5Q370 -14 267 -14Z"/><path transform="translate(662.6,0)" d="M18 0 202 700H432L616 0H480L442 154H192L154 0ZM223 276H411L326 617H308Z"/><path transform="translate(1349.3,0)" d="M196 0 18 700H154L302 85H316L464 700H600L422 0Z"/><path transform="translate(2019.9,0)" d="M18 0 202 700H432L616 0H480L442 154H192L154 0ZM223 276H411L326 617H308Z"/><path transform="translate(3013.2,0)" d="M258 0V606H240L146 384H12L155 700H386V0Z"/><path transform="translate(3517.8,0)" d="M131 0V26Q131 65 137.0 92.5Q143 120 163 155L398 570V586H26V700H530V548L282 105Q269 82 264.0 64.0Q259 46 259 20V0Z"/><path transform="translate(5350.9,0)" d="M66 0V700H198V422H216L443 700H612L320 355L622 0H448L216 284H198V0Z"/><path transform="translate(6029.6,0)" d="M338 -14Q206 -14 128.0 58.5Q50 131 50 266V434Q50 569 128.0 641.5Q206 714 338 714Q470 714 548.0 641.5Q626 569 626 434V266Q626 131 548.0 58.5Q470 -14 338 -14ZM338 104Q412 104 453.0 147.0Q494 190 494 262V438Q494 510 453.0 553.0Q412 596 338 596Q265 596 223.5 553.0Q182 510 182 438V262Q182 190 223.5 147.0Q265 104 338 104Z"/><path transform="translate(6758.2,0)" d="M228 0V580H24V700H564V580H360V0Z"/><path transform="translate(7398.8,0)" d="M66 0V700H198V120H518V0Z"/><path transform="translate(7993.5,0)" d="M66 0V700H198V0Z"/><path transform="translate(8310.1,0)" d="M66 0V700H317L456 90H474V700H604V0H353L214 610H196V0Z"/><path transform="translate(10259.3,0)" d="M338 -14Q206 -14 128.0 58.5Q50 131 50 266V434Q50 569 128.0 641.5Q206 714 338 714Q470 714 548.0 641.5Q626 569 626 434V266Q626 131 548.0 58.5Q470 -14 338 -14ZM338 104Q412 104 453.0 147.0Q494 190 494 262V438Q494 510 453.0 553.0Q412 596 338 596Q265 596 223.5 553.0Q182 510 182 438V262Q182 190 223.5 147.0Q265 104 338 104ZM384 -180Q335 -180 304.5 -149.5Q274 -119 274 -68V0H402V-48Q402 -78 430 -78H489V-180Z"/><path transform="translate(10987.9,0)" d="M336 -14Q250 -14 188.5 17.5Q127 49 94.5 107.5Q62 166 62 246V700H194V242Q194 178 230.5 141.0Q267 104 336 104Q405 104 441.5 141.0Q478 178 478 242V700H610V246Q610 166 577.5 107.5Q545 49 483.5 17.5Q422 -14 336 -14Z"/><path transform="translate(11712.5,0)" d="M18 0 202 700H432L616 0H480L442 154H192L154 0ZM223 276H411L326 617H308Z"/><path transform="translate(12399.2,0)" d="M66 0V700H370Q436 700 485.0 677.0Q534 654 561.0 612.0Q588 570 588 513V501Q588 438 558.0 399.0Q528 360 484 342V324Q524 322 546.0 296.5Q568 271 568 229V0H436V210Q436 234 423.5 249.0Q411 264 382 264H198V0ZM198 384H356Q403 384 429.5 409.5Q456 435 456 477V487Q456 529 430.0 554.5Q404 580 356 580H198Z"/><path transform="translate(13083.8,0)" d="M66 0V700H198V422H216L443 700H612L320 355L622 0H448L216 284H198V0Z"/><path transform="translate(13762.4,0)" d="M336 -14Q250 -14 188.5 17.5Q127 49 94.5 107.5Q62 166 62 246V700H194V242Q194 178 230.5 141.0Q267 104 336 104Q405 104 441.5 141.0Q478 178 478 242V700H610V246Q610 166 577.5 107.5Q545 49 483.5 17.5Q422 -14 336 -14Z"/><path transform="translate(14487.1,0)" d="M309 -14Q228 -14 166.0 15.0Q104 44 69.0 98.0Q34 152 34 228V256H164V228Q164 165 203.0 133.5Q242 102 309 102Q377 102 410.5 129.0Q444 156 444 198Q444 227 427.5 245.0Q411 263 379.5 274.5Q348 286 303 296L280 301Q208 317 156.5 341.5Q105 366 77.5 406.0Q50 446 50 510Q50 574 80.5 619.5Q111 665 166.5 689.5Q222 714 297 714Q372 714 430.5 688.5Q489 663 522.5 612.5Q556 562 556 486V456H426V486Q426 526 410.5 550.5Q395 575 366.0 586.5Q337 598 297 598Q237 598 208.5 575.5Q180 553 180 514Q180 488 193.5 470.0Q207 452 234.0 440.0Q261 428 303 419L326 414Q401 398 456.5 373.0Q512 348 543.0 307.0Q574 266 574 202Q574 138 541.5 89.5Q509 41 449.5 13.5Q390 -14 309 -14Z"/><path transform="translate(16372.2,0)" d="M308 -14Q236 -14 177.5 18.5Q119 51 84.5 113.5Q50 176 50 266V434Q50 569 126.0 641.5Q202 714 332 714Q461 714 531.5 645.5Q602 577 602 460V456H472V464Q472 501 456.5 531.0Q441 561 410.0 578.5Q379 596 332 596Q262 596 222.0 553.0Q182 510 182 436V264Q182 191 222.0 146.5Q262 102 334 102Q406 102 439.0 140.0Q472 178 472 236V246H306V358H602V0H480V67H462Q455 50 439.5 31.0Q424 12 393.0 -1.0Q362 -14 308 -14Z"/><path transform="translate(17086.8,0)" d="M332 -14Q202 -14 126.0 58.5Q50 131 50 266V434Q50 569 126.0 641.5Q202 714 332 714Q461 714 531.5 643.5Q602 573 602 450V444H472V454Q472 516 437.5 556.0Q403 596 332 596Q262 596 222.0 553.0Q182 510 182 436V264Q182 191 222.0 147.5Q262 104 332 104Q403 104 437.5 144.5Q472 185 472 246V264H602V250Q602 127 531.5 56.5Q461 -14 332 -14Z"/><path transform="translate(17783.5,0)" d="M66 0V700H354Q420 700 470.5 673.5Q521 647 549.5 599.0Q578 551 578 485V471Q578 406 548.5 357.5Q519 309 468.5 282.5Q418 256 354 256H198V0ZM198 376H341Q388 376 417.0 402.0Q446 428 446 473V483Q446 528 417.0 554.0Q388 580 341 580H198Z"/></g><g transform="translate(44.00,236.00) scale(0.00950,-0.00950)" fill="#5E7AB0"><path transform="translate(0.0,0)" d="M320 -12Q187 -12 122.5 82.0Q58 176 58 349Q58 522 122.5 616.0Q187 710 320 710Q371 710 408.5 696.5Q446 683 473.0 659.5Q500 636 518.5 604.5Q537 573 549 537L448 503Q440 527 430.0 548.0Q420 569 405.0 584.0Q390 599 369.5 608.0Q349 617 319 617Q245 617 211.0 560.5Q177 504 177 408V290Q177 194 211.0 137.5Q245 81 319 81Q349 81 369.5 90.0Q390 99 405.0 114.0Q420 129 430.0 150.0Q440 171 448 195L549 161Q537 125 518.5 93.5Q500 62 473.0 38.5Q446 15 408.5 1.5Q371 -12 320 -12Z"/><path transform="translate(873.7,0)" d="M462 0 409 186H187L134 0H20L224 698H377L581 0ZM302 585H294L208 279H388Z"/><path transform="translate(1747.4,0)" d="M195 0H84V698H345Q445 698 497.5 642.0Q550 586 550 488Q550 408 511.0 356.0Q472 304 399 292L560 0H436L288 282H195ZM329 372Q433 372 433 467V510Q433 605 329 605H195V372Z"/><path transform="translate(2621.1,0)" d="M82 698H290Q424 698 488.5 609.0Q553 520 553 349Q553 178 488.5 89.0Q424 0 290 0H82ZM283 92Q360 92 397.5 143.5Q435 195 435 291V407Q435 503 397.5 554.5Q360 606 283 606H193V92Z"/><path transform="translate(3494.7,0)" d="M416 307H184V0H72V698H184V401H416V698H528V0H416Z"/><path transform="translate(4368.4,0)" d="M300 -12Q234 -12 185.5 12.5Q137 37 105.5 83.0Q74 129 59.0 196.0Q44 263 44 349Q44 434 59.0 501.5Q74 569 105.5 615.0Q137 661 185.5 685.5Q234 710 300 710Q366 710 414.5 685.5Q463 661 494.5 615.0Q526 569 541.0 501.5Q556 434 556 349Q556 263 541.0 196.0Q526 129 494.5 83.0Q463 37 414.5 12.5Q366 -12 300 -12ZM300 81Q375 81 406.0 137.5Q437 194 437 291V408Q437 504 406.0 560.5Q375 617 300 617Q225 617 194.0 560.5Q163 504 163 408V290Q163 194 194.0 137.5Q225 81 300 81Z"/><path transform="translate(5242.1,0)" d="M108 0V698H220V94H538V0Z"/><path transform="translate(6115.8,0)" d="M82 698H290Q424 698 488.5 609.0Q553 520 553 349Q553 178 488.5 89.0Q424 0 290 0H82ZM283 92Q360 92 397.5 143.5Q435 195 435 291V407Q435 503 397.5 554.5Q360 606 283 606H193V92Z"/><path transform="translate(6989.5,0)" d="M86 0V698H523V604H198V401H511V307H198V94H523V0Z"/><path transform="translate(7863.2,0)" d="M195 0H84V698H345Q445 698 497.5 642.0Q550 586 550 488Q550 408 511.0 356.0Q472 304 399 292L560 0H436L288 282H195ZM329 372Q433 372 433 467V510Q433 605 329 605H195V372Z"/></g><g transform="translate(380.00,236.00) scale(0.00950,-0.00950)" fill="#5E7AB0"><path transform="translate(0.0,0)" d="M445 334 448 544H440L300 185L160 544H152L155 334V0H56V698H193L300 421H307L415 698H544V0H445Z"/><path transform="translate(873.7,0)" d="M86 0V698H523V604H198V401H511V307H198V94H523V0Z"/><path transform="translate(1747.4,0)" d="M445 334 448 544H440L300 185L160 544H152L155 334V0H56V698H193L300 421H307L415 698H544V0H445Z"/><path transform="translate(2621.1,0)" d="M83 698H324Q419 698 471.5 649.0Q524 600 524 515Q524 454 494.0 418.0Q464 382 413 367V362Q474 348 511.0 308.5Q548 269 548 197Q548 154 534.0 118.0Q520 82 494.0 55.5Q468 29 431.5 14.5Q395 0 351 0H83ZM317 86Q373 86 403.0 109.0Q433 132 433 183V219Q433 270 403.0 293.0Q373 316 317 316H193V86ZM301 398Q354 398 381.5 418.5Q409 439 409 487V523Q409 571 381.5 591.5Q354 612 301 612H193V398Z"/><path transform="translate(3494.7,0)" d="M86 0V698H523V604H198V401H511V307H198V94H523V0Z"/><path transform="translate(4368.4,0)" d="M195 0H84V698H345Q445 698 497.5 642.0Q550 586 550 488Q550 408 511.0 356.0Q472 304 399 292L560 0H436L288 282H195ZM329 372Q433 372 433 467V510Q433 605 329 605H195V372Z"/><path transform="translate(6115.8,0)" d="M294 -12Q203 -12 141.0 20.0Q79 52 39 105L111 174Q151 126 196.0 103.5Q241 81 298 81Q364 81 399.5 111.0Q435 141 435 197Q435 242 409.0 266.5Q383 291 320 302L244 314Q194 322 160.0 340.5Q126 359 105.0 384.5Q84 410 74.5 441.5Q65 473 65 508Q65 607 129.0 658.5Q193 710 305 710Q388 710 446.5 683.5Q505 657 541 609L471 539Q442 574 402.5 595.5Q363 617 305 617Q243 617 210.5 590.5Q178 564 178 513Q178 470 203.5 445.5Q229 421 294 410L368 397Q462 380 505.0 328.5Q548 277 548 203Q548 155 531.5 115.0Q515 75 482.5 47.0Q450 19 402.5 3.5Q355 -12 294 -12Z"/><path transform="translate(6989.5,0)" d="M80 0V85H244V613H80V698H520V613H356V85H520V0Z"/><path transform="translate(7863.2,0)" d="M179 537H170V0H72V698H216L421 161H430V698H528V0H384Z"/><path transform="translate(8736.8,0)" d="M320 -12Q187 -12 122.5 82.0Q58 176 58 349Q58 522 122.5 616.0Q187 710 320 710Q371 710 408.5 696.5Q446 683 473.0 659.5Q500 636 518.5 604.5Q537 573 549 537L448 503Q440 527 430.0 548.0Q420 569 405.0 584.0Q390 599 369.5 608.0Q349 617 319 617Q245 617 211.0 560.5Q177 504 177 408V290Q177 194 211.0 137.5Q245 81 319 81Q349 81 369.5 90.0Q390 99 405.0 114.0Q420 129 430.0 150.0Q440 171 448 195L549 161Q537 125 518.5 93.5Q500 62 473.0 38.5Q446 15 408.5 1.5Q371 -12 320 -12Z"/><path transform="translate(9610.5,0)" d="M86 0V698H523V604H198V401H511V307H198V94H523V0Z"/></g><g transform="translate(42.00,268.00) scale(0.02100,-0.02100)" fill="url(#emboss)"><path transform="translate(0.0,0)" d="M267 -14Q159 -14 95.5 45.0Q32 104 32 210V276H164V210Q164 163 190.0 136.5Q216 110 263 110Q307 110 331.5 136.0Q356 162 356 210V580H236V700H568V580H488V210Q488 101 429.0 43.5Q370 -14 267 -14Z"/><path transform="translate(629.0,0)" d="M338 -14Q206 -14 128.0 58.5Q50 131 50 266V434Q50 569 128.0 641.5Q206 714 338 714Q470 714 548.0 641.5Q626 569 626 434V266Q626 131 548.0 58.5Q470 -14 338 -14ZM338 104Q412 104 453.0 147.0Q494 190 494 262V438Q494 510 453.0 553.0Q412 596 338 596Q265 596 223.5 553.0Q182 510 182 438V262Q182 190 223.5 147.0Q265 104 338 104Z"/><path transform="translate(1324.1,0)" d="M66 0V700H198V411H458V700H590V0H458V291H198V0Z"/><path transform="translate(1999.1,0)" d="M66 0V700H317L456 90H474V700H604V0H353L214 610H196V0Z"/><path transform="translate(2961.2,0)" d="M66 0V700H354Q420 700 470.5 673.5Q521 647 549.5 599.0Q578 551 578 485V471Q578 406 548.5 357.5Q519 309 468.5 282.5Q418 256 354 256H198V0ZM198 376H341Q388 376 417.0 402.0Q446 428 446 473V483Q446 528 417.0 554.0Q388 580 341 580H198Z"/><path transform="translate(3584.3,0)" d="M18 0 202 700H432L616 0H480L442 154H192L154 0ZM223 276H411L326 617H308Z"/><path transform="translate(4237.3,0)" d="M336 -14Q250 -14 188.5 17.5Q127 49 94.5 107.5Q62 166 62 246V700H194V242Q194 178 230.5 141.0Q267 104 336 104Q405 104 441.5 141.0Q478 178 478 242V700H610V246Q610 166 577.5 107.5Q545 49 483.5 17.5Q422 -14 336 -14Z"/><path transform="translate(4928.4,0)" d="M66 0V700H198V120H518V0Z"/><path transform="translate(5762.5,0)" d="M46 0V116H138V584H46V700H406Q470 700 517.5 678.5Q565 657 591.5 617.5Q618 578 618 523V513Q618 465 600.0 434.5Q582 404 557.5 387.5Q533 371 511 364V346Q533 340 559.0 323.5Q585 307 603.5 276.0Q622 245 622 195V185Q622 127 595.0 85.5Q568 44 520.5 22.0Q473 0 410 0ZM270 120H394Q437 120 463.5 141.0Q490 162 490 201V211Q490 250 464.0 271.0Q438 292 394 292H270ZM270 412H392Q433 412 459.5 433.0Q486 454 486 491V501Q486 539 460.0 559.5Q434 580 392 580H270Z"/><path transform="translate(6445.5,0)" d="M18 0 202 700H432L616 0H480L442 154H192L154 0ZM223 276H411L326 617H308Z"/><path transform="translate(7098.6,0)" d="M246 0V241L8 700H155L303 400H321L469 700H616L378 241V0Z"/><path transform="translate(7741.6,0)" d="M338 -14Q206 -14 128.0 58.5Q50 131 50 266V434Q50 569 128.0 641.5Q206 714 338 714Q470 714 548.0 641.5Q626 569 626 434V266Q626 131 548.0 58.5Q470 -14 338 -14ZM338 104Q412 104 453.0 147.0Q494 190 494 262V438Q494 510 453.0 553.0Q412 596 338 596Q265 596 223.5 553.0Q182 510 182 438V262Q182 190 223.5 147.0Q265 104 338 104Z"/><path transform="translate(8436.7,0)" d="M66 0V700H317L456 90H474V700H604V0H353L214 610H196V0Z"/><path transform="translate(9125.7,0)" d="M66 0V700H516V580H198V413H488V293H198V120H522V0Z"/><path transform="translate(9698.8,0)" d="M228 0V580H24V700H564V580H360V0Z"/><path transform="translate(10305.8,0)" d="M338 -14Q206 -14 128.0 58.5Q50 131 50 266V434Q50 569 128.0 641.5Q206 714 338 714Q470 714 548.0 641.5Q626 569 626 434V266Q626 131 548.0 58.5Q470 -14 338 -14ZM338 104Q412 104 453.0 147.0Q494 190 494 262V438Q494 510 453.0 553.0Q412 596 338 596Q265 596 223.5 553.0Q182 510 182 438V262Q182 190 223.5 147.0Q265 104 338 104Z"/></g><g transform="translate(380.00,268.00) scale(0.02100,-0.02100)" fill="url(#emboss)"><path transform="translate(0.0,0)" d="M42 0V84Q42 157 66.0 205.5Q90 254 135.5 285.5Q181 317 247 337L314 358Q351 370 376.0 387.5Q401 405 414.5 430.0Q428 455 428 487V491Q428 541 394.0 570.5Q360 600 301 600Q243 600 207.5 568.5Q172 537 172 478V460H44V476Q44 552 78.0 605.0Q112 658 170.5 686.0Q229 714 301 714Q373 714 431.0 686.5Q489 659 522.5 609.5Q556 560 556 493V483Q556 416 528.5 369.5Q501 323 454.0 293.5Q407 264 347 245L283 225Q240 212 216.0 196.5Q192 181 182.5 162.5Q173 144 173 118V114H550V0Z"/><path transform="translate(632.1,0)" d="M324 -14Q200 -14 125.0 54.5Q50 123 50 262V438Q50 573 125.0 643.5Q200 714 324 714Q449 714 523.5 643.5Q598 573 598 438V262Q598 123 523.5 54.5Q449 -14 324 -14ZM324 100Q399 100 434.5 141.0Q470 182 470 258V444Q470 521 430.5 560.5Q391 600 324 600Q255 600 216.5 559.0Q178 518 178 444V258Q178 179 214.5 139.5Q251 100 324 100Z"/><path transform="translate(1318.2,0)" d="M42 0V84Q42 157 66.0 205.5Q90 254 135.5 285.5Q181 317 247 337L314 358Q351 370 376.0 387.5Q401 405 414.5 430.0Q428 455 428 487V491Q428 541 394.0 570.5Q360 600 301 600Q243 600 207.5 568.5Q172 537 172 478V460H44V476Q44 552 78.0 605.0Q112 658 170.5 686.0Q229 714 301 714Q373 714 431.0 686.5Q489 659 522.5 609.5Q556 560 556 493V483Q556 416 528.5 369.5Q501 323 454.0 293.5Q407 264 347 245L283 225Q240 212 216.0 196.5Q192 181 182.5 162.5Q173 144 173 118V114H550V0Z"/><path transform="translate(1950.3,0)" d="M303 -14Q221 -14 161.5 15.0Q102 44 70.0 97.0Q38 150 38 220V230H168V221Q168 171 201.5 135.5Q235 100 301 100Q367 100 402.5 135.5Q438 171 438 228V238Q438 294 402.5 327.0Q367 360 314 360Q285 360 266.0 352.0Q247 344 235.0 332.0Q223 320 215 308H60V700H538V584H188V413H206Q216 426 233.0 438.0Q250 450 277.0 458.0Q304 466 341 466Q403 466 454.0 440.0Q505 414 535.5 363.5Q566 313 566 239V227Q566 153 534.5 99.0Q503 45 444.0 15.5Q385 -14 303 -14Z"/></g><g transform="translate(44.00,312.00) scale(0.01350,-0.01350)" fill="#8FA8D6"><path transform="translate(0.0,0)" d="M311 -14Q232 -14 171.0 14.0Q110 42 75.5 96.5Q41 151 41 229V254H148V229Q148 155 192.5 118.0Q237 81 311 81Q386 81 424.0 112.5Q462 144 462 194Q462 227 444.0 248.0Q426 269 393.0 281.5Q360 294 314 305L277 314Q210 330 160.5 353.5Q111 377 84.0 416.0Q57 455 57 516Q57 578 87.5 622.0Q118 666 172.0 690.0Q226 714 299 714Q372 714 429.5 689.0Q487 664 520.0 615.0Q553 566 553 492V456H446V492Q446 537 427.5 565.0Q409 593 376.0 606.0Q343 619 299 619Q235 619 199.5 592.5Q164 566 164 519Q164 487 179.5 466.5Q195 446 225.0 433.0Q255 420 300 410L337 401Q405 386 457.0 362.5Q509 339 539.0 299.0Q569 259 569 196Q569 133 537.5 86.0Q506 39 448.0 12.5Q390 -14 311 -14Z"/><path transform="translate(631.2,0)" d="M307 -14Q233 -14 175.5 16.5Q118 47 85.0 104.0Q52 161 52 239V254Q52 332 85.0 388.5Q118 445 175.5 476.0Q233 507 307 507Q381 507 439.0 476.0Q497 445 530.0 388.5Q563 332 563 254V239Q563 161 530.0 104.0Q497 47 439.0 16.5Q381 -14 307 -14ZM307 78Q375 78 417.5 121.5Q460 165 460 242V251Q460 328 418.0 371.5Q376 415 307 415Q240 415 197.5 371.5Q155 328 155 251V242Q155 165 197.5 121.5Q240 78 307 78Z"/><path transform="translate(1268.4,0)" d="M165 0V406H27V493H165V601Q165 646 192.0 673.0Q219 700 264 700H391V613H297Q268 613 268 583V493H410V406H268V0Z"/><path transform="translate(1729.7,0)" d="M261 0Q216 0 189.5 27.0Q163 54 163 99V406H27V493H163V656H266V493H413V406H266V117Q266 87 294 87H397V0Z"/><path transform="translate(2209.9,0)" d="M130 0 46 493H149L211 69H227L313 493H480L565 69H581L643 493H746L662 0H489L404 423H388L303 0Z"/><path transform="translate(3024.1,0)" d="M229 -14Q176 -14 134.5 4.0Q93 22 68.5 57.0Q44 92 44 142Q44 193 68.5 226.5Q93 260 135.5 277.0Q178 294 232 294H382V326Q382 369 356.0 395.0Q330 421 276 421Q223 421 195.0 396.0Q167 371 158 331L62 362Q74 402 100.5 434.5Q127 467 171.0 487.0Q215 507 277 507Q373 507 428.0 458.0Q483 409 483 319V116Q483 86 511 86H553V0H476Q441 0 419.0 18.0Q397 36 397 67V70H382Q374 55 358.0 35.0Q342 15 311.0 0.5Q280 -14 229 -14ZM244 71Q306 71 344.0 106.5Q382 142 382 204V214H238Q197 214 172.0 196.5Q147 179 147 145Q147 111 173.0 91.0Q199 71 244 71Z"/><path transform="translate(3623.3,0)" d="M76 0V493H177V435H193Q205 466 231.5 480.5Q258 495 297 495H356V402H293Q243 402 211.0 374.5Q179 347 179 290V0Z"/><path transform="translate(4032.6,0)" d="M302 -14Q227 -14 171.0 17.5Q115 49 83.5 106.5Q52 164 52 240V252Q52 329 83.0 386.5Q114 444 169.5 475.5Q225 507 298 507Q369 507 422.5 475.5Q476 444 506.0 388.0Q536 332 536 257V218H157Q159 153 200.5 114.5Q242 76 304 76Q362 76 391.5 102.0Q421 128 437 162L522 118Q508 90 481.5 59.0Q455 28 412.0 7.0Q369 -14 302 -14ZM158 297H431Q427 353 391.0 384.5Q355 416 297 416Q239 416 202.5 384.5Q166 353 158 297Z"/><path transform="translate(4916.0,0)" d="M73 0V700H514V602H181V401H486V303H181V98H519V0Z"/><path transform="translate(5497.2,0)" d="M76 0V493H177V419H193Q207 449 243.0 475.0Q279 501 350 501Q406 501 449.5 476.0Q493 451 518.0 405.5Q543 360 543 296V0H440V288Q440 352 408.0 382.5Q376 413 320 413Q256 413 217.5 371.0Q179 329 179 249V0Z"/><path transform="translate(6134.4,0)" d="M52 244V259Q52 337 83.5 392.0Q115 447 167.0 477.0Q219 507 281 507Q353 507 391.5 480.0Q430 453 448 422H464V493H564V-101Q564 -146 537.5 -173.0Q511 -200 465 -200H133V-110H433Q462 -110 462 -80V77H446Q435 59 415.0 40.0Q395 21 362.5 9.0Q330 -3 281 -3Q219 -3 166.5 26.5Q114 56 83.0 111.5Q52 167 52 244ZM309 87Q376 87 419.5 129.5Q463 172 463 247V256Q463 333 420.0 374.5Q377 416 309 416Q243 416 199.5 374.5Q156 333 156 256V247Q156 172 199.5 129.5Q243 87 309 87Z"/><path transform="translate(6796.7,0)" d="M76 0V493H179V0ZM128 560Q98 560 77.5 579.5Q57 599 57 630Q57 661 77.5 680.5Q98 700 128 700Q159 700 179.0 680.5Q199 661 199 630Q199 599 179.0 579.5Q159 560 128 560Z"/><path transform="translate(7074.9,0)" d="M76 0V493H177V419H193Q207 449 243.0 475.0Q279 501 350 501Q406 501 449.5 476.0Q493 451 518.0 405.5Q543 360 543 296V0H440V288Q440 352 408.0 382.5Q376 413 320 413Q256 413 217.5 371.0Q179 329 179 249V0Z"/><path transform="translate(7712.1,0)" d="M302 -14Q227 -14 171.0 17.5Q115 49 83.5 106.5Q52 164 52 240V252Q52 329 83.0 386.5Q114 444 169.5 475.5Q225 507 298 507Q369 507 422.5 475.5Q476 444 506.0 388.0Q536 332 536 257V218H157Q159 153 200.5 114.5Q242 76 304 76Q362 76 391.5 102.0Q421 128 437 162L522 118Q508 90 481.5 59.0Q455 28 412.0 7.0Q369 -14 302 -14ZM158 297H431Q427 353 391.0 384.5Q355 416 297 416Q239 416 202.5 384.5Q166 353 158 297Z"/><path transform="translate(8318.3,0)" d="M302 -14Q227 -14 171.0 17.5Q115 49 83.5 106.5Q52 164 52 240V252Q52 329 83.0 386.5Q114 444 169.5 475.5Q225 507 298 507Q369 507 422.5 475.5Q476 444 506.0 388.0Q536 332 536 257V218H157Q159 153 200.5 114.5Q242 76 304 76Q362 76 391.5 102.0Q421 128 437 162L522 118Q508 90 481.5 59.0Q455 28 412.0 7.0Q369 -14 302 -14ZM158 297H431Q427 353 391.0 384.5Q355 416 297 416Q239 416 202.5 384.5Q166 353 158 297Z"/><path transform="translate(8924.6,0)" d="M76 0V493H177V435H193Q205 466 231.5 480.5Q258 495 297 495H356V402H293Q243 402 211.0 374.5Q179 347 179 290V0Z"/><path transform="translate(9611.0,0)" d="M101 205Q66 205 42.5 228.0Q19 251 19 287Q19 323 42.5 345.5Q66 368 101 368Q136 368 159.5 345.0Q183 322 183 287Q183 251 159.5 228.0Q136 205 101 205Z"/><path transform="translate(10113.4,0)" d="M73 0V700H505V602H181V400H479V302H181V0Z"/><path transform="translate(10672.7,0)" d="M76 0V493H179V0ZM128 560Q98 560 77.5 579.5Q57 599 57 630Q57 661 77.5 680.5Q98 700 128 700Q159 700 179.0 680.5Q199 661 199 630Q199 599 179.0 579.5Q159 560 128 560Z"/><path transform="translate(10950.9,0)" d="M76 0V493H177V419H193Q207 449 243.0 475.0Q279 501 350 501Q406 501 449.5 476.0Q493 451 518.0 405.5Q543 360 543 296V0H440V288Q440 352 408.0 382.5Q376 413 320 413Q256 413 217.5 371.0Q179 329 179 249V0Z"/><path transform="translate(11588.1,0)" d="M240 0V602H25V700H563V602H348V0Z"/><path transform="translate(12198.3,0)" d="M302 -14Q227 -14 171.0 17.5Q115 49 83.5 106.5Q52 164 52 240V252Q52 329 83.0 386.5Q114 444 169.5 475.5Q225 507 298 507Q369 507 422.5 475.5Q476 444 506.0 388.0Q536 332 536 257V218H157Q159 153 200.5 114.5Q242 76 304 76Q362 76 391.5 102.0Q421 128 437 162L522 118Q508 90 481.5 59.0Q455 28 412.0 7.0Q369 -14 302 -14ZM158 297H431Q427 353 391.0 384.5Q355 416 297 416Q239 416 202.5 384.5Q166 353 158 297Z"/><path transform="translate(12804.6,0)" d="M305 -14Q234 -14 176.5 16.0Q119 46 85.5 103.0Q52 160 52 240V253Q52 333 85.5 389.5Q119 446 176.5 476.5Q234 507 305 507Q376 507 426.0 481.0Q476 455 506.5 412.0Q537 369 546 317L446 296Q441 329 425.0 356.0Q409 383 380.0 399.0Q351 415 307 415Q264 415 229.5 395.5Q195 376 175.0 339.5Q155 303 155 251V242Q155 190 175.0 153.0Q195 116 229.5 97.0Q264 78 307 78Q372 78 406.0 111.5Q440 145 449 197L549 174Q537 123 506.5 80.0Q476 37 426.0 11.5Q376 -14 305 -14Z"/><path transform="translate(13418.8,0)" d="M76 0V700H179V423H195Q205 442 223.5 460.0Q242 478 272.5 489.5Q303 501 350 501Q406 501 449.5 476.0Q493 451 518.0 405.5Q543 360 543 296V0H440V288Q440 352 408.0 382.5Q376 413 320 413Q256 413 217.5 371.0Q179 329 179 249V0Z"/><path transform="translate(14333.2,0)" d="M242 0Q182 0 135.5 22.0Q89 44 62.5 86.0Q36 128 36 187Q36 231 52.0 263.0Q68 295 95.5 316.5Q123 338 155 348V361Q107 376 74.0 413.0Q41 450 41 513Q41 574 68.5 615.5Q96 657 142.0 678.5Q188 700 246 700H364V613H263Q213 613 179.0 586.5Q145 560 145 505Q145 467 161.5 443.5Q178 420 204.5 408.5Q231 397 263 397H380V496H483V397H578V310H483V0ZM259 87H380V310H259Q209 310 174.0 282.5Q139 255 139 198Q139 141 175.0 114.0Q211 87 259 87Z"/><path transform="translate(15230.7,0)" d="M333 -14Q205 -14 130.0 58.5Q55 131 55 268V432Q55 569 130.0 641.5Q205 714 333 714Q459 714 527.5 644.0Q596 574 596 453V447H489V456Q489 527 450.5 572.0Q412 617 333 617Q253 617 208.0 568.5Q163 520 163 434V266Q163 181 208.0 132.0Q253 83 333 83Q412 83 450.5 128.5Q489 174 489 244V261H596V247Q596 126 527.5 56.0Q459 -14 333 -14Z"/><path transform="translate(15895.9,0)" d="M76 0V700H179V0Z"/><path transform="translate(16174.1,0)" d="M307 -14Q233 -14 175.5 16.5Q118 47 85.0 104.0Q52 161 52 239V254Q52 332 85.0 388.5Q118 445 175.5 476.0Q233 507 307 507Q381 507 439.0 476.0Q497 445 530.0 388.5Q563 332 563 254V239Q563 161 530.0 104.0Q497 47 439.0 16.5Q381 -14 307 -14ZM307 78Q375 78 417.5 121.5Q460 165 460 242V251Q460 328 418.0 371.5Q376 415 307 415Q240 415 197.5 371.5Q155 328 155 251V242Q155 165 197.5 121.5Q240 78 307 78Z"/><path transform="translate(16811.3,0)" d="M265 -9Q209 -9 165.0 16.0Q121 41 96.0 87.0Q71 133 71 197V493H174V204Q174 140 206.0 109.5Q238 79 295 79Q358 79 396.5 121.5Q435 164 435 244V493H538V0H437V74H421Q407 44 371.0 17.5Q335 -9 265 -9Z"/><path transform="translate(17447.6,0)" d="M280 -14Q219 -14 167.0 16.0Q115 46 83.5 102.5Q52 159 52 239V254Q52 333 83.0 390.0Q114 447 166.0 477.0Q218 507 280 507Q328 507 360.5 495.0Q393 483 414.0 464.5Q435 446 446 426H462V700H565V0H464V70H448Q429 38 390.5 12.0Q352 -14 280 -14ZM309 76Q376 76 419.5 119.0Q463 162 463 242V251Q463 330 420.0 373.0Q377 416 309 416Q243 416 199.5 373.0Q156 330 156 251V242Q156 162 199.5 119.0Q243 76 309 76Z"/><path transform="translate(18110.8,0)" d="M74 209V303H370V209Z"/><path transform="translate(18576.0,0)" d="M73 0V700H281L471 72H487V700H594V0H386L196 629H180V0Z"/><path transform="translate(19265.2,0)" d="M229 -14Q176 -14 134.5 4.0Q93 22 68.5 57.0Q44 92 44 142Q44 193 68.5 226.5Q93 260 135.5 277.0Q178 294 232 294H382V326Q382 369 356.0 395.0Q330 421 276 421Q223 421 195.0 396.0Q167 371 158 331L62 362Q74 402 100.5 434.5Q127 467 171.0 487.0Q215 507 277 507Q373 507 428.0 458.0Q483 409 483 319V116Q483 86 511 86H553V0H476Q441 0 419.0 18.0Q397 36 397 67V70H382Q374 55 358.0 35.0Q342 15 311.0 0.5Q280 -14 229 -14ZM244 71Q306 71 344.0 106.5Q382 142 382 204V214H238Q197 214 172.0 196.5Q147 179 147 145Q147 111 173.0 91.0Q199 71 244 71Z"/><path transform="translate(19864.4,0)" d="M261 0Q216 0 189.5 27.0Q163 54 163 99V406H27V493H163V656H266V493H413V406H266V117Q266 87 294 87H397V0Z"/><path transform="translate(20344.7,0)" d="M76 0V493H179V0ZM128 560Q98 560 77.5 579.5Q57 599 57 630Q57 661 77.5 680.5Q98 700 128 700Q159 700 179.0 680.5Q199 661 199 630Q199 599 179.0 579.5Q159 560 128 560Z"/><path transform="translate(20622.9,0)" d="M190 0 24 493H133L264 76H280L411 493H520L354 0Z"/><path transform="translate(21189.1,0)" d="M302 -14Q227 -14 171.0 17.5Q115 49 83.5 106.5Q52 164 52 240V252Q52 329 83.0 386.5Q114 444 169.5 475.5Q225 507 298 507Q369 507 422.5 475.5Q476 444 506.0 388.0Q536 332 536 257V218H157Q159 153 200.5 114.5Q242 76 304 76Q362 76 391.5 102.0Q421 128 437 162L522 118Q508 90 481.5 59.0Q455 28 412.0 7.0Q369 -14 302 -14ZM158 297H431Q427 353 391.0 384.5Q355 416 297 416Q239 416 202.5 384.5Q166 353 158 297Z"/><path transform="translate(22072.6,0)" d="M47 0V96H141V604H47V700H402Q465 700 512.0 678.5Q559 657 585.5 617.5Q612 578 612 524V514Q612 466 594.0 435.0Q576 404 550.5 387.0Q525 370 502 363V347Q525 341 551.5 323.5Q578 306 596.5 275.0Q615 244 615 194V184Q615 126 588.0 85.0Q561 44 513.5 22.0Q466 0 404 0ZM250 98H391Q445 98 476.0 124.0Q507 150 507 196V205Q507 251 476.5 277.0Q446 303 391 303H250ZM250 402H391Q442 402 473.0 427.5Q504 453 504 497V507Q504 551 473.5 576.5Q443 602 391 602H250Z"/><path transform="translate(22757.8,0)" d="M229 -14Q176 -14 134.5 4.0Q93 22 68.5 57.0Q44 92 44 142Q44 193 68.5 226.5Q93 260 135.5 277.0Q178 294 232 294H382V326Q382 369 356.0 395.0Q330 421 276 421Q223 421 195.0 396.0Q167 371 158 331L62 362Q74 402 100.5 434.5Q127 467 171.0 487.0Q215 507 277 507Q373 507 428.0 458.0Q483 409 483 319V116Q483 86 511 86H553V0H476Q441 0 419.0 18.0Q397 36 397 67V70H382Q374 55 358.0 35.0Q342 15 311.0 0.5Q280 -14 229 -14ZM244 71Q306 71 344.0 106.5Q382 142 382 204V214H238Q197 214 172.0 196.5Q147 179 147 145Q147 111 173.0 91.0Q199 71 244 71Z"/><path transform="translate(23357.0,0)" d="M305 -14Q234 -14 176.5 16.0Q119 46 85.5 103.0Q52 160 52 240V253Q52 333 85.5 389.5Q119 446 176.5 476.5Q234 507 305 507Q376 507 426.0 481.0Q476 455 506.5 412.0Q537 369 546 317L446 296Q441 329 425.0 356.0Q409 383 380.0 399.0Q351 415 307 415Q264 415 229.5 395.5Q195 376 175.0 339.5Q155 303 155 251V242Q155 190 175.0 153.0Q195 116 229.5 97.0Q264 78 307 78Q372 78 406.0 111.5Q440 145 449 197L549 174Q537 123 506.5 80.0Q476 37 426.0 11.5Q376 -14 305 -14Z"/><path transform="translate(23971.2,0)" d="M76 0V700H179V301H195L389 493H526L277 254L534 0H398L195 205H179V0Z"/><path transform="translate(24544.4,0)" d="M302 -14Q227 -14 171.0 17.5Q115 49 83.5 106.5Q52 164 52 240V252Q52 329 83.0 386.5Q114 444 169.5 475.5Q225 507 298 507Q369 507 422.5 475.5Q476 444 506.0 388.0Q536 332 536 257V218H157Q159 153 200.5 114.5Q242 76 304 76Q362 76 391.5 102.0Q421 128 437 162L522 118Q508 90 481.5 59.0Q455 28 412.0 7.0Q369 -14 302 -14ZM158 297H431Q427 353 391.0 384.5Q355 416 297 416Q239 416 202.5 384.5Q166 353 158 297Z"/><path transform="translate(25150.7,0)" d="M76 0V493H177V419H193Q207 449 243.0 475.0Q279 501 350 501Q406 501 449.5 476.0Q493 451 518.0 405.5Q543 360 543 296V0H440V288Q440 352 408.0 382.5Q376 413 320 413Q256 413 217.5 371.0Q179 329 179 249V0Z"/><path transform="translate(25787.9,0)" d="M280 -14Q219 -14 167.0 16.0Q115 46 83.5 102.5Q52 159 52 239V254Q52 333 83.0 390.0Q114 447 166.0 477.0Q218 507 280 507Q328 507 360.5 495.0Q393 483 414.0 464.5Q435 446 446 426H462V700H565V0H464V70H448Q429 38 390.5 12.0Q352 -14 280 -14ZM309 76Q376 76 419.5 119.0Q463 162 463 242V251Q463 330 420.0 373.0Q377 416 309 416Q243 416 199.5 373.0Q156 330 156 251V242Q156 162 199.5 119.0Q243 76 309 76Z"/></g><circle cx="500" cy="306" r="24" fill="url(#mark)" filter="url(#soft)"/><circle cx="500" cy="306" r="8.5" fill="none" stroke="#7FB4FF" stroke-width="1.6" opacity="0.8"/><circle cx="500" cy="306" r="6" fill="#34D399"/><circle cx="500" cy="306" r="2.4" fill="#04120C"/></svg>
