<svg xmlns="http://www.w3.org/2000/svg" viewBox="0 0 1200 150" width="1200" height="150" role="img" aria-label="footer"><defs>
  <linearGradient id="fbg" x1="0" y1="0" x2="1" y2="1">
    <stop offset="0" stop-color="#0A0E1A"/><stop offset="1" stop-color="#0E1730"/>
  </linearGradient>
  <linearGradient id="frail" x1="0" y1="0" x2="1" y2="0">
    <stop offset="0" stop-color="#7FB4FF" stop-opacity="0"/>
    <stop offset="0.5" stop-color="#4C93F5" stop-opacity="0.9"/>
    <stop offset="1" stop-color="#34D399" stop-opacity="0"/>
  </linearGradient>
  <radialGradient id="fnode" cx="0.5" cy="0.5" r="0.5">
    <stop offset="0" stop-color="#34D399" stop-opacity="0.6"/>
    <stop offset="1" stop-color="#34D399" stop-opacity="0"/>
  </radialGradient>
  <filter id="fsoft" x="-60%" y="-60%" width="220%" height="220%"><feGaussianBlur stdDeviation="5"/></filter>
</defs><style>
@keyframes fxFade { from {opacity:0} to {opacity:1} }
@keyframes fxMove { 0%{offset-distance:0%;opacity:0} 14%{opacity:1} 60%{offset-distance:100%;opacity:1} 66%{offset-distance:100%;opacity:0} 100%{offset-distance:100%;opacity:0} }
@keyframes fxPulse { 0%{transform:scale(.6);opacity:.7} 100%{transform:scale(2.6);opacity:0} }
.fx-panel { animation: fxFade .9s ease both; }
.fx-flow { display:none; }
@supports (offset-path: path('M0 0')) { .fx-flow { display:block; offset-path: path('M 90 62 L 600 62'); offset-rotate:0deg; animation: fxMove 3s ease-in-out infinite; } }
.fx-ring { transform-box: fill-box; transform-origin: center; animation: fxPulse 2.4s ease-out infinite; }
@media (prefers-reduced-motion: reduce) {
  .fx-panel,.fx-ring { animation: none; }
  .fx-flow { display: none; } .fx-ring { opacity: 0; }
}
</style><g class="fx-panel"><rect width="1200" height="150" rx="16" fill="url(#fbg)"/><rect x="0.75" y="0.75" width="1198.5" height="148.5" rx="16" fill="none" stroke="#24314F" stroke-width="1.5"/><line x1="90" y1="62" x2="1110" y2="62" stroke="url(#frail)" stroke-width="2"/><circle cx="150" cy="62" r="3.4" fill="#0E1730" stroke="#3C5488" stroke-width="1.5"/><circle cx="268" cy="62" r="3.4" fill="#0E1730" stroke="#3C5488" stroke-width="1.5"/><circle cx="386" cy="62" r="3.4" fill="#0E1730" stroke="#3C5488" stroke-width="1.5"/><circle cx="504" cy="62" r="3.4" fill="#0E1730" stroke="#3C5488" stroke-width="1.5"/><circle cx="622" cy="62" r="3.4" fill="#0E1730" stroke="#3C5488" stroke-width="1.5"/><circle cx="740" cy="62" r="3.4" fill="#0E1730" stroke="#3C5488" stroke-width="1.5"/><circle cx="858" cy="62" r="3.4" fill="#0E1730" stroke="#3C5488" stroke-width="1.5"/><circle cx="976" cy="62" r="3.4" fill="#0E1730" stroke="#3C5488" stroke-width="1.5"/><circle cx="600" cy="62" r="22" fill="url(#fnode)" filter="url(#fsoft)"/><circle class="fx-ring" cx="600" cy="62" r="9" fill="none" stroke="#34D399" stroke-width="1.4" opacity="0.6"/><circle cx="600" cy="62" r="6.5" fill="#34D399"/><circle cx="600" cy="62" r="2.6" fill="#04120C"/><g transform="translate(468.0,104.00) scale(0.01700,-0.01700)" fill="#9FB6DE"><path transform="translate(0.0,0)" d="M73 0V700H181V98H518V0Z"/><path transform="translate(555.8,0)" d="M302 -14Q227 -14 171.0 17.5Q115 49 83.5 106.5Q52 164 52 240V252Q52 329 83.0 386.5Q114 444 169.5 475.5Q225 507 298 507Q369 507 422.5 475.5Q476 444 506.0 388.0Q536 332 536 257V218H157Q159 153 200.5 114.5Q242 76 304 76Q362 76 391.5 102.0Q421 128 437 162L522 118Q508 90 481.5 59.0Q455 28 412.0 7.0Q369 -14 302 -14ZM158 297H431Q427 353 391.0 384.5Q355 416 297 416Q239 416 202.5 384.5Q166 353 158 297Z"/><path transform="translate(1151.5,0)" d="M261 0Q216 0 189.5 27.0Q163 54 163 99V406H27V493H163V656H266V493H413V406H266V117Q266 87 294 87H397V0Z"/><path transform="translate(1621.3,0)" d="M77 430V489H111Q152 489 152 530V562H137Q102 562 79.0 583.0Q56 604 56 636Q56 671 79.0 692.5Q102 714 137 714Q172 714 194.5 691.5Q217 669 217 633V529Q217 430 118 430Z"/><path transform="translate(1906.1,0)" d="M278 -14Q184 -14 122.0 28.0Q60 70 46 155L142 178Q150 137 169.0 113.0Q188 89 216.5 79.0Q245 69 278 69Q327 69 353.5 88.0Q380 107 380 137Q380 167 355.0 181.0Q330 195 281 204L247 210Q197 219 156.0 236.0Q115 253 91.0 283.0Q67 313 67 360Q67 430 119.0 468.5Q171 507 257 507Q340 507 393.5 469.5Q447 432 463 368L367 341Q358 386 329.0 404.5Q300 423 257 423Q215 423 191.0 407.5Q167 392 167 364Q167 334 190.5 320.0Q214 306 254 299L289 293Q342 284 386.0 268.0Q430 252 455.5 222.0Q481 192 481 142Q481 68 426.0 27.0Q371 -14 278 -14Z"/><path transform="translate(2709.6,0)" d="M361 -14Q289 -14 250.5 12.0Q212 38 193 70H177V0H76V700H179V426H195Q207 446 227.0 464.5Q247 483 280.0 495.0Q313 507 361 507Q423 507 475.0 477.0Q527 447 558.0 390.0Q589 333 589 254V239Q589 159 557.5 102.5Q526 46 474.5 16.0Q423 -14 361 -14ZM331 76Q398 76 441.5 119.0Q485 162 485 242V251Q485 330 442.0 373.0Q399 416 331 416Q265 416 221.5 373.0Q178 330 178 251V242Q178 162 221.5 119.0Q265 76 331 76Z"/><path transform="translate(3362.4,0)" d="M265 -9Q209 -9 165.0 16.0Q121 41 96.0 87.0Q71 133 71 197V493H174V204Q174 140 206.0 109.5Q238 79 295 79Q358 79 396.5 121.5Q435 164 435 244V493H538V0H437V74H421Q407 44 371.0 17.5Q335 -9 265 -9Z"/><path transform="translate(3988.1,0)" d="M76 0V493H179V0ZM128 560Q98 560 77.5 579.5Q57 599 57 630Q57 661 77.5 680.5Q98 700 128 700Q159 700 179.0 680.5Q199 661 199 630Q199 599 179.0 579.5Q159 560 128 560Z"/><path transform="translate(4255.9,0)" d="M76 0V700H179V0Z"/><path transform="translate(4523.6,0)" d="M280 -14Q219 -14 167.0 16.0Q115 46 83.5 102.5Q52 159 52 239V254Q52 333 83.0 390.0Q114 447 166.0 477.0Q218 507 280 507Q328 507 360.5 495.0Q393 483 414.0 464.5Q435 446 446 426H462V700H565V0H464V70H448Q429 38 390.5 12.0Q352 -14 280 -14ZM309 76Q376 76 419.5 119.0Q463 162 463 242V251Q463 330 420.0 373.0Q377 416 309 416Q243 416 199.5 373.0Q156 330 156 251V242Q156 162 199.5 119.0Q243 76 309 76Z"/><path transform="translate(5443.2,0)" d="M278 -14Q184 -14 122.0 28.0Q60 70 46 155L142 178Q150 137 169.0 113.0Q188 89 216.5 79.0Q245 69 278 69Q327 69 353.5 88.0Q380 107 380 137Q380 167 355.0 181.0Q330 195 281 204L247 210Q197 219 156.0 236.0Q115 253 91.0 283.0Q67 313 67 360Q67 430 119.0 468.5Q171 507 257 507Q340 507 393.5 469.5Q447 432 463 368L367 341Q358 386 329.0 404.5Q300 423 257 423Q215 423 191.0 407.5Q167 392 167 364Q167 334 190.5 320.0Q214 306 254 299L289 293Q342 284 386.0 268.0Q430 252 455.5 222.0Q481 192 481 142Q481 68 426.0 27.0Q371 -14 278 -14Z"/><path transform="translate(5979.9,0)" d="M133 -200V-110H408Q436 -110 436 -80V72H420Q411 52 392.5 33.5Q374 15 343.0 3.0Q312 -9 265 -9Q209 -9 165.0 16.0Q121 41 96.0 87.0Q71 133 71 196V493H174V204Q174 140 206.0 109.5Q238 79 295 79Q358 79 396.5 121.0Q435 163 435 243V493H538V-101Q538 -146 511.5 -173.0Q485 -200 439 -200Z"/><path transform="translate(6605.7,0)" d="M278 -14Q184 -14 122.0 28.0Q60 70 46 155L142 178Q150 137 169.0 113.0Q188 89 216.5 79.0Q245 69 278 69Q327 69 353.5 88.0Q380 107 380 137Q380 167 355.0 181.0Q330 195 281 204L247 210Q197 219 156.0 236.0Q115 253 91.0 283.0Q67 313 67 360Q67 430 119.0 468.5Q171 507 257 507Q340 507 393.5 469.5Q447 432 463 368L367 341Q358 386 329.0 404.5Q300 423 257 423Q215 423 191.0 407.5Q167 392 167 364Q167 334 190.5 320.0Q214 306 254 299L289 293Q342 284 386.0 268.0Q430 252 455.5 222.0Q481 192 481 142Q481 68 426.0 27.0Q371 -14 278 -14Z"/><path transform="translate(7142.5,0)" d="M261 0Q216 0 189.5 27.0Q163 54 163 99V406H27V493H163V656H266V493H413V406H266V117Q266 87 294 87H397V0Z"/><path transform="translate(7612.2,0)" d="M302 -14Q227 -14 171.0 17.5Q115 49 83.5 106.5Q52 164 52 240V252Q52 329 83.0 386.5Q114 444 169.5 475.5Q225 507 298 507Q369 507 422.5 475.5Q476 444 506.0 388.0Q536 332 536 257V218H157Q159 153 200.5 114.5Q242 76 304 76Q362 76 391.5 102.0Q421 128 437 162L522 118Q508 90 481.5 59.0Q455 28 412.0 7.0Q369 -14 302 -14ZM158 297H431Q427 353 391.0 384.5Q355 416 297 416Q239 416 202.5 384.5Q166 353 158 297Z"/><path transform="translate(8208.0,0)" d="M76 0V493H177V435H193Q207 461 238.0 481.0Q269 501 322 501Q377 501 410.5 478.5Q444 456 461 421H477Q494 455 526.5 478.0Q559 501 619 501Q667 501 704.0 481.5Q741 462 763.0 423.5Q785 385 785 328V0H682V320Q682 365 657.5 389.5Q633 414 588 414Q540 414 511.0 383.0Q482 352 482 294V0H379V320Q379 365 354.5 389.5Q330 414 285 414Q237 414 208.0 383.0Q179 352 179 294V0Z"/><path transform="translate(9076.8,0)" d="M278 -14Q184 -14 122.0 28.0Q60 70 46 155L142 178Q150 137 169.0 113.0Q188 89 216.5 79.0Q245 69 278 69Q327 69 353.5 88.0Q380 107 380 137Q380 167 355.0 181.0Q330 195 281 204L247 210Q197 219 156.0 236.0Q115 253 91.0 283.0Q67 313 67 360Q67 430 119.0 468.5Q171 507 257 507Q340 507 393.5 469.5Q447 432 463 368L367 341Q358 386 329.0 404.5Q300 423 257 423Q215 423 191.0 407.5Q167 392 167 364Q167 334 190.5 320.0Q214 306 254 299L289 293Q342 284 386.0 268.0Q430 252 455.5 222.0Q481 192 481 142Q481 68 426.0 27.0Q371 -14 278 -14Z"/><path transform="translate(9880.3,0)" d="M261 0Q216 0 189.5 27.0Q163 54 163 99V406H27V493H163V656H266V493H413V406H266V117Q266 87 294 87H397V0Z"/><path transform="translate(10350.1,0)" d="M76 0V700H179V423H195Q205 442 223.5 460.0Q242 478 272.5 489.5Q303 501 350 501Q406 501 449.5 476.0Q493 451 518.0 405.5Q543 360 543 296V0H440V288Q440 352 408.0 382.5Q376 413 320 413Q256 413 217.5 371.0Q179 329 179 249V0Z"/><path transform="translate(10976.8,0)" d="M229 -14Q176 -14 134.5 4.0Q93 22 68.5 57.0Q44 92 44 142Q44 193 68.5 226.5Q93 260 135.5 277.0Q178 294 232 294H382V326Q382 369 356.0 395.0Q330 421 276 421Q223 421 195.0 396.0Q167 371 158 331L62 362Q74 402 100.5 434.5Q127 467 171.0 487.0Q215 507 277 507Q373 507 428.0 458.0Q483 409 483 319V116Q483 86 511 86H553V0H476Q441 0 419.0 18.0Q397 36 397 67V70H382Q374 55 358.0 35.0Q342 15 311.0 0.5Q280 -14 229 -14ZM244 71Q306 71 344.0 106.5Q382 142 382 204V214H238Q197 214 172.0 196.5Q147 179 147 145Q147 111 173.0 91.0Q199 71 244 71Z"/><path transform="translate(11565.6,0)" d="M261 0Q216 0 189.5 27.0Q163 54 163 99V406H27V493H163V656H266V493H413V406H266V117Q266 87 294 87H397V0Z"/><path transform="translate(12302.1,0)" d="M278 -14Q184 -14 122.0 28.0Q60 70 46 155L142 178Q150 137 169.0 113.0Q188 89 216.5 79.0Q245 69 278 69Q327 69 353.5 88.0Q380 107 380 137Q380 167 355.0 181.0Q330 195 281 204L247 210Q197 219 156.0 236.0Q115 253 91.0 283.0Q67 313 67 360Q67 430 119.0 468.5Q171 507 257 507Q340 507 393.5 469.5Q447 432 463 368L367 341Q358 386 329.0 404.5Q300 423 257 423Q215 423 191.0 407.5Q167 392 167 364Q167 334 190.5 320.0Q214 306 254 299L289 293Q342 284 386.0 268.0Q430 252 455.5 222.0Q481 192 481 142Q481 68 426.0 27.0Q371 -14 278 -14Z"/><path transform="translate(12838.9,0)" d="M302 -14Q227 -14 171.0 17.5Q115 49 83.5 106.5Q52 164 52 240V252Q52 329 83.0 386.5Q114 444 169.5 475.5Q225 507 298 507Q369 507 422.5 475.5Q476 444 506.0 388.0Q536 332 536 257V218H157Q159 153 200.5 114.5Q242 76 304 76Q362 76 391.5 102.0Q421 128 437 162L522 118Q508 90 481.5 59.0Q455 28 412.0 7.0Q369 -14 302 -14ZM158 297H431Q427 353 391.0 384.5Q355 416 297 416Q239 416 202.5 384.5Q166 353 158 297Z"/><path transform="translate(13434.6,0)" d="M261 0Q216 0 189.5 27.0Q163 54 163 99V406H27V493H163V656H266V493H413V406H266V117Q266 87 294 87H397V0Z"/><path transform="translate(13904.4,0)" d="M261 0Q216 0 189.5 27.0Q163 54 163 99V406H27V493H163V656H266V493H413V406H266V117Q266 87 294 87H397V0Z"/><path transform="translate(14374.2,0)" d="M76 0V700H179V0Z"/><path transform="translate(14641.9,0)" d="M302 -14Q227 -14 171.0 17.5Q115 49 83.5 106.5Q52 164 52 240V252Q52 329 83.0 386.5Q114 444 169.5 475.5Q225 507 298 507Q369 507 422.5 475.5Q476 444 506.0 388.0Q536 332 536 257V218H157Q159 153 200.5 114.5Q242 76 304 76Q362 76 391.5 102.0Q421 128 437 162L522 118Q508 90 481.5 59.0Q455 28 412.0 7.0Q369 -14 302 -14ZM158 297H431Q427 353 391.0 384.5Q355 416 297 416Q239 416 202.5 384.5Q166 353 158 297Z"/><path transform="translate(15237.7,0)" d="M138 -14Q103 -14 79.5 9.0Q56 32 56 68Q56 104 79.5 126.5Q103 149 138 149Q173 149 196.5 126.0Q220 103 220 68Q220 32 196.5 9.0Q173 -14 138 -14Z"/></g><g transform="translate(509.7,126.00) scale(0.01150,-0.01150)" fill="#5E82C4"><path transform="translate(0.0,0)" d="M430 96H423Q414 75 401.5 55.5Q389 36 370.5 21.0Q352 6 326.0 -3.0Q300 -12 266 -12Q157 -12 102.0 81.0Q47 174 47 344Q47 522 110.0 616.0Q173 710 303 710Q354 710 392.5 696.0Q431 682 458.0 658.5Q485 635 503.0 603.5Q521 572 532 537L431 503Q423 526 413.0 546.5Q403 567 388.5 583.0Q374 599 353.5 608.0Q333 617 304 617Q231 617 198.5 560.5Q166 504 166 408V297Q166 249 173.0 209.0Q180 169 196.5 140.5Q213 112 239.5 96.0Q266 80 304 80Q365 80 397.5 116.5Q430 153 430 210V273H295V357H532V0H430Z"/><path transform="translate(826.1,0)" d="M80 0V85H244V613H80V698H520V613H356V85H520V0Z"/><path transform="translate(1652.2,0)" d="M356 604V0H244V604H25V698H575V604Z"/><path transform="translate(2478.3,0)" d="M416 307H184V0H72V698H184V401H416V698H528V0H416Z"/><path transform="translate(3304.3,0)" d="M181 698V269Q181 226 183.5 191.0Q186 156 198.0 131.5Q210 107 234.0 94.0Q258 81 300 81Q342 81 366.0 94.0Q390 107 402.0 131.5Q414 156 416.5 191.0Q419 226 419 269V698H531V289Q531 214 522.5 157.5Q514 101 489.0 63.5Q464 26 418.5 7.0Q373 -12 300 -12Q227 -12 181.5 7.0Q136 26 111.0 63.5Q86 101 77.5 157.5Q69 214 69 289V698Z"/><path transform="translate(4130.4,0)" d="M83 698H324Q419 698 471.5 649.0Q524 600 524 515Q524 454 494.0 418.0Q464 382 413 367V362Q474 348 511.0 308.5Q548 269 548 197Q548 154 534.0 118.0Q520 82 494.0 55.5Q468 29 431.5 14.5Q395 0 351 0H83ZM317 86Q373 86 403.0 109.0Q433 132 433 183V219Q433 270 403.0 293.0Q373 316 317 316H193V86ZM301 398Q354 398 381.5 418.5Q409 439 409 487V523Q409 571 381.5 591.5Q354 612 301 612H193V398Z"/><path transform="translate(4956.5,0)" d="M300 -10Q252 -10 232.5 10.0Q213 30 213 59V85Q213 114 232.5 134.0Q252 154 300 154Q348 154 367.5 134.0Q387 114 387 85V59Q387 30 367.5 10.0Q348 -10 300 -10Z"/><path transform="translate(5782.6,0)" d="M320 -12Q187 -12 122.5 82.0Q58 176 58 349Q58 522 122.5 616.0Q187 710 320 710Q371 710 408.5 696.5Q446 683 473.0 659.5Q500 636 518.5 604.5Q537 573 549 537L448 503Q440 527 430.0 548.0Q420 569 405.0 584.0Q390 599 369.5 608.0Q349 617 319 617Q245 617 211.0 560.5Q177 504 177 408V290Q177 194 211.0 137.5Q245 81 319 81Q349 81 369.5 90.0Q390 99 405.0 114.0Q420 129 430.0 150.0Q440 171 448 195L549 161Q537 125 518.5 93.5Q500 62 473.0 38.5Q446 15 408.5 1.5Q371 -12 320 -12Z"/><path transform="translate(6608.7,0)" d="M300 -12Q234 -12 185.5 12.5Q137 37 105.5 83.0Q74 129 59.0 196.0Q44 263 44 349Q44 434 59.0 501.5Q74 569 105.5 615.0Q137 661 185.5 685.5Q234 710 300 710Q366 710 414.5 685.5Q463 661 494.5 615.0Q526 569 541.0 501.5Q556 434 556 349Q556 263 541.0 196.0Q526 129 494.5 83.0Q463 37 414.5 12.5Q366 -12 300 -12ZM300 81Q375 81 406.0 137.5Q437 194 437 291V408Q437 504 406.0 560.5Q375 617 300 617Q225 617 194.0 560.5Q163 504 163 408V290Q163 194 194.0 137.5Q225 81 300 81Z"/><path transform="translate(7434.8,0)" d="M445 334 448 544H440L300 185L160 544H152L155 334V0H56V698H193L300 421H307L415 698H544V0H445Z"/><path transform="translate(8260.9,0)" d="M83 -138 420 760H517L180 -138Z"/><path transform="translate(9087.0,0)" d="M294 -12Q203 -12 141.0 20.0Q79 52 39 105L111 174Q151 126 196.0 103.5Q241 81 298 81Q364 81 399.5 111.0Q435 141 435 197Q435 242 409.0 266.5Q383 291 320 302L244 314Q194 322 160.0 340.5Q126 359 105.0 384.5Q84 410 74.5 441.5Q65 473 65 508Q65 607 129.0 658.5Q193 710 305 710Q388 710 446.5 683.5Q505 657 541 609L471 539Q442 574 402.5 595.5Q363 617 305 617Q243 617 210.5 590.5Q178 564 178 513Q178 470 203.5 445.5Q229 421 294 410L368 397Q462 380 505.0 328.5Q548 277 548 203Q548 155 531.5 115.0Q515 75 482.5 47.0Q450 19 402.5 3.5Q355 -12 294 -12Z"/><path transform="translate(9913.0,0)" d="M75 0 25 698H123L148 292L159 113H167L246 529H357L436 113H444L455 292L481 698H575L525 0H375L304 404H296L225 0Z"/><path transform="translate(10739.1,0)" d="M86 0V698H523V604H198V401H511V307H198V94H523V0Z"/><path transform="translate(11565.2,0)" d="M149 250V359H451V250Z"/><path transform="translate(12391.3,0)" d="M84 0V698H345Q445 698 497.5 642.0Q550 586 550 488Q550 390 497.5 334.0Q445 278 345 278H196V0ZM196 371H328Q432 371 432 467V510Q432 605 328 605H196Z"/><path transform="translate(13217.4,0)" d="M462 0 409 186H187L134 0H20L224 698H377L581 0ZM302 585H294L208 279H388Z"/><path transform="translate(14043.5,0)" d="M181 698V269Q181 226 183.5 191.0Q186 156 198.0 131.5Q210 107 234.0 94.0Q258 81 300 81Q342 81 366.0 94.0Q390 107 402.0 131.5Q414 156 416.5 191.0Q419 226 419 269V698H531V289Q531 214 522.5 157.5Q514 101 489.0 63.5Q464 26 418.5 7.0Q373 -12 300 -12Q227 -12 181.5 7.0Q136 26 111.0 63.5Q86 101 77.5 157.5Q69 214 69 289V698Z"/><path transform="translate(14869.6,0)" d="M108 0V698H220V94H538V0Z"/></g><g class="fx-flow"><circle r="6" fill="#34D399" opacity="0.5"/><circle r="2.8" fill="#EAFBF3"/></g></g></svg>
