<svg xmlns="http://www.w3.org/2000/svg" xmlns:xlink="http://www.w3.org/1999/xlink" viewBox="0 0 1200 340" width="1200" height="340" role="img" aria-label="Tech stack — Languages: Java, Kotlin, JavaScript, PHP, Python, HTML5, CSS3; Backend: Spring, Quarkus, Node.js, Laravel; Frontend: React, Tailwind CSS, Bootstrap; Data: PostgreSQL, MySQL, MongoDB, Redis; Cloud and DevOps: Google Cloud, Docker, Kubernetes, Git, GitHub, Postman">
<defs>
  <linearGradient id="sbg" x1="0" y1="0" x2="1" y2="1">
    <stop offset="0" stop-color="#0A0E1A"/><stop offset="0.55" stop-color="#0B1120"/><stop offset="1" stop-color="#0E1730"/>
  </linearGradient>
  <linearGradient id="sshine" x1="0" y1="0" x2="1" y2="0">
    <stop offset="0" stop-color="#EAF6FF" stop-opacity="0"/><stop offset="0.5" stop-color="#EAF6FF" stop-opacity="0.08"/><stop offset="1" stop-color="#EAF6FF" stop-opacity="0"/>
  </linearGradient>
  <clipPath id="spanel"><rect x="8" y="8" width="1184" height="324" rx="16"/></clipPath>
</defs>
<style>
@keyframes sFade { from{opacity:0} to{opacity:1} }
@keyframes sPop  { from{opacity:0; transform:translateY(8px) scale(.82)} to{opacity:1; transform:translateY(0) scale(1)} }
@keyframes sShine{ 0%{transform:translateX(-400px)} 55%{transform:translateX(1560px)} 100%{transform:translateX(1560px)} }
.s-panel{ animation: sFade .8s ease both; }
.s-lbl{ opacity:0; animation: sFade .5s ease both; }
.s-chip{ transform-box: fill-box; transform-origin: center; opacity:0; animation: sPop .5s cubic-bezier(.2,.7,.2,1) both; }
.s-shine{ animation: sShine 6s ease-in-out 1.1s infinite; }
@media (prefers-reduced-motion: reduce){
  .s-panel,.s-lbl,.s-chip{ opacity:1; animation:none; transform:none; }
  .s-shine{ display:none; }
}
</style>
<g class="s-panel">
  <rect x="8" y="8" width="1184" height="324" rx="16" fill="url(#sbg)"/>
  <rect x="8.75" y="8.75" width="1182.5" height="322.5" rx="16" fill="none" stroke="#24314F" stroke-width="1.5"/>
  <text x="32" y="42" font-family="ui-monospace,'Courier New',monospace" font-size="13" letter-spacing="1" fill="#3C5488">// stack.config</text>
  <line x1="228" y1="60" x2="228" y2="316" stroke="#1B2843" stroke-width="1.2"/>
  <text x="212" y="83" text-anchor="end" font-family="ui-monospace,'Courier New',monospace" font-size="13" letter-spacing="1" fill="#38BDF8" class="s-lbl" style="animation-delay:0.15s">LANGUAGES</text>
  <g transform="translate(244,58)"><g class="s-chip" style="animation-delay:0.40s"><g transform="scale(0.3125)"><path fill="#0074BD" d="M47.617 98.12s-4.767 2.774 3.397 3.71c9.892 1.13 14.947.968 25.845-1.092 0 0 2.871 1.795 6.873 3.351-24.439 10.47-55.308-.607-36.115-5.969zm-2.988-13.665s-5.348 3.959 2.823 4.805c10.567 1.091 18.91 1.18 33.354-1.6 0 0 1.993 2.025 5.132 3.131-29.542 8.64-62.446.68-41.309-6.336z"/><path fill="#EA2D2E" d="M69.802 61.271c6.025 6.935-1.58 13.17-1.58 13.17s15.289-7.891 8.269-17.777c-6.559-9.215-11.587-13.792 15.635-29.58 0 .001-42.731 10.67-22.324 34.187z"/><path fill="#0074BD" d="M102.123 108.229s3.529 2.91-3.888 5.159c-14.102 4.272-58.706 5.56-71.094.171-4.451-1.938 3.899-4.625 6.526-5.192 2.739-.593 4.303-.485 4.303-.485-4.953-3.487-32.013 6.85-13.743 9.815 49.821 8.076 90.817-3.637 77.896-9.468zM49.912 70.294s-22.686 5.389-8.033 7.348c6.188.828 18.518.638 30.011-.326 9.39-.789 18.813-2.474 18.813-2.474s-3.308 1.419-5.704 3.053c-23.042 6.061-67.544 3.238-54.731-2.958 10.832-5.239 19.644-4.643 19.644-4.643zm40.697 22.747c23.421-12.167 12.591-23.86 5.032-22.285-1.848.385-2.677.72-2.677.72s.688-1.079 2-1.543c14.953-5.255 26.451 15.503-4.823 23.725 0-.002.359-.327.468-.617z"/><path fill="#EA2D2E" d="M76.491 1.587S89.459 14.563 64.188 34.51c-20.266 16.006-4.621 25.13-.007 35.559-11.831-10.673-20.509-20.07-14.688-28.815C58.041 28.42 81.722 22.195 76.491 1.587z"/><path fill="#0074BD" d="M52.214 126.021c22.476 1.437 57-.8 57.817-11.436 0 0-1.571 4.032-18.577 7.231-19.186 3.612-42.854 3.191-56.887.874 0 .001 2.875 2.381 17.647 3.331z"/></g></g></g>
  <g transform="translate(302,58)"><g class="s-chip" style="animation-delay:0.45s"><g transform="scale(0.3125)"><defs>
    <linearGradient id="i1_a" x1="500.003" x2="-.097" y1="579.106" y2="1079.206" gradientTransform="translate(15.534 -96.774) scale(.1939)" gradientUnits="userSpaceOnUse">
      <stop offset=".003" stop-color="#e44857"/>
      <stop offset=".469" stop-color="#c711e1"/>
      <stop offset="1" stop-color="#7f52ff"/>
    </linearGradient>
  </defs>
  <path fill="url(#i1_a)" d="M112.484 112.484H15.516V15.516h96.968L64 64Zm0 0"/></g></g></g>
  <g transform="translate(360,58)"><g class="s-chip" style="animation-delay:0.50s"><g transform="scale(0.3125)"><path fill="#F0DB4F" d="M1.408 1.408h125.184v125.185H1.408z"/><path fill="#323330" d="M116.347 96.736c-.917-5.711-4.641-10.508-15.672-14.981-3.832-1.761-8.104-3.022-9.377-5.926-.452-1.69-.512-2.642-.226-3.665.821-3.32 4.784-4.355 7.925-3.403 2.023.678 3.938 2.237 5.093 4.724 5.402-3.498 5.391-3.475 9.163-5.879-1.381-2.141-2.118-3.129-3.022-4.045-3.249-3.629-7.676-5.498-14.756-5.355l-3.688.477c-3.534.893-6.902 2.748-8.877 5.235-5.926 6.724-4.236 18.492 2.975 23.335 7.104 5.332 17.54 6.545 18.873 11.531 1.297 6.104-4.486 8.08-10.234 7.378-4.236-.881-6.592-3.034-9.139-6.949-4.688 2.713-4.688 2.713-9.508 5.485 1.143 2.499 2.344 3.63 4.26 5.795 9.068 9.198 31.76 8.746 35.83-5.176.165-.478 1.261-3.666.38-8.581zM69.462 58.943H57.753l-.048 30.272c0 6.438.333 12.34-.714 14.149-1.713 3.558-6.152 3.117-8.175 2.427-2.059-1.012-3.106-2.451-4.319-4.485-.333-.584-.583-1.036-.667-1.071l-9.52 5.83c1.583 3.249 3.915 6.069 6.902 7.901 4.462 2.678 10.459 3.499 16.731 2.059 4.082-1.189 7.604-3.652 9.448-7.401 2.666-4.915 2.094-10.864 2.07-17.444.06-10.735.001-21.468.001-32.237z"/></g></g></g>
  <g transform="translate(418,58)"><g class="s-chip" style="animation-delay:0.55s"><g transform="scale(0.3125)"><path fill="url(#i3_a)" d="M0 64c0 18.593 28.654 33.667 64 33.667 35.346 0 64-15.074 64-33.667 0-18.593-28.655-33.667-64-33.667C28.654 30.333 0 45.407 0 64Z"/><path fill="#777bb3" d="M64 95.167c33.965 0 61.5-13.955 61.5-31.167 0-17.214-27.535-31.167-61.5-31.167S2.5 46.786 2.5 64c0 17.212 27.535 31.167 61.5 31.167Z"/><path d="M34.772 67.864c2.793 0 4.877-.515 6.196-1.53 1.306-1.006 2.207-2.747 2.68-5.175.44-2.27.272-3.854-.5-4.71-.788-.874-2.493-1.317-5.067-1.317h-4.464l-2.473 12.732zM20.173 83.547a.694.694 0 0 1-.68-.828l6.557-33.738a.695.695 0 0 1 .68-.561h14.134c4.442 0 7.748 1.206 9.827 3.585 2.088 2.39 2.734 5.734 1.917 9.935-.333 1.711-.905 3.3-1.7 4.724a15.818 15.818 0 0 1-3.128 3.92c-1.531 1.432-3.264 2.472-5.147 3.083-1.852.604-4.232.91-7.07.91h-5.724l-1.634 8.408a.695.695 0 0 1-.682.562z"/><path fill="#fff" d="M34.19 55.826h3.891c3.107 0 4.186.682 4.553 1.089.607.674.723 2.097.331 4.112-.439 2.257-1.253 3.858-2.42 4.756-1.194.92-3.138 1.386-5.773 1.386h-2.786l2.205-11.342zm6.674-8.1H26.731a1.39 1.39 0 0 0-1.364 1.123L18.81 82.588a1.39 1.39 0 0 0 1.363 1.653h7.35a1.39 1.39 0 0 0 1.363-1.124l1.525-7.846h5.151c2.912 0 5.364-.318 7.287-.944 1.977-.642 3.796-1.731 5.406-3.237a16.522 16.522 0 0 0 3.259-4.087c.831-1.487 1.429-3.147 1.775-4.931.86-4.423.161-7.964-2.076-10.524-2.216-2.537-5.698-3.823-10.349-3.823zM30.301 68.557h4.471c2.963 0 5.17-.557 6.62-1.675 1.451-1.116 2.428-2.98 2.938-5.591.485-2.508.264-4.277-.665-5.308-.931-1.03-2.791-1.546-5.584-1.546h-5.036l-2.743 14.12m10.563-19.445c4.252 0 7.353 1.117 9.303 3.348 1.95 2.232 2.536 5.347 1.76 9.346-.322 1.648-.863 3.154-1.625 4.518-.764 1.366-1.76 2.614-2.991 3.747-1.468 1.373-3.097 2.352-4.892 2.935-1.794.584-4.08.875-6.857.875h-6.296l-1.743 8.97h-7.35l6.558-33.739h14.133"/><path d="M69.459 74.577a.694.694 0 0 1-.682-.827l2.9-14.928c.277-1.42.209-2.438-.19-2.87-.245-.263-.979-.704-3.15-.704h-5.256l-3.646 18.768a.695.695 0 0 1-.683.56h-7.29a.695.695 0 0 1-.683-.826l6.558-33.739a.695.695 0 0 1 .682-.561h7.29a.695.695 0 0 1 .683.826L64.41 48.42h5.653c4.307 0 7.227.758 8.928 2.321 1.733 1.593 2.275 4.14 1.608 7.573l-3.051 15.702a.695.695 0 0 1-.682.56h-7.407z"/><path fill="#fff" d="M65.31 38.755h-7.291a1.39 1.39 0 0 0-1.364 1.124l-6.557 33.738a1.39 1.39 0 0 0 1.363 1.654h7.291a1.39 1.39 0 0 0 1.364-1.124l3.537-18.205h4.682c2.168 0 2.624.463 2.641.484.132.14.305.795.019 2.264l-2.9 14.927a1.39 1.39 0 0 0 1.364 1.654h7.408a1.39 1.39 0 0 0 1.363-1.124l3.051-15.7c.715-3.686.103-6.45-1.82-8.217-1.836-1.686-4.91-2.505-9.398-2.505h-4.81l1.421-7.315a1.39 1.39 0 0 0-1.364-1.655zm0 1.39-1.743 8.968h6.496c4.087 0 6.907.714 8.457 2.14 1.553 1.426 2.017 3.735 1.398 6.93l-3.052 15.699h-7.407l2.901-14.928c.33-1.698.208-2.856-.365-3.474-.573-.617-1.793-.926-3.658-.926h-5.829l-3.756 19.327H51.46l6.558-33.739h7.292z"/><path d="M92.136 67.864c2.793 0 4.878-.515 6.198-1.53 1.304-1.006 2.206-2.747 2.679-5.175.44-2.27.273-3.854-.5-4.71-.788-.874-2.493-1.317-5.067-1.317h-4.463l-2.475 12.732zM77.54 83.547a.694.694 0 0 1-.682-.828l6.557-33.738a.695.695 0 0 1 .682-.561H98.23c4.442 0 7.748 1.206 9.826 3.585 2.089 2.39 2.734 5.734 1.917 9.935a15.878 15.878 0 0 1-1.699 4.724 15.838 15.838 0 0 1-3.128 3.92c-1.53 1.432-3.265 2.472-5.147 3.083-1.852.604-4.232.91-7.071.91h-5.723l-1.633 8.408a.695.695 0 0 1-.683.562z"/><path fill="#fff" d="M91.555 55.826h3.891c3.107 0 4.186.682 4.552 1.089.61.674.724 2.097.333 4.112-.44 2.257-1.254 3.858-2.421 4.756-1.195.92-3.139 1.386-5.773 1.386h-2.786l2.204-11.342zm6.674-8.1H84.096a1.39 1.39 0 0 0-1.363 1.123l-6.558 33.739a1.39 1.39 0 0 0 1.364 1.653h7.35a1.39 1.39 0 0 0 1.363-1.124l1.525-7.846h5.15c2.911 0 5.364-.318 7.286-.944 1.978-.642 3.797-1.731 5.408-3.238a16.52 16.52 0 0 0 3.258-4.086c.832-1.487 1.428-3.147 1.775-4.931.86-4.423.162-7.964-2.076-10.524-2.216-2.537-5.697-3.823-10.35-3.823zM87.666 68.557h4.47c2.964 0 5.17-.557 6.622-1.675 1.45-1.116 2.428-2.98 2.936-5.591.487-2.508.266-4.277-.665-5.308-.93-1.03-2.791-1.546-5.583-1.546h-5.035Zm10.563-19.445c4.251 0 7.354 1.117 9.303 3.348 1.95 2.232 2.537 5.347 1.759 9.346-.32 1.648-.862 3.154-1.624 4.518-.763 1.366-1.76 2.614-2.992 3.747-1.467 1.373-3.097 2.352-4.892 2.935-1.793.584-4.078.875-6.856.875h-6.295l-1.745 8.97h-7.35l6.558-33.739h14.133"/><defs><radialGradient id="i3_a" cx="0" cy="0" r="1" gradientTransform="matrix(84.04136 0 0 84.04136 38.426 42.169)" gradientUnits="userSpaceOnUse"><stop stop-color="#AEB2D5"/><stop offset=".3" stop-color="#AEB2D5"/><stop offset=".75" stop-color="#484C89"/><stop offset="1" stop-color="#484C89"/></radialGradient></defs></g></g></g>
  <g transform="translate(476,58)"><g class="s-chip" style="animation-delay:0.60s"><g transform="scale(0.3125)"><linearGradient id="i4_python-original-a" gradientUnits="userSpaceOnUse" x1="70.252" y1="1237.476" x2="170.659" y2="1151.089" gradientTransform="matrix(.563 0 0 -.568 -29.215 707.817)"><stop offset="0" stop-color="#5A9FD4"/><stop offset="1" stop-color="#306998"/></linearGradient><linearGradient id="i4_python-original-b" gradientUnits="userSpaceOnUse" x1="209.474" y1="1098.811" x2="173.62" y2="1149.537" gradientTransform="matrix(.563 0 0 -.568 -29.215 707.817)"><stop offset="0" stop-color="#FFD43B"/><stop offset="1" stop-color="#FFE873"/></linearGradient><path fill="url(#i4_python-original-a)" d="M63.391 1.988c-4.222.02-8.252.379-11.8 1.007-10.45 1.846-12.346 5.71-12.346 12.837v9.411h24.693v3.137H29.977c-7.176 0-13.46 4.313-15.426 12.521-2.268 9.405-2.368 15.275 0 25.096 1.755 7.311 5.947 12.519 13.124 12.519h8.491V67.234c0-8.151 7.051-15.34 15.426-15.34h24.665c6.866 0 12.346-5.654 12.346-12.548V15.833c0-6.693-5.646-11.72-12.346-12.837-4.244-.706-8.645-1.027-12.866-1.008zM50.037 9.557c2.55 0 4.634 2.117 4.634 4.721 0 2.593-2.083 4.69-4.634 4.69-2.56 0-4.633-2.097-4.633-4.69-.001-2.604 2.073-4.721 4.633-4.721z" transform="translate(0 10.26)"/><path fill="url(#i4_python-original-b)" d="M91.682 28.38v10.966c0 8.5-7.208 15.655-15.426 15.655H51.591c-6.756 0-12.346 5.783-12.346 12.549v23.515c0 6.691 5.818 10.628 12.346 12.547 7.816 2.297 15.312 2.713 24.665 0 6.216-1.801 12.346-5.423 12.346-12.547v-9.412H63.938v-3.138h37.012c7.176 0 9.852-5.005 12.348-12.519 2.578-7.735 2.467-15.174 0-25.096-1.774-7.145-5.161-12.521-12.348-12.521h-9.268zM77.809 87.927c2.561 0 4.634 2.097 4.634 4.692 0 2.602-2.074 4.719-4.634 4.719-2.55 0-4.633-2.117-4.633-4.719 0-2.595 2.083-4.692 4.633-4.692z" transform="translate(0 10.26)"/><radialGradient id="i4_python-original-c" cx="1825.678" cy="444.45" r="26.743" gradientTransform="matrix(0 -.24 -1.055 0 532.979 557.576)" gradientUnits="userSpaceOnUse"><stop offset="0" stop-color="#B8B8B8" stop-opacity=".498"/><stop offset="1" stop-color="#7F7F7F" stop-opacity="0"/></radialGradient><path opacity=".444" fill="url(#i4_python-original-c)" d="M97.309 119.597c0 3.543-14.816 6.416-33.091 6.416-18.276 0-33.092-2.873-33.092-6.416 0-3.544 14.815-6.417 33.092-6.417 18.275 0 33.091 2.872 33.091 6.417z"/></g></g></g>
  <g transform="translate(534,58)"><g class="s-chip" style="animation-delay:0.65s"><g transform="scale(0.3125)"><path fill="#E44D26" d="M19.037 113.876L9.032 1.661h109.936l-10.016 112.198-45.019 12.48z"/><path fill="#F16529" d="M64 116.8l36.378-10.086 8.559-95.878H64z"/><path fill="#EBEBEB" d="M64 52.455H45.788L44.53 38.361H64V24.599H29.489l.33 3.692 3.382 37.927H64zm0 35.743l-.061.017-15.327-4.14-.979-10.975H33.816l1.928 21.609 28.193 7.826.063-.017z"/><path fill="#fff" d="M63.952 52.455v13.763h16.947l-1.597 17.849-15.35 4.143v14.319l28.215-7.82.207-2.325 3.234-36.233.335-3.696h-3.708zm0-27.856v13.762h33.244l.276-3.092.628-6.978.329-3.692z"/></g></g></g>
  <g transform="translate(592,58)"><g class="s-chip" style="animation-delay:0.70s"><g transform="scale(0.3125)"><path fill="#1572B6" d="M18.814 114.123L8.76 1.352h110.48l-10.064 112.754-45.243 12.543-45.119-12.526z"/><path fill="#33A9DC" d="M64.001 117.062l36.559-10.136 8.601-96.354h-45.16v106.49z"/><path fill="#fff" d="M64.001 51.429h18.302l1.264-14.163H64.001V23.435h34.682l-.332 3.711-3.4 38.114h-30.95V51.429z"/><path fill="#EBEBEB" d="M64.083 87.349l-.061.018-15.403-4.159-.985-11.031H33.752l1.937 21.717 28.331 7.863.063-.018v-14.39z"/><path fill="#fff" d="M81.127 64.675l-1.666 18.522-15.426 4.164v14.39l28.354-7.858.208-2.337 2.406-26.881H81.127z"/><path fill="#EBEBEB" d="M64.048 23.435v13.831H30.64l-.277-3.108-.63-7.012-.331-3.711h34.646zm-.047 27.996v13.831H48.792l-.277-3.108-.631-7.012-.33-3.711h16.447z"/></g></g></g>
  <text x="212" y="137" text-anchor="end" font-family="ui-monospace,'Courier New',monospace" font-size="13" letter-spacing="1" fill="#34D399" class="s-lbl" style="animation-delay:0.27s">BACKEND</text>
  <g transform="translate(244,112)"><g class="s-chip" style="animation-delay:0.48s"><g transform="scale(0.3125)"><path d="M116.452 6.643a59.104 59.104 0 01-6.837 12.136A64.249 64.249 0 0064.205-.026C28.984-.026 0 28.982 0 64.242a64.316 64.316 0 0019.945 46.562l2.368 2.1a64.22 64.22 0 0041.358 15.122c33.487 0 61.637-26.24 64.021-59.683 1.751-16.371-3.051-37.077-11.24-61.7zM29.067 111.17a5.5 5.5 0 01-4.269 2.034c-3.018 0-5.487-2.484-5.487-5.502 0-3.017 2.485-5.501 5.487-5.501 1.25 0 2.485.433 3.452 1.234 2.351 1.9 2.718 5.384.817 7.735zm87.119-19.238c-15.843 21.122-49.68 14.003-71.376 15.02 0 0-3.852.234-7.721.867 0 0 1.45-.617 3.335-1.334 15.226-5.301 22.43-6.335 31.685-11.086 17.427-8.869 34.654-28.274 38.24-48.463-6.637 19.422-26.75 36.11-45.077 42.895-12.557 4.635-35.238 9.136-35.238 9.136l-.917-.484c-15.442-7.518-15.91-40.977 12.157-51.78 12.291-4.735 24.048-2.134 37.323-5.302 14.175-3.367 30.568-14.004 37.238-27.874 7.471 22.19 16.46 56.932.35 78.405z" fill="#77bc1f"/></g></g></g>
  <g transform="translate(302,112)"><g class="s-chip" style="animation-delay:0.53s"><g transform="scale(0.3125)"><path fill="#4695eb" d="M81.98 26.121 64 36.504l17.98 10.379Zm0 0" />
    <path fill="#ff004a" d="M46.02 26.121v20.766L64 36.504Zm0 0" />
    <path fill="#091313" d="M81.98 46.887 64 36.504 46.02 46.883 64 57.27Zm0 0" />
    <path fill="#4695eb" d="m27.059 58.965 17.98 10.379V48.582Zm0 0" />
    <path fill="#ff004a" d="m45.04 90.11 17.983-10.383L45.04 69.344Zm0 0" />
    <path fill="#091313" d="M45.04 48.582v20.762l17.983 10.383V58.965Zm0 0" />
    <path fill="#4695eb" d="M82.96 90.11V69.343L64.978 79.727Zm0 0" />
    <path fill="#ff004a" d="m100.941 58.965-17.98-10.383v20.762Zm0 0" />
    <path fill="#091313" d="M64.977 79.727 82.96 69.344V48.582L64.977 58.965Zm0 0" />
    <path fill="#4695eb" d="M103.023 5.602H24.977c-10.66 0-19.375 8.714-19.375 19.375v78.046c0 10.66 8.714 19.375 19.375 19.375h53.449L64 87.355l-10.469 22.13H24.977c-3.5 0-6.461-2.962-6.461-6.462V24.977c0-3.5 2.96-6.461 6.46-6.461h78.051c3.5 0 6.461 2.96 6.461 6.46v78.047c0 3.5-2.96 6.461-6.46 6.461H86.09l5.316 12.914h11.617c10.66 0 19.375-8.714 19.375-19.375V24.977c0-10.66-8.714-19.375-19.375-19.375Zm0 0" /></g></g></g>
  <g transform="translate(360,112)"><g class="s-chip" style="animation-delay:0.58s"><g transform="scale(0.3125)"><path fill="url(#i9_a)" d="M66.958.825a6.07 6.07 0 0 0-6.035 0L11.103 29.76c-1.895 1.072-2.96 3.095-2.96 5.24v57.988c0 2.143 1.183 4.167 2.958 5.24l49.82 28.934a6.07 6.07 0 0 0 6.036 0l49.82-28.935c1.894-1.072 2.958-3.096 2.958-5.24V35c0-2.144-1.183-4.167-2.958-5.24z"/><path fill="url(#i9_b)" d="M116.897 29.76 66.841.825A8.161 8.161 0 0 0 65.302.23L9.21 96.798a6.251 6.251 0 0 0 1.657 1.43l50.057 28.934c1.42.833 3.076 1.072 4.615.595l52.66-96.925a3.702 3.702 0 0 0-1.302-1.072z"/><path fill="url(#i9_c)" d="M116.898 98.225c1.42-.833 2.485-2.262 2.958-3.81L65.066.108c-1.42-.238-2.959-.119-4.26.715L11.104 29.639l53.606 98.355c.71-.12 1.54-.358 2.25-.715z"/><defs><linearGradient id="i9_a" x1="34.513" x2="27.157" y1="15.535" y2="30.448" gradientTransform="translate(-129.242 -73.715) scale(6.18523)" gradientUnits="userSpaceOnUse"><stop stop-color="#3F873F"/><stop offset=".33" stop-color="#3F8B3D"/><stop offset=".637" stop-color="#3E9638"/><stop offset=".934" stop-color="#3DA92E"/><stop offset="1" stop-color="#3DAE2B"/></linearGradient><linearGradient id="i9_b" x1="30.009" x2="50.533" y1="23.359" y2="8.288" gradientTransform="translate(-129.242 -73.715) scale(6.18523)" gradientUnits="userSpaceOnUse"><stop offset=".138" stop-color="#3F873F"/><stop offset=".402" stop-color="#52A044"/><stop offset=".713" stop-color="#64B749"/><stop offset=".908" stop-color="#6ABF4B"/></linearGradient><linearGradient id="i9_c" x1="21.917" x2="40.555" y1="22.261" y2="22.261" gradientTransform="translate(-129.242 -73.715) scale(6.18523)" gradientUnits="userSpaceOnUse"><stop offset=".092" stop-color="#6ABF4B"/><stop offset=".287" stop-color="#64B749"/><stop offset=".598" stop-color="#52A044"/><stop offset=".862" stop-color="#3F873F"/></linearGradient></defs></g></g></g>
  <g transform="translate(418,112)"><g class="s-chip" style="animation-delay:0.63s"><g transform="scale(0.3125)"><path fill="#f0513f" d="M27.271.11c-.2.078-5.82 3.28-12.487 7.112-8.078 4.644-12.227 7.09-12.449 7.32-.19.225-.34.482-.438.76-.167.564-.179 82.985-.01 83.578.061.23.26.568.44.754.436.46 48.664 28.19 49.25 28.324.272.065.577.054.88-.03.658-.165 48.76-27.834 49.188-28.286.175-.195.375-.532.44-.761.084-.273.115-4.58.115-13.655v-13.26l11.726-6.735c11.056-6.357 11.733-6.755 12.017-7.191l.29-.47V43.287c0-15.548.03-14.673-.585-15.235-.165-.146-5.798-3.433-12.53-7.31L100.89 13.71h-1.359l-11.963 6.87c-6.586 3.788-12.184 7.027-12.457 7.203-.272.18-.597.512-.73.753l-.242.417-.054 13.455-.048 13.46-9.879 5.69c-5.434 3.124-9.957 5.71-10.053 5.734-.175.049-.187-1.232-.187-25.966V15.293l-.26-.447c-.326-.545 1.136.324-13.544-8.114C27.803-.348 28.098-.2 27.27.11zm11.317 10.307c5.15 2.955 9.364 5.4 9.364 5.43 0 .031-4.516 2.641-10.035 5.813l-10.041 5.765-10.023-5.764c-5.507-3.173-10.02-5.783-10.02-5.814 0-.03 4.505-2.64 10.013-5.805l9.999-5.752.69.376c3.357 1.907 6.708 3.824 10.053 5.751zm71.668 13.261c5.422 3.122 9.908 5.702 9.95 5.744.114.103-19.774 11.535-20.046 11.523-.272-.008-19.915-11.335-19.907-11.473.01-.157 19.773-11.527 19.973-11.496.091.022 4.607 2.59 10.03 5.702zM16.3 25.328l9.558 5.503.055 27.247.05 27.252.233.368c.122.194.352.459.52.581.158.115 5.477 3.146 11.818 6.724l11.52 6.506v11.527c0 6.326-.043 11.516-.097 11.516-.041 0-10-5.699-22.124-12.676L5.793 97.201l-.03-38.966-.019-38.954.49.271c.283.15 4.807 2.748 10.065 5.775zm33.754 19.18v25.109l-.387.253c-.525.332-19.667 11.335-19.732 11.335-.03 0-.054-11.336-.054-25.193l.012-25.182 10-5.752c5.499-3.165 10.034-5.733 10.088-5.714.039.024.073 11.34.073 25.144zm38.15-5.775 10.023 5.763V55.92c0 10.838-.011 11.42-.176 11.357-.107-.041-4.642-2.64-10.083-5.774l-9.91-5.69v-11.42c0-6.287.032-11.424.062-11.424.043 0 4.577 2.592 10.084 5.764zm34.164 5.587c0 6.254-.042 11.412-.084 11.462-.072.115-19.896 11.538-20.022 11.538-.031 0-.062-5.135-.062-11.423v-11.42l10-5.756c5.507-3.16 10.042-5.752 10.084-5.752.053 0 .084 5.105.084 11.351zM95.993 70.933 52.005 96.04 32.056 84.693S76 59.277 76.176 59.343zm2.215 14.827-.034 11.442-22.028 12.676c-12.12 6.976-22.082 12.675-22.132 12.675-.053 0-.095-4.658-.095-11.516V99.51l22.08-12.592c12.132-6.923 22.101-12.59 22.154-12.602.043 0 .062 5.148.054 11.443z"/></g></g></g>
  <text x="212" y="191" text-anchor="end" font-family="ui-monospace,'Courier New',monospace" font-size="13" letter-spacing="1" fill="#7FB4FF" class="s-lbl" style="animation-delay:0.39s">FRONTEND</text>
  <g transform="translate(244,166)"><g class="s-chip" style="animation-delay:0.56s"><g transform="scale(0.3125)"><g fill="#61DAFB"><circle cx="64" cy="64" r="11.4"/><path d="M107.3 45.2c-2.2-.8-4.5-1.6-6.9-2.3.6-2.4 1.1-4.8 1.5-7.1 2.1-13.2-.2-22.5-6.6-26.1-1.9-1.1-4-1.6-6.4-1.6-7 0-15.9 5.2-24.9 13.9-9-8.7-17.9-13.9-24.9-13.9-2.4 0-4.5.5-6.4 1.6-6.4 3.7-8.7 13-6.6 26.1.4 2.3.9 4.7 1.5 7.1-2.4.7-4.7 1.4-6.9 2.3C8.2 50 1.4 56.6 1.4 64s6.9 14 19.3 18.8c2.2.8 4.5 1.6 6.9 2.3-.6 2.4-1.1 4.8-1.5 7.1-2.1 13.2.2 22.5 6.6 26.1 1.9 1.1 4 1.6 6.4 1.6 7.1 0 16-5.2 24.9-13.9 9 8.7 17.9 13.9 24.9 13.9 2.4 0 4.5-.5 6.4-1.6 6.4-3.7 8.7-13 6.6-26.1-.4-2.3-.9-4.7-1.5-7.1 2.4-.7 4.7-1.4 6.9-2.3 12.5-4.8 19.3-11.4 19.3-18.8s-6.8-14-19.3-18.8zM92.5 14.7c4.1 2.4 5.5 9.8 3.8 20.3-.3 2.1-.8 4.3-1.4 6.6-5.2-1.2-10.7-2-16.5-2.5-3.4-4.8-6.9-9.1-10.4-13 7.4-7.3 14.9-12.3 21-12.3 1.3 0 2.5.3 3.5.9zM81.3 74c-1.8 3.2-3.9 6.4-6.1 9.6-3.7.3-7.4.4-11.2.4-3.9 0-7.6-.1-11.2-.4-2.2-3.2-4.2-6.4-6-9.6-1.9-3.3-3.7-6.7-5.3-10 1.6-3.3 3.4-6.7 5.3-10 1.8-3.2 3.9-6.4 6.1-9.6 3.7-.3 7.4-.4 11.2-.4 3.9 0 7.6.1 11.2.4 2.2 3.2 4.2 6.4 6 9.6 1.9 3.3 3.7 6.7 5.3 10-1.7 3.3-3.4 6.6-5.3 10zm8.3-3.3c1.5 3.5 2.7 6.9 3.8 10.3-3.4.8-7 1.4-10.8 1.9 1.2-1.9 2.5-3.9 3.6-6 1.2-2.1 2.3-4.2 3.4-6.2zM64 97.8c-2.4-2.6-4.7-5.4-6.9-8.3 2.3.1 4.6.2 6.9.2 2.3 0 4.6-.1 6.9-.2-2.2 2.9-4.5 5.7-6.9 8.3zm-18.6-15c-3.8-.5-7.4-1.1-10.8-1.9 1.1-3.3 2.3-6.8 3.8-10.3 1.1 2 2.2 4.1 3.4 6.1 1.2 2.2 2.4 4.1 3.6 6.1zm-7-25.5c-1.5-3.5-2.7-6.9-3.8-10.3 3.4-.8 7-1.4 10.8-1.9-1.2 1.9-2.5 3.9-3.6 6-1.2 2.1-2.3 4.2-3.4 6.2zM64 30.2c2.4 2.6 4.7 5.4 6.9 8.3-2.3-.1-4.6-.2-6.9-.2-2.3 0-4.6.1-6.9.2 2.2-2.9 4.5-5.7 6.9-8.3zm22.2 21l-3.6-6c3.8.5 7.4 1.1 10.8 1.9-1.1 3.3-2.3 6.8-3.8 10.3-1.1-2.1-2.2-4.2-3.4-6.2zM31.7 35c-1.7-10.5-.3-17.9 3.8-20.3 1-.6 2.2-.9 3.5-.9 6 0 13.5 4.9 21 12.3-3.5 3.8-7 8.2-10.4 13-5.8.5-11.3 1.4-16.5 2.5-.6-2.3-1-4.5-1.4-6.6zM7 64c0-4.7 5.7-9.7 15.7-13.4 2-.8 4.2-1.5 6.4-2.1 1.6 5 3.6 10.3 6 15.6-2.4 5.3-4.5 10.5-6 15.5C15.3 75.6 7 69.6 7 64zm28.5 49.3c-4.1-2.4-5.5-9.8-3.8-20.3.3-2.1.8-4.3 1.4-6.6 5.2 1.2 10.7 2 16.5 2.5 3.4 4.8 6.9 9.1 10.4 13-7.4 7.3-14.9 12.3-21 12.3-1.3 0-2.5-.3-3.5-.9zM96.3 93c1.7 10.5.3 17.9-3.8 20.3-1 .6-2.2.9-3.5.9-6 0-13.5-4.9-21-12.3 3.5-3.8 7-8.2 10.4-13 5.8-.5 11.3-1.4 16.5-2.5.6 2.3 1 4.5 1.4 6.6zm9-15.6c-2 .8-4.2 1.5-6.4 2.1-1.6-5-3.6-10.3-6-15.6 2.4-5.3 4.5-10.5 6-15.5 13.8 4 22.1 10 22.1 15.6 0 4.7-5.8 9.7-15.7 13.4z"/></g></g></g></g>
  <g transform="translate(302,166)"><g class="s-chip" style="animation-delay:0.61s"><g transform="scale(0.3125)"><path d="M64.004 25.602c-17.067 0-27.73 8.53-32 25.597 6.398-8.531 13.867-11.73 22.398-9.597 4.871 1.214 8.352 4.746 12.207 8.66C72.883 56.629 80.145 64 96.004 64c17.066 0 27.73-8.531 32-25.602-6.399 8.536-13.867 11.735-22.399 9.602-4.87-1.215-8.347-4.746-12.207-8.66-6.27-6.367-13.53-13.738-29.394-13.738zM32.004 64c-17.066 0-27.73 8.531-32 25.602C6.402 81.066 13.87 77.867 22.402 80c4.871 1.215 8.352 4.746 12.207 8.66 6.274 6.367 13.536 13.738 29.395 13.738 17.066 0 27.73-8.53 32-25.597-6.399 8.531-13.867 11.73-22.399 9.597-4.87-1.214-8.347-4.746-12.207-8.66C55.128 71.371 47.868 64 32.004 64zm0 0" fill="#38bdf8"/></g></g></g>
  <g transform="translate(360,166)"><g class="s-chip" style="animation-delay:0.66s"><g transform="scale(0.3125)"><defs><linearGradient id="i13_a" x1="76.079" x2="523.48" y1="10.798" y2="365.95" gradientTransform="translate(1.11 14.613) scale(.24566)" gradientUnits="userSpaceOnUse"><stop offset="0" stop-color="#9013fe"/><stop offset="1" stop-color="#6610f2"/></linearGradient><linearGradient id="i13_b" x1="193.51" x2="293.51" y1="109.74" y2="278.87" gradientTransform="translate(0 52)" gradientUnits="userSpaceOnUse"><stop offset="0" stop-color="#fff"/><stop offset="1" stop-color="#f1e5fc"/></linearGradient><filter id="i13_c" width="197" height="249" x="161.9" y="135.46" color-interpolation-filters="sRGB" filterUnits="userSpaceOnUse"><feFlood flood-opacity="0" result="BackgroundImageFix"/><feColorMatrix in="SourceAlpha" values="0 0 0 0 0 0 0 0 0 0 0 0 0 0 0 0 0 0 127 0"/><feOffset dy="4"/><feGaussianBlur stdDeviation="8"/><feColorMatrix values="0 0 0 0 0 0 0 0 0 0 0 0 0 0 0 0 0 0 0.15 0"/><feBlend in2="BackgroundImageFix" result="effect1_dropShadow"/><feBlend in="SourceGraphic" in2="effect1_dropShadow" result="shape"/></filter></defs><path fill="url(#i13_a)" d="M14.985 27.712c-.237-6.815 5.072-13.099 12.249-13.099h73.54c7.177 0 12.486 6.284 12.249 13.099-.228 6.546.068 15.026 2.202 21.94 2.141 6.936 5.751 11.319 11.664 11.883v6.387c-5.913.564-9.523 4.947-11.664 11.883-2.134 6.914-2.43 15.394-2.202 21.94.237 6.815-5.072 13.098-12.249 13.098h-73.54c-7.177 0-12.486-6.284-12.249-13.098.228-6.546-.068-15.026-2.203-21.94-2.14-6.935-5.76-11.319-11.673-11.883v-6.387c5.913-.563 9.533-4.947 11.673-11.883 2.135-6.914 2.43-15.394 2.203-21.94z"/><path fill="url(#i13_b)" d="M267.1 364.46c47.297 0 75.798-23.158 75.798-61.355 0-28.873-20.336-49.776-50.532-53.085v-1.203c22.185-3.609 39.594-24.211 39.594-47.219 0-32.783-25.882-54.138-65.322-54.138h-88.74v217zm-54.692-189.48h45.911c24.958 0 39.131 11.128 39.131 31.279 0 21.505-16.484 33.535-46.372 33.535h-38.67zm0 161.96v-71.431h45.602c32.661 0 49.608 12.03 49.608 35.49 0 23.459-16.484 35.941-47.605 35.941z" filter="url(#i13_c)" transform="translate(1.494 2.203) scale(.24566)"/></g></g></g>
  <text x="212" y="245" text-anchor="end" font-family="ui-monospace,'Courier New',monospace" font-size="13" letter-spacing="1" fill="#5EEAB4" class="s-lbl" style="animation-delay:0.51s">DATA</text>
  <g transform="translate(244,220)"><g class="s-chip" style="animation-delay:0.64s"><g transform="scale(0.3125)"><path d="M93.809 92.112c.785-6.533.55-7.492 5.416-6.433l1.235.108c3.742.17 8.637-.602 11.513-1.938 6.191-2.873 9.861-7.668 3.758-6.409-13.924 2.873-14.881-1.842-14.881-1.842 14.703-21.815 20.849-49.508 15.543-56.287-14.47-18.489-39.517-9.746-39.936-9.52l-.134.025c-2.751-.571-5.83-.912-9.289-.968-6.301-.104-11.082 1.652-14.709 4.402 0 0-44.683-18.409-42.604 23.151.442 8.841 12.672 66.898 27.26 49.362 5.332-6.412 10.484-11.834 10.484-11.834 2.558 1.699 5.622 2.567 8.834 2.255l.249-.212c-.078.796-.044 1.575.099 2.497-3.757 4.199-2.653 4.936-10.166 6.482-7.602 1.566-3.136 4.355-.221 5.084 3.535.884 11.712 2.136 17.238-5.598l-.22.882c1.474 1.18 1.375 8.477 1.583 13.69.209 5.214.558 10.079 1.621 12.948 1.063 2.868 2.317 10.256 12.191 8.14 8.252-1.764 14.561-4.309 15.136-27.985"/><path d="M75.458 125.256c-4.367 0-7.211-1.689-8.938-3.32-2.607-2.46-3.641-5.629-4.259-7.522l-.267-.79c-1.244-3.358-1.666-8.193-1.916-14.419-.038-.935-.064-1.898-.093-2.919-.021-.747-.047-1.684-.085-2.664a18.8 18.8 0 01-4.962 1.568c-3.079.526-6.389.356-9.84-.507-2.435-.609-4.965-1.871-6.407-3.82-4.203 3.681-8.212 3.182-10.396 2.453-3.853-1.285-7.301-4.896-10.542-11.037-2.309-4.375-4.542-10.075-6.638-16.943-3.65-11.96-5.969-24.557-6.175-28.693C4.292 23.698 7.777 14.44 15.296 9.129 27.157.751 45.128 5.678 51.68 7.915c4.402-2.653 9.581-3.944 15.433-3.851 3.143.051 6.136.327 8.916.823 2.9-.912 8.628-2.221 15.185-2.139 12.081.144 22.092 4.852 28.949 13.615 4.894 6.252 2.474 19.381.597 26.651-2.642 10.226-7.271 21.102-12.957 30.57 1.544.011 3.781-.174 6.961-.831 6.274-1.295 8.109 2.069 8.607 3.575 1.995 6.042-6.677 10.608-9.382 11.864-3.466 1.609-9.117 2.589-13.745 2.377l-.202-.013-1.216-.107-.12 1.014-.116.991c-.311 11.999-2.025 19.598-5.552 24.619-3.697 5.264-8.835 6.739-13.361 7.709-1.544.33-2.947.474-4.219.474zm-9.19-43.671c2.819 2.256 3.066 6.501 3.287 14.434.028.99.054 1.927.089 2.802.106 2.65.355 8.855 1.327 11.477.137.371.26.747.39 1.146 1.083 3.316 1.626 4.979 6.309 3.978 3.931-.843 5.952-1.599 7.534-3.851 2.299-3.274 3.585-9.86 3.821-19.575l4.783.116-4.75-.57.14-1.186c.455-3.91.783-6.734 3.396-8.602 2.097-1.498 4.486-1.353 6.389-1.01-2.091-1.58-2.669-3.433-2.823-4.193l-.399-1.965 1.121-1.663c6.457-9.58 11.781-21.354 14.609-32.304 2.906-11.251 2.02-17.226 1.134-18.356-11.729-14.987-32.068-8.799-34.192-8.097l-.359.194-1.8.335-.922-.191c-2.542-.528-5.366-.82-8.393-.869-4.756-.08-8.593 1.044-11.739 3.431l-2.183 1.655-2.533-1.043c-5.412-2.213-21.308-6.662-29.696-.721-4.656 3.298-6.777 9.76-6.305 19.207.156 3.119 2.275 14.926 5.771 26.377 4.831 15.825 9.221 21.082 11.054 21.693.32.108 1.15-.537 1.976-1.529a270.708 270.708 0 0110.694-12.07l2.77-2.915 3.349 2.225c1.35.897 2.839 1.406 4.368 1.502l7.987-6.812-1.157 11.808c-.026.265-.039.626.065 1.296l.348 2.238-1.51 1.688-.174.196 4.388 2.025 1.836-2.301z"/><path fill="#336791" d="M115.731 77.44c-13.925 2.873-14.882-1.842-14.882-1.842 14.703-21.816 20.849-49.51 15.545-56.287C101.924.823 76.875 9.566 76.457 9.793l-.135.024c-2.751-.571-5.83-.911-9.291-.967-6.301-.103-11.08 1.652-14.707 4.402 0 0-44.684-18.408-42.606 23.151.442 8.842 12.672 66.899 27.26 49.363 5.332-6.412 10.483-11.834 10.483-11.834 2.559 1.699 5.622 2.567 8.833 2.255l.25-.212c-.078.796-.042 1.575.1 2.497-3.758 4.199-2.654 4.936-10.167 6.482-7.602 1.566-3.136 4.355-.22 5.084 3.534.884 11.712 2.136 17.237-5.598l-.221.882c1.473 1.18 2.507 7.672 2.334 13.557-.174 5.885-.29 9.926.871 13.082 1.16 3.156 2.316 10.256 12.192 8.14 8.252-1.768 12.528-6.351 13.124-13.995.422-5.435 1.377-4.631 1.438-9.49l.767-2.3c.884-7.367.14-9.743 5.225-8.638l1.235.108c3.742.17 8.639-.602 11.514-1.938 6.19-2.871 9.861-7.667 3.758-6.408z"/><path fill="#fff" d="M75.957 122.307c-8.232 0-10.84-6.519-11.907-9.185-1.562-3.907-1.899-19.069-1.551-31.503a1.59 1.59 0 011.64-1.55 1.594 1.594 0 011.55 1.639c-.401 14.341.168 27.337 1.324 30.229 1.804 4.509 4.54 8.453 12.275 6.796 7.343-1.575 10.093-4.359 11.318-11.46.94-5.449 2.799-20.951 3.028-24.01a1.593 1.593 0 011.71-1.472 1.597 1.597 0 011.472 1.71c-.239 3.185-2.089 18.657-3.065 24.315-1.446 8.387-5.185 12.191-13.794 14.037-1.463.313-2.792.453-4 .454zM31.321 90.466a6.71 6.71 0 01-2.116-.35c-5.347-1.784-10.44-10.492-15.138-25.885-3.576-11.717-5.842-23.947-6.041-27.922-.589-11.784 2.445-20.121 9.02-24.778 13.007-9.216 34.888-.44 35.813-.062a1.596 1.596 0 01-1.207 2.955c-.211-.086-21.193-8.492-32.768-.285-5.622 3.986-8.203 11.392-7.672 22.011.167 3.349 2.284 15.285 5.906 27.149 4.194 13.742 8.967 22.413 13.096 23.79.648.216 2.62.873 5.439-2.517A245.272 245.272 0 0145.88 73.046a1.596 1.596 0 012.304 2.208c-.048.05-4.847 5.067-10.077 11.359-2.477 2.979-4.851 3.853-6.786 3.853zm69.429-13.445a1.596 1.596 0 01-1.322-2.487c14.863-22.055 20.08-48.704 15.612-54.414-5.624-7.186-13.565-10.939-23.604-11.156-7.433-.16-13.341 1.738-14.307 2.069l-.243.099c-.971.305-1.716-.227-1.997-.849a1.6 1.6 0 01.631-2.025c.046-.027.192-.089.429-.176l-.021.006.021-.007c1.641-.601 7.639-2.4 15.068-2.315 11.108.118 20.284 4.401 26.534 12.388 2.957 3.779 2.964 12.485.019 23.887-3.002 11.625-8.651 24.118-15.497 34.277-.306.457-.81.703-1.323.703zm.76 10.21c-2.538 0-4.813-.358-6.175-1.174-1.4-.839-1.667-1.979-1.702-2.584-.382-6.71 3.32-7.878 5.208-8.411-.263-.398-.637-.866-1.024-1.349-1.101-1.376-2.609-3.26-3.771-6.078-.182-.44-.752-1.463-1.412-2.648-3.579-6.418-11.026-19.773-6.242-26.612 2.214-3.165 6.623-4.411 13.119-3.716C97.6 28.837 88.5 10.625 66.907 10.271c-6.494-.108-11.82 1.889-15.822 5.93-8.96 9.049-8.636 25.422-8.631 25.586a1.595 1.595 0 11-3.19.084c-.02-.727-.354-17.909 9.554-27.916C53.455 9.272 59.559 6.96 66.96 7.081c13.814.227 22.706 7.25 27.732 13.101 5.479 6.377 8.165 13.411 8.386 15.759.165 1.746-1.088 2.095-1.341 2.147l-.576.013c-6.375-1.021-10.465-.312-12.156 2.104-3.639 5.201 3.406 17.834 6.414 23.229.768 1.376 1.322 2.371 1.576 2.985.988 2.396 2.277 4.006 3.312 5.3.911 1.138 1.7 2.125 1.982 3.283.131.23 1.99 2.98 13.021.703 2.765-.57 4.423-.083 4.93 1.45.997 3.015-4.597 6.532-7.694 7.97-2.775 1.29-7.204 2.106-11.036 2.106zm-4.696-4.021c.35.353 2.101.962 5.727.806 3.224-.138 6.624-.839 8.664-1.786 2.609-1.212 4.351-2.567 5.253-3.492l-.5.092c-7.053 1.456-12.042 1.262-14.828-.577a6.162 6.162 0 01-.54-.401c-.302.119-.581.197-.78.253-1.58.443-3.214.902-2.996 5.105zm-45.562 8.915c-1.752 0-3.596-.239-5.479-.71-1.951-.488-5.24-1.957-5.19-4.37.057-2.707 3.994-3.519 5.476-3.824 5.354-1.103 5.703-1.545 7.376-3.67.488-.619 1.095-1.39 1.923-2.314 1.229-1.376 2.572-2.073 3.992-2.073.989 0 1.8.335 2.336.558 1.708.708 3.133 2.42 3.719 4.467.529 1.847.276 3.625-.71 5.006-3.237 4.533-7.886 6.93-13.443 6.93zm-7.222-4.943c.481.372 1.445.869 2.518 1.137 1.631.408 3.213.615 4.705.615 4.546 0 8.196-1.882 10.847-5.594.553-.774.387-1.757.239-2.274-.31-1.083-1.08-2.068-1.873-2.397-.43-.178-.787-.314-1.115-.314-.176 0-.712 0-1.614 1.009a41.146 41.146 0 00-1.794 2.162c-2.084 2.646-3.039 3.544-9.239 4.821-1.513.31-2.289.626-2.674.835zm12.269-7.36a1.596 1.596 0 01-1.575-1.354 8.218 8.218 0 01-.08-.799c-4.064-.076-7.985-1.82-10.962-4.926-3.764-3.927-5.477-9.368-4.699-14.927.845-6.037.529-11.366.359-14.229-.047-.796-.081-1.371-.079-1.769.003-.505.013-1.844 4.489-4.113 1.592-.807 4.784-2.215 8.271-2.576 5.777-.597 9.585 1.976 10.725 7.246 3.077 14.228.244 20.521-1.825 25.117-.385.856-.749 1.664-1.04 2.447l-.257.69c-1.093 2.931-2.038 5.463-1.748 7.354a1.595 1.595 0 01-1.335 1.819l-.244.02zM42.464 42.26l.062 1.139c.176 2.974.504 8.508-.384 14.86-.641 4.585.759 9.06 3.843 12.276 2.437 2.542 5.644 3.945 8.94 3.945h.068c.369-1.555.982-3.197 1.642-4.966l.255-.686c.329-.884.714-1.74 1.122-2.646 1.991-4.424 4.47-9.931 1.615-23.132-.565-2.615-1.936-4.128-4.189-4.627-4.628-1.022-11.525 2.459-12.974 3.837zm9.63-.677c-.08.564 1.033 2.07 2.485 2.271 1.449.203 2.689-.975 2.768-1.539.079-.564-1.033-1.186-2.485-1.388-1.451-.202-2.691.092-2.768.656zm2.818 2.826l-.407-.028c-.9-.125-1.81-.692-2.433-1.518-.219-.29-.576-.852-.505-1.354.101-.736.999-1.177 2.4-1.177.313 0 .639.023.967.069.766.106 1.477.327 2.002.62.91.508.977 1.075.936 1.368-.112.813-1.405 2.02-2.96 2.02zm-2.289-2.732c.045.348.907 1.496 2.029 1.651l.261.018c1.036 0 1.81-.815 1.901-1.082-.096-.182-.762-.634-2.025-.81a5.823 5.823 0 00-.821-.059c-.812 0-1.243.183-1.345.282zm43.605-1.245c.079.564-1.033 2.07-2.484 2.272-1.45.202-2.691-.975-2.771-1.539-.076-.564 1.036-1.187 2.486-1.388 1.45-.203 2.689.092 2.769.655zm-2.819 2.56c-1.396 0-2.601-1.086-2.7-1.791-.115-.846 1.278-1.489 2.712-1.688.316-.044.629-.066.93-.066 1.238 0 2.058.363 2.14.949.053.379-.238.964-.739 1.492-.331.347-1.026.948-1.973 1.079l-.37.025zm.943-3.013c-.276 0-.564.021-.856.061-1.441.201-2.301.779-2.259 1.089.048.341.968 1.332 2.173 1.332l.297-.021c.787-.109 1.378-.623 1.66-.919.443-.465.619-.903.598-1.052-.028-.198-.56-.49-1.613-.49zm3.965 32.843a1.594 1.594 0 01-1.324-2.483c3.398-5.075 2.776-10.25 2.175-15.255-.257-2.132-.521-4.337-.453-6.453.07-2.177.347-3.973.614-5.71.317-2.058.617-4.002.493-6.31a1.595 1.595 0 113.186-.172c.142 2.638-.197 4.838-.525 6.967-.253 1.643-.515 3.342-.578 5.327-.061 1.874.178 3.864.431 5.97.64 5.322 1.365 11.354-2.691 17.411a1.596 1.596 0 01-1.328.708z"/></g></g></g>
  <g transform="translate(302,220)"><g class="s-chip" style="animation-delay:0.69s"><g transform="scale(0.3125)"><path fill="#00618A" d="M117.688 98.242c-6.973-.191-12.297.461-16.852 2.379-1.293.547-3.355.559-3.566 2.18.711.746.82 1.859 1.387 2.777 1.086 1.754 2.922 4.113 4.559 5.352 1.789 1.348 3.633 2.793 5.551 3.961 3.414 2.082 7.223 3.27 10.504 5.352 1.938 1.23 3.859 2.777 5.75 4.164.934.684 1.563 1.75 2.773 2.18v-.195c-.637-.812-.801-1.93-1.387-2.777l-2.578-2.578c-2.52-3.344-5.719-6.281-9.117-8.719-2.711-1.949-8.781-4.578-9.91-7.73l-.199-.199c1.922-.219 4.172-.914 5.949-1.391 2.98-.797 5.645-.59 8.719-1.387l4.164-1.187v-.793c-1.555-1.594-2.664-3.707-4.359-5.152-4.441-3.781-9.285-7.555-14.273-10.703-2.766-1.746-6.184-2.883-9.117-4.363-.988-.496-2.719-.758-3.371-1.586-1.539-1.961-2.379-4.449-3.566-6.738-2.488-4.793-4.93-10.023-7.137-15.066-1.504-3.437-2.484-6.828-4.359-9.91-9-14.797-18.687-23.73-33.695-32.508-3.195-1.867-7.039-2.605-11.102-3.57l-6.543-.395c-1.332-.555-2.715-2.184-3.965-2.977C16.977 3.52 4.223-3.312.539 5.672-1.785 11.34 4.016 16.871 6.09 19.746c1.457 2.012 3.32 4.273 4.359 6.539.688 1.492.805 2.984 1.391 4.559 1.438 3.883 2.695 8.109 4.559 11.695.941 1.816 1.98 3.727 3.172 5.352.727.996 1.98 1.438 2.18 2.973-1.227 1.715-1.297 4.375-1.984 6.543-3.098 9.77-1.926 21.91 2.578 29.137 1.383 2.223 4.641 6.98 9.117 5.156 3.918-1.598 3.043-6.539 4.164-10.902.254-.988.098-1.715.594-2.379v.199l3.57 7.133c2.641 4.254 7.324 8.699 11.297 11.699 2.059 1.555 3.68 4.242 6.344 5.152v-.199h-.199c-.516-.805-1.324-1.137-1.98-1.781-1.551-1.523-3.277-3.414-4.559-5.156-3.613-4.902-6.805-10.27-9.711-15.855-1.391-2.668-2.598-5.609-3.77-8.324-.453-1.047-.445-2.633-1.387-3.172-1.281 1.988-3.172 3.598-4.164 5.945-1.582 3.754-1.789 8.336-2.375 13.082-.348.125-.195.039-.398.199-2.762-.668-3.73-3.508-4.758-5.949-2.594-6.164-3.078-16.09-.793-23.191.59-1.836 3.262-7.617 2.18-9.316-.516-1.691-2.219-2.672-3.172-3.965-1.18-1.598-2.355-3.703-3.172-5.551-2.125-4.805-3.113-10.203-5.352-15.062-1.07-2.324-2.875-4.676-4.359-6.738-1.645-2.289-3.484-3.977-4.758-6.742-.453-.984-1.066-2.559-.398-3.566.215-.684.516-.969 1.191-1.191 1.148-.887 4.352.297 5.547.793 3.18 1.32 5.832 2.578 8.527 4.363 1.289.855 2.598 2.512 4.16 2.973h1.785c2.789.641 5.914.195 8.523.988 4.609 1.402 8.738 3.582 12.488 5.949 11.422 7.215 20.766 17.48 27.156 29.734 1.027 1.973 1.473 3.852 2.379 5.945 1.824 4.219 4.125 8.559 5.941 12.688 1.816 4.113 3.582 8.27 6.148 11.695 1.348 1.801 6.551 2.766 8.918 3.766 1.66.699 4.379 1.43 5.949 2.379 3 1.809 5.906 3.965 8.723 5.945 1.402.992 5.73 3.168 5.945 4.957zm-88.605-75.52c-1.453-.027-2.48.156-3.566.395v.199h.195c.695 1.422 1.918 2.34 2.777 3.566l1.98 4.164.199-.195c1.227-.867 1.789-2.25 1.781-4.363-.492-.52-.562-1.164-.992-1.785-.562-.824-1.66-1.289-2.375-1.98zm0 0"/></g></g></g>
  <g transform="translate(360,220)"><g class="s-chip" style="animation-delay:0.74s"><g transform="scale(0.3125)"><path fill-rule="evenodd" clip-rule="evenodd" fill="#439934" d="M88.038 42.812c1.605 4.643 2.761 9.383 3.141 14.296.472 6.095.256 12.147-1.029 18.142-.035.165-.109.32-.164.48-.403.001-.814-.049-1.208.012-3.329.523-6.655 1.065-9.981 1.604-3.438.557-6.881 1.092-10.313 1.687-1.216.21-2.721-.041-3.212 1.641-.014.046-.154.054-.235.08l.166-10.051-.169-24.252 1.602-.275c2.62-.429 5.24-.864 7.862-1.281 3.129-.497 6.261-.98 9.392-1.465 1.381-.215 2.764-.412 4.148-.618z"/><path fill-rule="evenodd" clip-rule="evenodd" fill="#45A538" d="M61.729 110.054c-1.69-1.453-3.439-2.842-5.059-4.37-8.717-8.222-15.093-17.899-18.233-29.566-.865-3.211-1.442-6.474-1.627-9.792-.13-2.322-.318-4.665-.154-6.975.437-6.144 1.325-12.229 3.127-18.147l.099-.138c.175.233.427.439.516.702 1.759 5.18 3.505 10.364 5.242 15.551 5.458 16.3 10.909 32.604 16.376 48.9.107.318.384.579.583.866l-.87 2.969z"/><path fill-rule="evenodd" clip-rule="evenodd" fill="#46A037" d="M88.038 42.812c-1.384.206-2.768.403-4.149.616-3.131.485-6.263.968-9.392 1.465-2.622.417-5.242.852-7.862 1.281l-1.602.275-.012-1.045c-.053-.859-.144-1.717-.154-2.576-.069-5.478-.112-10.956-.18-16.434-.042-3.429-.105-6.857-.175-10.285-.043-2.13-.089-4.261-.185-6.388-.052-1.143-.236-2.28-.311-3.423-.042-.657.016-1.319.029-1.979.817 1.583 1.616 3.178 2.456 4.749 1.327 2.484 3.441 4.314 5.344 6.311 7.523 7.892 12.864 17.068 16.193 27.433z"/><path fill-rule="evenodd" clip-rule="evenodd" fill="#409433" d="M65.036 80.753c.081-.026.222-.034.235-.08.491-1.682 1.996-1.431 3.212-1.641 3.432-.594 6.875-1.13 10.313-1.687 3.326-.539 6.652-1.081 9.981-1.604.394-.062.805-.011 1.208-.012-.622 2.22-1.112 4.488-1.901 6.647-.896 2.449-1.98 4.839-3.131 7.182a49.142 49.142 0 01-6.353 9.763c-1.919 2.308-4.058 4.441-6.202 6.548-1.185 1.165-2.582 2.114-3.882 3.161l-.337-.23-1.214-1.038-1.256-2.753a41.402 41.402 0 01-1.394-9.838l.023-.561.171-2.426c.057-.828.133-1.655.168-2.485.129-2.982.241-5.964.359-8.946z"/><path fill-rule="evenodd" clip-rule="evenodd" fill="#4FAA41" d="M65.036 80.753c-.118 2.982-.23 5.964-.357 8.947-.035.83-.111 1.657-.168 2.485l-.765.289c-1.699-5.002-3.399-9.951-5.062-14.913-2.75-8.209-5.467-16.431-8.213-24.642a4498.887 4498.887 0 00-6.7-19.867c-.105-.31-.407-.552-.617-.826l4.896-9.002c.168.292.39.565.496.879a6167.476 6167.476 0 016.768 20.118c2.916 8.73 5.814 17.467 8.728 26.198.116.349.308.671.491 1.062l.67-.78-.167 10.052z"/><path fill-rule="evenodd" clip-rule="evenodd" fill="#4AA73C" d="M43.155 32.227c.21.274.511.516.617.826a4498.887 4498.887 0 016.7 19.867c2.746 8.211 5.463 16.433 8.213 24.642 1.662 4.961 3.362 9.911 5.062 14.913l.765-.289-.171 2.426-.155.559c-.266 2.656-.49 5.318-.814 7.968-.163 1.328-.509 2.632-.772 3.947-.198-.287-.476-.548-.583-.866-5.467-16.297-10.918-32.6-16.376-48.9a3888.972 3888.972 0 00-5.242-15.551c-.089-.263-.34-.469-.516-.702l3.272-8.84z"/><path fill-rule="evenodd" clip-rule="evenodd" fill="#57AE47" d="M65.202 70.702l-.67.78c-.183-.391-.375-.714-.491-1.062-2.913-8.731-5.812-17.468-8.728-26.198a6167.476 6167.476 0 00-6.768-20.118c-.105-.314-.327-.588-.496-.879l6.055-7.965c.191.255.463.482.562.769 1.681 4.921 3.347 9.848 5.003 14.778 1.547 4.604 3.071 9.215 4.636 13.813.105.308.47.526.714.786l.012 1.045c.058 8.082.115 16.167.171 24.251z"/><path fill-rule="evenodd" clip-rule="evenodd" fill="#60B24F" d="M65.021 45.404c-.244-.26-.609-.478-.714-.786-1.565-4.598-3.089-9.209-4.636-13.813-1.656-4.93-3.322-9.856-5.003-14.778-.099-.287-.371-.514-.562-.769 1.969-1.928 3.877-3.925 5.925-5.764 1.821-1.634 3.285-3.386 3.352-5.968.003-.107.059-.214.145-.514l.519 1.306c-.013.661-.072 1.322-.029 1.979.075 1.143.259 2.28.311 3.423.096 2.127.142 4.258.185 6.388.069 3.428.132 6.856.175 10.285.067 5.478.111 10.956.18 16.434.008.861.098 1.718.152 2.577z"/><path fill-rule="evenodd" clip-rule="evenodd" fill="#A9AA88" d="M62.598 107.085c.263-1.315.609-2.62.772-3.947.325-2.649.548-5.312.814-7.968l.066-.01.066.011a41.402 41.402 0 001.394 9.838c-.176.232-.425.439-.518.701-.727 2.05-1.412 4.116-2.143 6.166-.1.28-.378.498-.574.744l-.747-2.566.87-2.969z"/><path fill-rule="evenodd" clip-rule="evenodd" fill="#B6B598" d="M62.476 112.621c.196-.246.475-.464.574-.744.731-2.05 1.417-4.115 2.143-6.166.093-.262.341-.469.518-.701l1.255 2.754c-.248.352-.59.669-.728 1.061l-2.404 7.059c-.099.283-.437.483-.663.722l-.695-3.985z"/><path fill-rule="evenodd" clip-rule="evenodd" fill="#C2C1A7" d="M63.171 116.605c.227-.238.564-.439.663-.722l2.404-7.059c.137-.391.48-.709.728-1.061l1.215 1.037c-.587.58-.913 1.25-.717 2.097l-.369 1.208c-.168.207-.411.387-.494.624-.839 2.403-1.64 4.819-2.485 7.222-.107.305-.404.544-.614.812-.109-1.387-.22-2.771-.331-4.158z"/><path fill-rule="evenodd" clip-rule="evenodd" fill="#CECDB7" d="M63.503 120.763c.209-.269.506-.508.614-.812.845-2.402 1.646-4.818 2.485-7.222.083-.236.325-.417.494-.624l-.509 5.545c-.136.157-.333.294-.398.477-.575 1.614-1.117 3.24-1.694 4.854-.119.333-.347.627-.525.938-.158-.207-.441-.407-.454-.623-.051-.841-.016-1.688-.013-2.533z"/><path fill-rule="evenodd" clip-rule="evenodd" fill="#DBDAC7" d="M63.969 123.919c.178-.312.406-.606.525-.938.578-1.613 1.119-3.239 1.694-4.854.065-.183.263-.319.398-.477l.012 3.64-1.218 3.124-1.411-.495z"/><path fill-rule="evenodd" clip-rule="evenodd" fill="#EBE9DC" d="M65.38 124.415l1.218-3.124.251 3.696-1.469-.572z"/><path fill-rule="evenodd" clip-rule="evenodd" fill="#CECDB7" d="M67.464 110.898c-.196-.847.129-1.518.717-2.097l.337.23-1.054 1.867z"/><path fill-rule="evenodd" clip-rule="evenodd" fill="#4FAA41" d="M64.316 95.172l-.066-.011-.066.01.155-.559-.023.56z"/></g></g></g>
  <g transform="translate(418,220)"><g class="s-chip" style="animation-delay:0.79s"><g transform="scale(0.3125)"><path fill="#A41E11" d="M121.8 93.1c-6.7 3.5-41.4 17.7-48.8 21.6-7.4 3.9-11.5 3.8-17.3 1S13 98.1 6.3 94.9c-3.3-1.6-5-2.9-5-4.2V78s48-10.5 55.8-13.2c7.8-2.8 10.4-2.9 17-.5s46.1 9.5 52.6 11.9v12.5c0 1.3-1.5 2.7-4.9 4.4z"/><path fill="#D82C20" d="M121.8 80.5C115.1 84 80.4 98.2 73 102.1c-7.4 3.9-11.5 3.8-17.3 1-5.8-2.8-42.7-17.7-49.4-20.9C-.3 79-.5 76.8 6 74.3c6.5-2.6 43.2-17 51-19.7 7.8-2.8 10.4-2.9 17-.5s41.1 16.1 47.6 18.5c6.7 2.4 6.9 4.4.2 7.9z"/><path fill="#A41E11" d="M121.8 72.5C115.1 76 80.4 90.2 73 94.1c-7.4 3.8-11.5 3.8-17.3 1C49.9 92.3 13 77.4 6.3 74.2c-3.3-1.6-5-2.9-5-4.2V57.3s48-10.5 55.8-13.2c7.8-2.8 10.4-2.9 17-.5s46.1 9.5 52.6 11.9V68c0 1.3-1.5 2.7-4.9 4.5z"/><path fill="#D82C20" d="M121.8 59.8c-6.7 3.5-41.4 17.7-48.8 21.6-7.4 3.8-11.5 3.8-17.3 1C49.9 79.6 13 64.7 6.3 61.5s-6.8-5.4-.3-7.9c6.5-2.6 43.2-17 51-19.7 7.8-2.8 10.4-2.9 17-.5s41.1 16.1 47.6 18.5c6.7 2.4 6.9 4.4.2 7.9z"/><path fill="#A41E11" d="M121.8 51c-6.7 3.5-41.4 17.7-48.8 21.6-7.4 3.8-11.5 3.8-17.3 1C49.9 70.9 13 56 6.3 52.8c-3.3-1.6-5.1-2.9-5.1-4.2V35.9s48-10.5 55.8-13.2c7.8-2.8 10.4-2.9 17-.5s46.1 9.5 52.6 11.9v12.5c.1 1.3-1.4 2.6-4.8 4.4z"/><path fill="#D82C20" d="M121.8 38.3C115.1 41.8 80.4 56 73 59.9c-7.4 3.8-11.5 3.8-17.3 1S13 43.3 6.3 40.1s-6.8-5.4-.3-7.9c6.5-2.6 43.2-17 51-19.7 7.8-2.8 10.4-2.9 17-.5s41.1 16.1 47.6 18.5c6.7 2.4 6.9 4.4.2 7.8z"/><path fill="#fff" d="M80.4 26.1l-10.8 1.2-2.5 5.8-3.9-6.5-12.5-1.1 9.3-3.4-2.8-5.2 8.8 3.4 8.2-2.7L72 23zM66.5 54.5l-20.3-8.4 29.1-4.4z"/><ellipse fill="#fff" cx="38.4" cy="35.4" rx="15.5" ry="6"/><path fill="#7A0C00" d="M93.3 27.7l17.2 6.8-17.2 6.8z"/><path fill="#AD2115" d="M74.3 35.3l19-7.6v13.6l-1.9.8z"/></g></g></g>
  <text x="212" y="299" text-anchor="end" font-family="ui-monospace,'Courier New',monospace" font-size="13" letter-spacing="1" fill="#38BDF8" class="s-lbl" style="animation-delay:0.63s">CLOUD · DEVOPS</text>
  <g transform="translate(244,274)"><g class="s-chip" style="animation-delay:0.72s"><g transform="scale(0.3125)"><path fill="#ea4535" d="M80.6 40.3h.4l-.2-.2 14-14v-.3c-11.8-10.4-28.1-14-43.2-9.5C36.5 20.8 24.9 32.8 20.7 48c.2-.1.5-.2.8-.2 5.2-3.4 11.4-5.4 17.9-5.4 2.2 0 4.3.2 6.4.6.1-.1.2-.1.3-.1 9-9.9 24.2-11.1 34.6-2.6h-.1z"/><path fill="#557ebf" d="M108.1 47.8c-2.3-8.5-7.1-16.2-13.8-22.1L80 39.9c6 4.9 9.5 12.3 9.3 20v2.5c16.9 0 16.9 25.2 0 25.2H63.9v20h-.1l.1.2h25.4c14.6.1 27.5-9.3 31.8-23.1 4.3-13.8-1-28.8-13-36.9z"/><path fill="#36a852" d="M39 107.9h26.3V87.7H39c-1.9 0-3.7-.4-5.4-1.1l-15.2 14.6v.2c6 4.3 13.2 6.6 20.7 6.6z"/><path fill="#f9bc15" d="M40.2 41.9c-14.9.1-28.1 9.3-32.9 22.8-4.8 13.6 0 28.5 11.8 37.3l15.6-14.9c-8.6-3.7-10.6-14.5-4-20.8 6.6-6.4 17.8-4.4 21.7 3.8L68 55.2C61.4 46.9 51.1 42 40.2 42.1z"/></g></g></g>
  <g transform="translate(302,274)"><g class="s-chip" style="animation-delay:0.77s"><g transform="scale(0.3125)"><path fill-rule="evenodd" clip-rule="evenodd" fill="#3A4D54" d="M73.8 50.8h11.3v11.5h5.7c2.6 0 5.3-.5 7.8-1.3 1.2-.4 2.6-1 3.8-1.7-1.6-2.1-2.4-4.7-2.6-7.3-.3-3.5.4-8.1 2.8-10.8l1.2-1.4 1.4 1.1c3.6 2.9 6.5 6.8 7.1 11.4 4.3-1.3 9.3-1 13.1 1.2l1.5.9-.8 1.6c-3.2 6.2-9.9 8.2-16.4 7.8-9.8 24.3-31 35.8-56.8 35.8-13.3 0-25.5-5-32.5-16.8l-.1-.2-1-2.1c-2.4-5.2-3.1-10.9-2.6-16.6l.2-1.7h9.6V50.8h11.3V39.6h22.5V28.3h13.5v22.5z"/><path fill="#00AADA" d="M110.4 55.1c.8-5.9-3.6-10.5-6.4-12.7-3.1 3.6-3.6 13.2 1.3 17.2-2.8 2.4-8.5 4.7-14.5 4.7H18.6c-.6 6.2.5 11.9 3 16.8l.8 1.5c.5.9 1.1 1.7 1.7 2.6 3 .2 5.7.3 8.2.2 4.9-.1 8.9-.7 12-1.7.5-.2.9.1 1.1.5.2.5-.1.9-.5 1.1-.4.1-.8.3-1.3.4-2.4.7-5 1.1-8.3 1.3h-.6c-1.3.1-2.7.1-4.2.1-1.6 0-3.1 0-4.9-.1 6 6.8 15.4 10.8 27.2 10.8 25 0 46.2-11.1 55.5-35.9 6.7.7 13.1-1 16-6.7-4.5-2.7-10.5-1.8-13.9-.1z"/><path fill="#28B8EB" d="M110.4 55.1c.8-5.9-3.6-10.5-6.4-12.7-3.1 3.6-3.6 13.2 1.3 17.2-2.8 2.4-8.5 4.7-14.5 4.7h-68c-.3 9.5 3.2 16.7 9.5 21 4.9-.1 8.9-.7 12-1.7.5-.2.9.1 1.1.5.2.5-.1.9-.5 1.1-.4.1-.8.3-1.3.4-2.4.7-5.2 1.2-8.5 1.4l-.1-.1c8.5 4.4 20.8 4.3 35-1.1 15.8-6.1 30.6-17.7 40.9-30.9-.2.1-.4.1-.5.2z"/><path fill="#028BB8" d="M18.7 71.8c.4 3.3 1.4 6.4 2.9 9.3l.8 1.5c.5.9 1.1 1.7 1.7 2.6 3 .2 5.7.3 8.2.2 4.9-.1 8.9-.7 12-1.7.5-.2.9.1 1.1.5.2.5-.1.9-.5 1.1-.4.1-.8.3-1.3.4-2.4.7-5.2 1.2-8.5 1.4h-.4c-1.3.1-2.7.1-4.1.1-1.6 0-3.2 0-4.9-.1 6 6.8 15.5 10.8 27.3 10.8 21.4 0 40-8.1 50.8-26H18.7v-.1z"/><path fill="#019BC6" d="M23.5 71.8c1.3 5.8 4.3 10.4 8.8 13.5 4.9-.1 8.9-.7 12-1.7.5-.2.9.1 1.1.5.2.5-.1.9-.5 1.1-.4.1-.8.3-1.3.4-2.4.7-5.2 1.2-8.6 1.4 8.5 4.4 20.8 4.3 34.9-1.1 8.5-3.3 16.8-8.2 24.2-14.1H23.5z"/><path fill-rule="evenodd" clip-rule="evenodd" fill="#00ACD3" d="M28.4 52.7h9.8v9.8h-9.8v-9.8zm.8.8h.8v8.1h-.8v-8.1zm1.4 0h.8v8.1h-.8v-8.1zm1.5 0h.8v8.1h-.8v-8.1zm1.5 0h.8v8.1h-.8v-8.1zm1.5 0h.8v8.1h-.8v-8.1zm1.5 0h.8v8.1h-.8v-8.1zm3-12h9.8v9.8h-9.8v-9.8zm.9.8h.8v8.1h-.8v-8.1zm1.4 0h.8v8.1h-.8v-8.1zm1.5 0h.8v8.1h-.8v-8.1zm1.5 0h.8v8.1h-.8v-8.1zm1.4 0h.8v8.1h-.8v-8.1zm1.5 0h.8v8.1h-.8v-8.1z"/><path fill-rule="evenodd" clip-rule="evenodd" fill="#23C2EE" d="M39.6 52.7h9.8v9.8h-9.8v-9.8zm.9.8h.8v8.1h-.8v-8.1zm1.4 0h.8v8.1h-.8v-8.1zm1.5 0h.8v8.1h-.8v-8.1zm1.5 0h.8v8.1h-.8v-8.1zm1.4 0h.8v8.1h-.8v-8.1zm1.5 0h.8v8.1h-.8v-8.1z"/><path fill-rule="evenodd" clip-rule="evenodd" fill="#00ACD3" d="M50.9 52.7h9.8v9.8h-9.8v-9.8zm.8.8h.8v8.1h-.8v-8.1zm1.5 0h.8v8.1h-.8v-8.1zm1.5 0h.8v8.1h-.8v-8.1zm1.4 0h.8v8.1h-.8v-8.1zm1.5 0h.8v8.1h-.8v-8.1zm1.5 0h.8v8.1h-.8v-8.1z"/><path fill-rule="evenodd" clip-rule="evenodd" fill="#23C2EE" d="M50.9 41.5h9.8v9.8h-9.8v-9.8zm.8.8h.8v8.1h-.8v-8.1zm1.5 0h.8v8.1h-.8v-8.1zm1.5 0h.8v8.1h-.8v-8.1zm1.4 0h.8v8.1h-.8v-8.1zm1.5 0h.8v8.1h-.8v-8.1zm1.5 0h.8v8.1h-.8v-8.1zm3.1 10.4H72v9.8h-9.8v-9.8zm.8.8h.8v8.1H63v-8.1zm1.5 0h.8v8.1h-.8v-8.1zm1.4 0h.8v8.1h-.8v-8.1zm1.5 0h.8v8.1h-.8v-8.1zm1.5 0h.8v8.1h-.8v-8.1zm1.5 0h.8v8.1h-.8v-8.1z"/><path fill-rule="evenodd" clip-rule="evenodd" fill="#00ACD3" d="M62.2 41.5H72v9.8h-9.8v-9.8zm.8.8h.8v8.1H63v-8.1zm1.5 0h.8v8.1h-.8v-8.1zm1.4 0h.8v8.1h-.8v-8.1zm1.5 0h.8v8.1h-.8v-8.1zm1.5 0h.8v8.1h-.8v-8.1zm1.5 0h.8v8.1h-.8v-8.1z"/><path fill-rule="evenodd" clip-rule="evenodd" fill="#23C2EE" d="M62.2 30.2H72V40h-9.8v-9.8zm.8.8h.8v8.1H63V31zm1.5 0h.8v8.1h-.8V31zm1.4 0h.8v8.1h-.8V31zm1.5 0h.8v8.1h-.8V31zm1.5 0h.8v8.1h-.8V31zm1.5 0h.8v8.1h-.8V31z"/><path fill-rule="evenodd" clip-rule="evenodd" fill="#00ACD3" d="M73.5 52.7h9.8v9.8h-9.8v-9.8zm.8.8h.8v8.1h-.8v-8.1zm1.4 0h.8v8.1h-.8v-8.1zm1.5 0h.8v8.1h-.8v-8.1zm1.5 0h.8v8.1h-.8v-8.1zm1.5 0h.8v8.1h-.8v-8.1zm1.5 0h.8v8.1h-.8v-8.1z"/><path fill-rule="evenodd" clip-rule="evenodd" fill="#D4EEF1" d="M48.8 78.3c1.5 0 2.7 1.2 2.7 2.7 0 1.5-1.2 2.7-2.7 2.7-1.5 0-2.7-1.2-2.7-2.7 0-1.5 1.2-2.7 2.7-2.7"/><path fill-rule="evenodd" clip-rule="evenodd" fill="#3A4D54" d="M48.8 79.1c.2 0 .5 0 .7.1-.2.1-.4.4-.4.7 0 .4.4.8.8.8.3 0 .6-.2.7-.4.1.2.1.5.1.7 0 1.1-.9 1.9-1.9 1.9-1.1 0-1.9-.9-1.9-1.9 0-1 .8-1.9 1.9-1.9M1.1 72.8h125.4c-2.7-.7-8.6-1.6-7.7-5.2-5 5.7-16.9 4-20 1.2-3.4 4.9-23 3-24.3-.8-4.2 5-17.3 5-21.5 0-1.4 3.8-21 5.7-24.3.8-3 2.8-15 4.5-20-1.2 1.1 3.5-4.9 4.5-7.6 5.2"/><path fill="#BFDBE0" d="M56 97.8c-6.7-3.2-10.3-7.5-12.4-12.2-2.5.7-5.5 1.2-8.9 1.4-1.3.1-2.7.1-4.1.1-1.7 0-3.4 0-5.2-.1 6 6 13.6 10.7 27.5 10.8H56z"/><path fill="#D4EEF1" d="M46.1 89.9c-.9-1.3-1.8-2.8-2.5-4.3-2.5.7-5.5 1.2-8.9 1.4 2.3 1.2 5.7 2.4 11.4 2.9z"/></g></g></g>
  <g transform="translate(360,274)"><g class="s-chip" style="animation-delay:0.82s"><g transform="scale(0.3125)"><path fill="#326ce5" d="M63.556 1.912a8.51 8.44 0 0 0-3.26.826L15.795 24a8.51 8.44 0 0 0-4.604 5.725L.214 77.485a8.51 8.44 0 0 0 1.155 6.47 8.51 8.44 0 0 0 .484.672l30.8 38.296a8.51 8.44 0 0 0 6.653 3.176l49.394-.012a8.51 8.44 0 0 0 6.653-3.17l30.789-38.301a8.51 8.44 0 0 0 1.645-7.142l-10.996-47.76a8.51 8.44 0 0 0-4.604-5.726L67.682 2.738a8.51 8.44 0 0 0-4.126-.826z"/><path fill="#fff" d="M63.975 18.143v.01c-1.472.014-2.664 1.336-2.664 2.972 0 .028.005.052.005.074-.002.222-.012.49-.005.684.035.946.24 1.668.365 2.535.17 1.42.215 2.547.224 3.687l.036-.164a40.909 40.909 0 0 0-.118-2.394c.139 1.228.24 2.364.186 3.392-.015-.325-.061-.677-.066-.982l-.036.164c.003.347.096.79.069 1.123-.061.29-.291.495-.467.742l-.025.121c.173-.227.354-.444.46-.699-.134.423-.42.796-.707 1.094.08-.124.146-.262.24-.385l.026-.12c-.145.203-.227.457-.385.61l-.006.006-.064 1.12a34.702 34.702 0 0 0-4.797.736 34.279 34.279 0 0 0-17.398 9.935c-.296-.202-.8-.56-.95-.672l-.005-.005-.01.002c-.478.064-.95.207-1.57-.153-1.187-.8-2.271-1.907-3.584-3.24-.601-.637-1.037-1.246-1.754-1.861-.163-.141-.41-.33-.592-.473a3.193 3.193 0 0 0-1.87-.705c-.825-.028-1.62.294-2.14.947-.925 1.16-.628 2.933.658 3.96l.04.026c.174.143.39.326.552.446.762.561 1.457.849 2.21 1.293 1.594.984 2.91 1.798 3.956 2.779.402.427.474 1.19.53 1.525v.008l.847.754c-4.561 6.874-6.675 15.36-5.432 24.006l-1.103.324-.004.006c-.295.381-.712.972-1.135 1.147-1.366.43-2.908.588-4.77.783-.872.073-1.626.031-2.556.207-.205.04-.49.112-.713.164l-.023.006-.04.011c-1.58.383-2.6 1.837-2.27 3.272.327 1.435 1.873 2.306 3.464 1.963l.039-.006h.002c.02-.005.038-.015.05-.018.22-.048.496-.101.69-.154.913-.245 1.574-.603 2.393-.916 1.76-.632 3.218-1.16 4.637-1.365.582-.046 1.204.362 1.517.537l.008.004 1.152-.197c2.674 8.274 8.266 14.96 15.346 19.162l-.48 1.152.003.01c.174.45.364 1.057.237 1.492-.516 1.336-1.4 2.749-2.408 4.326-.488.728-.99 1.295-1.43 2.131-.107.201-.24.507-.342.717-.69 1.475-.184 3.177 1.143 3.816 1.335.643 2.99-.036 3.707-1.513l.007-.008v-.01c.1-.207.242-.478.329-.674.378-.866.505-1.607.77-2.441h-.003c.706-1.773 1.094-3.627 2.059-4.778.26-.31.688-.432 1.136-.552l.01-.004.6-1.084a34.436 34.436 0 0 0 24.556.062c.172.303.478.865.563 1.01l.004.006.008.004c.458.149.948.223 1.35.816.722 1.237 1.218 2.703 1.822 4.475.265.832.397 1.575.775 2.441.087.2.23.475.33.684.715 1.482 2.375 2.163 3.713 1.52 1.326-.64 1.832-2.34 1.143-3.815-.102-.21-.243-.518-.348-.719-.441-.836-.943-1.397-1.43-2.125-1.01-1.577-1.843-2.885-2.36-4.222-.213-.685.036-1.104.206-1.555l.006-.014-.01-.01a.834.834 0 0 1-.09-.168 6.23 6.23 0 0 1-.12-.29c-.08-.21-.16-.442-.224-.596 7.358-4.35 12.786-11.285 15.34-19.295.347.054.93.155 1.12.193l.01.002.009-.004c.402-.265.76-.606 1.475-.549 1.419.205 2.876.734 4.638 1.366.817.312 1.479.677 2.393.921.194.052.47.101.69.149.012.003.029.012.05.017h.002l.04.004c1.59.341 3.137-.528 3.464-1.963.327-1.435-.691-2.888-2.272-3.269-.227-.052-.551-.141-.775-.184-.93-.176-1.683-.132-2.557-.205-1.86-.195-3.402-.353-4.77-.783-.547-.213-.942-.872-1.138-1.148l-.006-.006-1.066-.31a34.42 34.42 0 0 0-.56-12.425 34.497 34.497 0 0 0-4.983-11.525c.278-.252.785-.701.932-.836l.007-.006v-.01c.044-.48.006-.97.495-1.494 1.045-.98 2.364-1.797 3.957-2.779.754-.444 1.454-.731 2.214-1.293.174-.128.408-.328.588-.473 1.286-1.026 1.584-2.798.658-3.959-.925-1.16-2.718-1.267-4.003-.242-.182.145-.43.332-.594.473-.717.618-1.16 1.226-1.76 1.863-1.313 1.335-2.398 2.446-3.586 3.246-.507.294-1.258.193-1.603.172h-.008l-1.004.719c-5.775-6.048-13.63-9.916-22.09-10.672a63.543 63.543 0 0 1-.064-1.174v-.008l-.006-.006c-.35-.333-.76-.61-.864-1.318v-.002c-.115-1.428.077-2.967.3-4.824.125-.867.332-1.59.366-2.535.009-.216-.005-.527-.005-.758 0-1.645-1.203-2.982-2.688-2.982zm-3.514 13.7a34.663 34.663 0 0 0-3.59.552 34.618 34.618 0 0 1 3.59-.551zm-4.781.823a34.262 34.262 0 0 0-3.711 1.133 34.208 34.208 0 0 1 3.71-1.133zm-4.825 1.564a34.262 34.262 0 0 0-3.496 1.666 34.216 34.216 0 0 1 3.496-1.666zM28.8 35.377c.142.02.28.048.418.086a3.168 3.168 0 0 0-.418-.086zm.943.283c.132.064.259.137.38.219a3.168 3.168 0 0 0-.38-.219zm16.549.848a34.262 34.262 0 0 0-3.176 2.14 34.228 34.228 0 0 1 3.176-2.14zm14.346 2.344-.787 13.93-.057.029-.002.013c-.002.05-.014.095-.02.143a2.348 2.348 0 0 1-.263.857c-.038.07-.076.141-.121.207a2.348 2.348 0 0 1-.69.662c-.07.045-.147.08-.222.118a2.348 2.348 0 0 1-.873.226c-.045.003-.088.014-.133.014-.05 0-.094-.022-.143-.026a2.334 2.334 0 0 1-.943-.304c-.045-.026-.094-.041-.137-.069l-.006.022.004-.022c-.044-.027-.102-.016-.144-.047l-.012-.01-.022.014-11.421-8.097c.093-.091.192-.174.287-.264a27.438 27.438 0 0 1 3.23-2.635c.237-.165.473-.332.715-.49a27.438 27.438 0 0 1 3.816-2.078c.24-.107.487-.204.73-.305a27.438 27.438 0 0 1 4.044-1.312c.12-.03.238-.067.36-.094.576-.13 1.162-.206 1.745-.299l.006-.025a28.076 28.076 0 0 1 .004 0l-.006.025c.355-.056.704-.14 1.06-.183zm6.726.002c.197.024.39.068.586.097a27.668 27.668 0 0 1 3.16.656c.412.111.82.23 1.225.36a27.668 27.668 0 0 1 3.033 1.168c.375.17.745.348 1.112.535a27.668 27.668 0 0 1 2.83 1.662c.344.23.68.47 1.015.717a27.668 27.668 0 0 1 2.496 2.074c.144.134.297.257.438.395l-11.346 8.044-.04-.015-.01.008c-.045.032-.094.045-.14.074a2.35 2.35 0 0 1-.882.334c-.077.012-.153.03-.23.033a2.35 2.35 0 0 1-.99-.176 2.34 2.34 0 0 1-.265-.127 2.35 2.35 0 0 1-.746-.65c-.05-.069-.088-.146-.13-.22a2.35 2.35 0 0 1-.288-.887c-.006-.055-.026-.103-.03-.159v-.011l-.011-.006zm-25.238.576a34.262 34.262 0 0 0-2.81 2.576 34.228 34.228 0 0 1 2.81-2.576zm50.916 8.14a34.483 34.483 0 0 1 1.522 2.594 34.478 34.478 0 0 0-1.522-2.594zm1.994 3.508c.488.993.927 2.01 1.317 3.045a34.478 34.478 0 0 0-1.317-3.045zm-54.576.69 10.43 9.328-.012.056.01.008c.94.817 1.07 2.23.293 3.203-.028.035-.068.057-.098.09a2.348 2.348 0 0 1-.986.65c-.043.015-.078.043-.121.055l-.014.002-.012.047-13.367 3.86c-.02-.185-.02-.37-.037-.555a27.432 27.432 0 0 1-.092-3.344c.013-.387.033-.773.063-1.158a27.432 27.432 0 0 1 .457-3.307c.08-.407.173-.812.273-1.215a27.432 27.432 0 0 1 .99-3.162c.14-.37.29-.734.448-1.097a27.432 27.432 0 0 1 1.51-2.987c.09-.156.17-.32.265-.474zm47.002.007c.097.158.176.324.27.483a27.774 27.774 0 0 1 1.53 3.01c.15.346.298.694.434 1.046a27.774 27.774 0 0 1 1.04 3.288c.045.175.104.346.144.523.69 3.002.86 5.999.578 8.896l-13.434-3.87-.011-.057-.014-.004c-.045-.012-.084-.034-.127-.049a2.35 2.35 0 0 1-.79-.455c-.058-.052-.116-.103-.17-.16a2.35 2.35 0 0 1-.491-.824c-.027-.078-.044-.158-.063-.239a2.35 2.35 0 0 1-.03-.892c.009-.049.01-.096.02-.145.01-.045.038-.084.05-.129a2.329 2.329 0 0 1 .599-.996c.034-.033.054-.076.09-.107l.01-.01-.006-.03 10.37-9.279zm9.228 3.305c.332.965.619 1.945.864 2.938a34.478 34.478 0 0 0-.864-2.938zm-34.824 6.752h4.262l2.65 3.314-.95 4.133-3.83 1.84-3.837-1.848-.953-4.132zm13.727 11.395c.18-.01.357.008.533.04l.014.003.023-.03 13.828 2.338c-.064.18-.147.351-.215.53a27.466 27.466 0 0 1-1.36 3.011c-.19.363-.386.721-.593 1.074a27.466 27.466 0 0 1-1.853 2.768c-.243.32-.492.633-.748.941a27.466 27.466 0 0 1-2.29 2.432c-.29.274-.588.54-.892.8a27.466 27.466 0 0 1-2.64 2.012c-.16.107-.31.225-.471.329l-5.365-12.967.015-.022-.004-.011c-.02-.045-.026-.092-.043-.137a2.351 2.351 0 0 1-.135-.889c.004-.081.006-.162.018-.242a2.351 2.351 0 0 1 .334-.89c.045-.072.098-.137.15-.204a2.351 2.351 0 0 1 .68-.578c.043-.024.079-.055.123-.076.289-.139.59-.218.89-.232zm-23.31.056.013.002c.03 0 .06.008.092.01a2.349 2.349 0 0 1 1.226.445c.07.05.133.101.196.158a2.349 2.349 0 0 1 .689 1.106c.008.03.022.059.03.09.11.479.065.98-.13 1.431l-.005.012.04.05-5.31 12.837c-.155-.1-.3-.212-.451-.315a27.58 27.58 0 0 1-2.64-2.011 27.508 27.508 0 0 1-.891-.803 27.58 27.58 0 0 1-2.272-2.408c-.26-.312-.513-.629-.76-.951a27.58 27.58 0 0 1-1.82-2.704 27.294 27.294 0 0 1-.627-1.123 27.58 27.58 0 0 1-1.346-2.947c-.07-.181-.154-.356-.22-.539l13.707-2.326.023.03.014-.005c.147-.027.294-.04.443-.039zm2.304 1.994a2.326 2.326 0 0 1 .02.344 2.286 2.286 0 0 0-.02-.344zm-.008.703a2.326 2.326 0 0 1-.1.4c.046-.13.077-.264.1-.4zm9.334 2.944c.058-.002.114.013.172.015a2.32 2.32 0 0 1 .752.159c.054.021.112.03.164.056v.002a2.31 2.31 0 0 1 1.043.99l.006.012h.053l6.757 12.213c-.276.092-.557.173-.836.256a28.056 28.056 0 0 1-.996.277c-.283.074-.564.15-.85.215-.124.029-.25.046-.376.072a27.542 27.542 0 0 1-4.18.561c-.28.016-.558.035-.838.043a27.542 27.542 0 0 1-4.32-.223c-.28-.036-.56-.085-.838-.13a27.542 27.542 0 0 1-4.055-.975c-.127-.041-.257-.072-.384-.115l6.742-12.188h.01l.007-.012c.026-.048.065-.085.094-.13a2.351 2.351 0 0 1 .606-.647c.083-.06.168-.115.26-.164a2.351 2.351 0 0 1 .85-.262c.054-.005.103-.023.157-.025zM52.297 98.69a34.413 34.413 0 0 0 3.758 1.137 34.352 34.352 0 0 1-3.758-1.137zm23.385.09c-1.07.381-2.156.709-3.258.983a34.56 34.56 0 0 0 3.258-.983zm-4.575 1.281a34.399 34.399 0 0 1-3.718.563 34.413 34.413 0 0 0 3.718-.563zm-13.937.016a34.413 34.413 0 0 0 3.898.572 34.358 34.358 0 0 1-3.898-.572zm8.91.649a34.36 34.36 0 0 1-3.851.005 34.413 34.413 0 0 0 3.85-.005z"/></g></g></g>
  <g transform="translate(418,274)"><g class="s-chip" style="animation-delay:0.87s"><g transform="scale(0.3125)"><path fill="#F34F29" d="M124.737 58.378L69.621 3.264c-3.172-3.174-8.32-3.174-11.497 0L46.68 14.71l14.518 14.518c3.375-1.139 7.243-.375 9.932 2.314 2.703 2.706 3.461 6.607 2.294 9.993l13.992 13.993c3.385-1.167 7.292-.413 9.994 2.295 3.78 3.777 3.78 9.9 0 13.679a9.673 9.673 0 01-13.683 0 9.677 9.677 0 01-2.105-10.521L68.574 47.933l-.002 34.341a9.708 9.708 0 012.559 1.828c3.778 3.777 3.778 9.898 0 13.683-3.779 3.777-9.904 3.777-13.679 0-3.778-3.784-3.778-9.905 0-13.683a9.65 9.65 0 013.167-2.11V47.333a9.581 9.581 0 01-3.167-2.111c-2.862-2.86-3.551-7.06-2.083-10.576L41.056 20.333 3.264 58.123a8.133 8.133 0 000 11.5l55.117 55.114c3.174 3.174 8.32 3.174 11.499 0l54.858-54.858a8.135 8.135 0 00-.001-11.501z"/></g></g></g>
  <g transform="translate(476,274)"><g class="s-chip" style="animation-delay:0.92s"><g transform="scale(0.3125)"><g fill="#181616"><path fill-rule="evenodd" clip-rule="evenodd" d="M64 5.103c-33.347 0-60.388 27.035-60.388 60.388 0 26.682 17.303 49.317 41.297 57.303 3.017.56 4.125-1.31 4.125-2.905 0-1.44-.056-6.197-.082-11.243-16.8 3.653-20.345-7.125-20.345-7.125-2.747-6.98-6.705-8.836-6.705-8.836-5.48-3.748.413-3.67.413-3.67 6.063.425 9.257 6.223 9.257 6.223 5.386 9.23 14.127 6.562 17.573 5.02.542-3.903 2.107-6.568 3.834-8.076-13.413-1.525-27.514-6.704-27.514-29.843 0-6.593 2.36-11.98 6.223-16.21-.628-1.52-2.695-7.662.584-15.98 0 0 5.07-1.623 16.61 6.19C53.7 35 58.867 34.327 64 34.304c5.13.023 10.3.694 15.127 2.033 11.526-7.813 16.59-6.19 16.59-6.19 3.287 8.317 1.22 14.46.593 15.98 3.872 4.23 6.215 9.617 6.215 16.21 0 23.194-14.127 28.3-27.574 29.796 2.167 1.874 4.097 5.55 4.097 11.183 0 8.08-.07 14.583-.07 16.572 0 1.607 1.088 3.49 4.148 2.897 23.98-7.994 41.263-30.622 41.263-57.294C124.388 32.14 97.35 5.104 64 5.104z"/><path d="M26.484 91.806c-.133.3-.605.39-1.035.185-.44-.196-.685-.605-.543-.906.13-.31.603-.395 1.04-.188.44.197.69.61.537.91zm2.446 2.729c-.287.267-.85.143-1.232-.28-.396-.42-.47-.983-.177-1.254.298-.266.844-.14 1.24.28.394.426.472.984.17 1.255zM31.312 98.012c-.37.258-.976.017-1.35-.52-.37-.538-.37-1.183.01-1.44.373-.258.97-.025 1.35.507.368.545.368 1.19-.01 1.452zm3.261 3.361c-.33.365-1.036.267-1.552-.23-.527-.487-.674-1.18-.343-1.544.336-.366 1.045-.264 1.564.23.527.486.686 1.18.333 1.543zm4.5 1.951c-.147.473-.825.688-1.51.486-.683-.207-1.13-.76-.99-1.238.14-.477.823-.7 1.512-.485.683.206 1.13.756.988 1.237zm4.943.361c.017.498-.563.91-1.28.92-.723.017-1.308-.387-1.315-.877 0-.503.568-.91 1.29-.924.717-.013 1.306.387 1.306.88zm4.598-.782c.086.485-.413.984-1.126 1.117-.7.13-1.35-.172-1.44-.653-.086-.498.422-.997 1.122-1.126.714-.123 1.354.17 1.444.663zm0 0"/></g></g></g></g>
  <g transform="translate(534,274)"><g class="s-chip" style="animation-delay:0.97s"><g transform="scale(0.3125)"><path fill="#f37036" d="M113.117 26.066C92.168-1.062 53.191-6.07 26.062 14.883c-27.125 20.953-32.128 59.93-11.175 87.055 20.957 27.124 59.937 32.124 87.058 11.167 27.114-20.953 32.118-59.918 11.172-87.039Zm0 0"/>
    <path fill="#fff" d="M91.078 24.164a10.038 10.038 0 0 0-5.781 2.426 10.028 10.028 0 0 0-1.54 13.465 10.028 10.028 0 0 0 13.276 2.715h.002v.001l.156.155a10.63 10.63 0 0 0 1.965-1.45A10.341 10.341 0 0 0 99 27.107v-.002l-8.844 8.789-.156-.155 8.844-8.793a10.038 10.038 0 0 0-7.766-2.78zM79.434 38.551c-4.24-.007-11.163 4.799-28.067 21.703l.084.086c-.092-.032-.185-.035-.185-.035l-6.364 6.308a1.035 1.035 0 0 0 .93 1.762l10.914-2.328a.307.307 0 0 0 .092-.17l.242.25-3.72 3.69h-.18l-22.086 22.26 7.086 6.824a1.254 1.254 0 0 0 1.476.149 1.327 1.327 0 0 0 .645-1.356l-1.035-4.5a.534.534 0 0 1 0-.62 117.285 117.285 0 0 0 26.738-17.583l-4.535-4.537.086-.014-2.69-2.689.172-.174.182.186-.094.091 7.137 7.293v-.003c13.68-12.954 23.39-23.367 20.865-30.375a3.83 3.83 0 0 0-1.107-2.208v.004a3.778 3.778 0 0 0-.483-.306c-.083-.088-.156-.178-.244-.264l-.066.066a3.778 3.778 0 0 0-.582-.29l.289-.292c-1.796-1.6-3.28-2.924-5.5-2.93zM30.94 92.21l-5.171 5.172v.004a1.03 1.03 0 0 0-.457 1.125 1.035 1.035 0 0 0 .921.789l12.672.875-7.965-7.965z"/>
    <path fill="#f37036" d="M91.95 23.31a11.047 11.047 0 0 0-7.759 3.17 10.988 10.988 0 0 0-2.39 11.641c-4.741-2.03-11.155 1.51-31.106 21.457a.932.932 0 0 0-.037.094 1.242 1.242 0 0 0-.119.062l-6.309 6.364a1.97 1.97 0 0 0-.363 2.324 2.012 2.012 0 0 0 1.707.984l.313-.203 8.424-1.797-4.03 4.067a.873.873 0 0 0-.054.166l-19.75 19.799a.798.798 0 0 0-.192.238l-5.086 5.09a1.967 1.967 0 0 0-.414 2.043 1.995 1.995 0 0 0 1.656 1.265l12.618.88a1.01 1.01 0 0 0 .52-.415.886.886 0 0 0 0-1.035l-.026-.025a2.243 2.243 0 0 0 .705-.58 2.237 2.237 0 0 0 .406-1.876l-.984-4.187a126.725 126.725 0 0 0 26.334-16.861 1.091 1.091 0 0 0 .248.103c.254-.019.492-.128.672-.308 13.55-12.83 21.515-21.622 21.515-28.602a8.03 8.03 0 0 0-.431-2.85 10.957 10.957 0 0 0 3.845.83l-.015.004a11.219 11.219 0 0 0 5.183-1.45.775.775 0 0 0 .004.001.835.835 0 0 0 .617-.055 9.398 9.398 0 0 0 2.07-1.652 10.873 10.873 0 0 0 3.258-7.758 10.873 10.873 0 0 0-3.257-7.758.93.93 0 0 0-.118-.091 11.045 11.045 0 0 0-7.656-3.078zm-.087 1.772a9.27 9.27 0 0 1 5.586 1.914l-8.068 8.117a.84.84 0 0 0-.076.098.83.83 0 0 0-.239.55.832.832 0 0 0 .313.65h.002l6.1 6.1a9.044 9.044 0 0 1-10.028-1.913c-2.586-2.6-3.336-6.504-1.953-9.891 1.383-3.39 4.68-5.605 8.363-5.625zm7.12 3.432a8.87 8.87 0 0 1 2.033 5.674 9.15 9.15 0 0 1-2.688 6.464 9.989 9.989 0 0 1-1.098.895L92.307 36.7l-.963-.963.265-.265 7.373-6.96zm-.366 4.193a.777.777 0 0 0-.55.031.731.731 0 0 0-.36.426.73.73 0 0 0 .05.559 2.226 2.226 0 0 1-.257 2.328.64.64 0 0 0-.195.488c.004.184.07.36.195.492a.58.58 0 0 0 .414 0 .68.68 0 0 0 .672-.207 3.573 3.573 0 0 0 .465-3.777v.004a.777.777 0 0 0-.434-.344zM79.34 39.43a5.584 5.584 0 0 1 3.31 1.226 4.756 4.756 0 0 0-2.681 1.34L57.162 64.701l-4.476-4.476c11.828-11.772 19.06-17.921 23.556-19.936a5.584 5.584 0 0 1 3.098-.86zm3.965 2.96a2.895 2.895 0 0 1 2.043.844 2.786 2.786 0 0 1 .879 2.121 2.869 2.869 0 0 1-.985 2.07l-24.25 21.106-2.617-2.617 22.887-22.68a2.895 2.895 0 0 1 2.043-.843zm2.994 6.698c-1.69 6.702-10.647 15.783-19.987 24.607l-3.777-3.773L86.3 49.088zM51.367 61.547l.274.27 3.513 3.513-9.63 2.06 5.843-5.843zm5.793 5.84.004.004 1.168 1.195a1.086 1.086 0 0 0 .018.084l.078.012.248.254.82.84-5.385.66 3.05-3.05zm3.867 4.076 3.578 3.576A126.992 126.992 0 0 1 38.75 91.695a1.44 1.44 0 0 0-.777 1.653l1.035 4.5a.31.31 0 0 1 0 .363.31.31 0 0 1-.414 0l-6.102-6.152L51.3 72.975l9.728-1.512zm-29.933 21.94.869.814 4.492 4.492-10.016-.648 4.655-4.659z"/></g></g></g>
  <g clip-path="url(#spanel)"><rect class="s-shine" x="0" y="8" width="200" height="324" fill="url(#sshine)" transform="skewX(-16)"/></g>
</g>
</svg>
